<svg xmlns="http://www.w3.org/2000/svg" baseProfile="tiny" version="1.2" viewBox="0 0 651.5 235" x="0px" xml:space="preserve" y="0px"> <g> <g> <path d="M25.7,15.3l7,5.1c0,0-1.9-6.4-3.8-11S26.2,3,20.8,1.9C15.3,0.8,0,0,0,0l5.9,5.1 C7.2,17.3,19.2,20.3,25.7,15.3z" fill="none"></path> </g> <g> <path d="M25.7,229.6l7,5.1c0,0-1.9-6.4-3.8-11s-2.7-6.4-8.2-7.5C15.3,215,0,214.2,0,214.2l5.9,5.1 C7.2,231.5,19.2,234.5,25.7,229.6z" fill="none"></path> </g> <g> <path d="M644.7,15.3l7,5.1c0,0-1.9-6.4-3.8-11s-2.7-6.4-8.2-7.5C634.3,0.8,619,0,619,0l5.9,5.1 C626.2,17.3,638.2,20.3,644.7,15.3z" fill="none"></path> </g> <g> <path d="M644.7,229.6l7,5.1c0,0-1.9-6.4-3.8-11s-2.7-6.4-8.2-7.5c-5.4-1.1-20.8-1.9-20.8-1.9l5.9,5.1 C626.2,231.5,638.2,234.5,644.7,229.6z" fill="none"></path> </g> </g> <g> <path d="M307,166.5h-56.3l-11.5,31.1h-27.8l52.9-131.9c1.2-3,4.1-4.9,7.3-4.9h19.7l54.9,136.8h-27.8 L307,166.5z M298.8,143.8l-19.9-53.6l-19.9,53.6H298.8z" fill="#203232"></path> <path d="M485.1,128c0,38.9-21.9,72.5-68,72.5c-41.8,0-72.3-27.6-72.3-71.3 c0-42.2,28.7-71.3,73.5-71.3c22.7,0,40.1,7.6,53.2,18.2l-16.6,21.3c-9.6-8-22.1-13.9-37.5-13.9c-27.9,0-45.1,19.7-45.1,45.7 c0,26.6,17.8,45.7,46.1,45.7c26.4,0,38.5-16.8,40.1-31.7h-36.2l18.3-23.1h44.5C485.1,122.9,485.1,125.5,485.1,128z" fill="#203232"></path> <path d="M528,84.2v35.9h50l-18.1,23.1H528v54.4h-25v-129c0-4.3,3.5-7.8,7.8-7.8h75v23.5H528z" fill="#203232"></path> </g> <g> <path d="M166.9,102.5l-6.1-7.2c-5.2-8.1-19.7-18.5-0.1-33.8l-10.6-11.4l11.3-13.5l-24.1,1.1 l-51.1-6.3l-9.6,10l5,13.4c0,0-53.2,49.2-21.9,116.2c20.5,29.3,40.8,30.5,40.8,30.5S26.9,136.4,83,77.2c0,0-8.4,32.2,2.6,58.7 c0,0,26.3-0.2,28.1-11.3l-1.6-4.1c0,0,22.2,4.1,28.9-5.9l7.9,6.5l24.8-6.8L166.9,102.5z M94.6,75.1c0,0,41-16.2,40.6,27.9 C135.2,103,97.4,106,94.6,75.1z" fill="#ED5A36"></path> </g> <g> <path d="M81.6,54.8c0.8-14.2,10-20.2,10-20.2c8,4.3,12.8,16.8,12.8,16.8c0.3-2.9,0.3-5.5,0.2-7.9 c4.1-1.8,21.8-8.2,38.4,4.4c0,0,5.3-9.1,18.4-11.2c0,0,0.6,6.6,0,12.8c0,0,6.4-11.2,4.5-23c0,0-12-2.4-30.2,9.3 c0,0-17.9-9-33.8-3.9c-3.7-8.3-9.6-11.5-9.6-11.5c-8.6,3.5-14.9,9.3-21.1,26.7c-25.1,20-40.7,39.8-38.4,84.4 C40.8,75.8,81.6,54.8,81.6,54.8z" fill="#203232"></path> <path d="M147.9,59.2c-10.2-10.5-21.5-13.6-21.5-13.6c-11,5.9-18.9,15.8-18.9,15.8l22.1-7.9 L147.9,59.2z" fill="#203232"></path> <path d="M132.1,59.2c-6.1,4.8-11.9,13.6-11.9,13.6l15.9-5.4l14.1,3.3 C140.8,62.9,132.1,59.2,132.1,59.2z" fill="#203232"></path> <path d="M123.6,92.6l7,5.1c0,0-1.9-6.4-3.8-11c-1.9-4.6-2.7-6.4-8.2-7.5c-5.4-1.1-20.8-1.9-20.8-1.9 l5.9,5.1C105,94.5,117,97.5,123.6,92.6z" fill="#203232"></path> <path d="M137.1,118c-12.7,0.9-20.8-3.8-20.8-3.8C122.3,127.4,137.1,118,137.1,118z" fill="#203232"></path> <path d="M140,123.6c-8.2,3.7-14.2,1.9-14.2,1.9C133.6,132.5,140,123.6,140,123.6z" fill="#203232"></path> <path d="M85.5,135.9c7.5,0.5,16.1-2.2,16.1-2.2C87.8,115,90.3,88.3,90.3,88.3 C78.2,118.6,85.5,135.9,85.5,135.9z" fill="#203232"></path> <path d="M165.5,66c0,0,13.4,17.5,1.4,36.5c2.4,4.6,2.2,11.7-3.7,13.6c-6.2,2-16.1,1.6-22.2-1.9 l8.8,12.1c0,0-4.4,7.7-17.6,7.7c-13.2,0-20.1-13.9-20.1-13.9s-0.1,10.7,6.9,17.7c-6.1,8.2-31.9,10.5-46.1,5.8 c0,0-12.6-31.5,10.1-66.3c-18.1,13.5-29.3,44-18.5,77l53,0.1l-1.9,7.7h52.3c0,0,2.1-9.7-1.7-18.1c18.8-12.5,8.5-40.7,8.5-40.7 S182,79.2,165.5,66z M126.8,154.9c0,0,3.9-16,22-16c8.6,0,9.4,16,9.4,16H126.8z M156.3,128.2l12.5-7c4.3,12.4-7.4,15.9-7.4,15.9 L156.3,128.2z" fill="#203232"></path> <path d="M162.4,77.2l1.3-4.2c0,0-5.8,2.4-9.4,4.4c-3.6,2-2.9,5.2-1.2,7.9c1.7,2.7,7.6,9.9,7.6,9.9 l-0.5-6.5C165,86.8,165.5,80.6,162.4,77.2z" fill="#203232"></path> <path d="M126.8,167.4l-24.1,8.7l-25.3-8.7c0,0,13.6,11.8,24.1,17.5 C101.5,184.9,116.4,177.8,126.8,167.4z" fill="#203232"></path> <path d="M53.5,102.7c-19.6,33.3-3.2,89.7,45.3,111.1c0,0,15.1-9.9,38.4-41.2c0,0-16.9,14.8-38.4,26.8 C77.4,189.1,39.6,154.7,53.5,102.7z" fill="#203232"></path> </g> <g> <path d="M605,62.2h-3v8h-1.9v-8h-3v-1.8h8V62.2z" fill="#203232"></path> <path d="M618.8,70.1h-1.9v-7.4l-2.4,6.4h-2.1l-2.4-6.4v7.3h-1.9v-9.8h2.9l2.5,6.6l2.5-6.6h2.9V70.1z " fill="#203232"></path> </g> </svg>