<?xml version="1.0" encoding="utf-8"?>
<!-- Generator: Adobe Illustrator 23.1.0, SVG Export Plug-In . SVG Version: 6.00 Build 0)  -->
<svg version="1.1" id="Layer_1" xmlns="http://www.w3.org/2000/svg" xmlns:xlink="http://www.w3.org/1999/xlink" x="0px" y="0px"
	 viewBox="0 0 200 108.9" style="enable-background:new 0 0 200 108.9;" xml:space="preserve">
<style type="text/css">
	.st0{fill:#01AEDB;}
	.st1{fill:#00ADDB;}
</style>
<g id="KIej5O.tif">
	<g>
		<path class="st0" d="M6.2,49.1c0.6-0.8,1.2-1.5,1.8-2.3c0.4-0.5,0.9-0.8,1.4-0.8c7.2,0,14.5,0,21.7,0c6.6,0,13,0,19.6,0
			c0.2,0,0.3,0,0.5,0c0.3,0,0.5,0.3,0.4,0.5c-0.3,0.8-0.5,1.5-0.8,2.3c-0.2,0.4-0.5,0.5-0.9,0.5c-0.9,0-1.7,0-2.6,0
			c-9,0-18.1,0-27.1,0c-4.4,0-8.8,0-13.2,0c-0.2,0-0.4,0-0.6-0.1C6.2,49.3,6.2,49.2,6.2,49.1z"/>
		<path class="st1" d="M105.8,62.8c-0.2,0-0.3,0-0.5,0c-5.6,0-11.2,0-16.8,0c-0.5,0-0.9,0-1.3-0.2c-0.7-0.3-1-0.9-1-1.5
			c0-0.4,0.1-0.7,0.3-1c1.4-3.4,2.9-6.8,4.8-10.1c0.4-0.7,0.9-1.1,1.6-1.3c0.3-0.1,0.7-0.1,1-0.1c9.6,0,19.2,0,28.8,0
			c0.2,0,0.4,0,0.5-0.3c1.4-4.4,3.6-8.3,6.4-11.9c2.7-3.4,5.7-6.5,9.3-8.8c3.3-2.2,6.8-3.8,10.6-4.9c4.7-1.3,9.5-2.1,14.5-2
			c7.7,0.2,14.5,2.8,20.3,7.7c4.3,3.6,7.2,8.1,8.8,13.4c0.8,2.5,1.1,5,1.2,7.6c0.2,3,0.1,6.2-0.5,9.2c-1,5.1-3,9.8-6.1,14
			c-4.8,6.4-10.7,11.2-18.2,14.3c-3.3,1.3-6.8,2.4-10.4,2.8c-1.8,0.2-3.6,0.5-5.5,0.5c-6.8-0.2-13-1.8-18.6-5.6
			c-6-4-10.2-9.3-12.3-16.4c0-0.1,0-0.2-0.1-0.3c-0.1,0.1-0.2,0.3-0.3,0.5c-4.3,7.9-10.3,14-18.4,17.9c-3.5,1.7-7.1,2.7-11,3.2
			c-2.5,0.4-5,0.5-7.5,0.4c-5.6-0.3-10.7-2-15.5-5c-4.2-2.8-7.7-6.3-10.1-10.6c-1.7-3.1-2.8-6.5-3.2-10c-0.4-2.5-0.5-4.9-0.4-7.4
			c0.3-4.8,1.5-9.3,3.7-13.6c3.6-7.1,8.7-12.9,15.5-17.2c4-2.5,8.3-4.2,12.7-5.1c3-0.7,6.2-1,9.3-1c7.6,0.1,14.3,2.8,20,7.8
			c3.1,2.8,5.4,6.2,7.1,10c0.1,0.2,0.2,0.4,0.3,0.7c0.2,0.4,0.1,0.7-0.3,1c-0.3,0.2-0.7,0.3-1,0.4c-5.1,1.3-10.3,2.7-15.4,4
			c-0.1,0-0.3,0.1-0.4,0.1c-0.5,0.1-1,0-1.2-0.4s-0.7-0.7-1-1c-2-2.4-4.7-3.7-7.6-4.5c-3.6-0.9-7-0.4-10.4,1.1
			c-3.9,1.8-7.1,4.5-9.3,8.3c-1.4,2.3-2.2,4.8-2.5,7.5c-0.3,2.2-0.3,4.4,0.2,6.5c1.3,5.6,5.7,10,11.3,10.9c5.3,1,10.2-0.4,14.3-4
			C103.4,66.4,104.7,64.6,105.8,62.8C105.8,62.9,105.8,62.9,105.8,62.8z M160.6,37.4c-1,0-2.1,0.1-3.1,0.3c-2.9,0.6-5.8,1.7-8.3,3.4
			c-3.5,2.4-5.9,5.6-7.3,9.6c-1,2.9-1.6,5.7-1.1,8.7c0.5,2.9,1.5,5.7,3.6,7.9c4.3,4.6,9.6,6,15.7,4.8c2.9-0.6,5.5-2,7.9-3.8
			c4.9-3.6,7.6-8.6,8.1-14.6c0.2-1.9-0.2-3.9-0.8-5.7C173.1,41.6,167.3,37.3,160.6,37.4z"/>
		<path class="st0" d="M36.9,41c-5.4,0-10.9,0-16.4,0c-0.2,0-0.5,0.1-0.6-0.2c-0.1-0.2,0.1-0.4,0.3-0.6c0.6-0.8,1.1-1.4,1.7-2.2
			c0.3-0.4,0.7-0.5,1-0.6c0.1,0,0.2,0,0.3,0c10.6,0,21.4,0,32,0c0.2,0,0.6-0.1,0.7,0.2c0.1,0.3-0.1,0.5-0.2,0.7
			c-0.4,0.7-0.9,1.3-1.2,1.9c-0.3,0.5-0.8,0.8-1.3,0.8C47.8,41.1,42.3,41.1,36.9,41C36.9,41.1,36.9,41.1,36.9,41z"/>
		<path class="st0" d="M38.7,58c-3.2,0-6.5,0-9.8,0c-0.6,0-0.7-0.2-0.4-0.7c0.4-0.7,0.8-1.3,1-2c0.3-0.5,0.7-0.8,1.2-0.8
			c6,0,11.9,0,17.9,0c0.7,0,0.9,0.2,0.8,0.9c-0.1,0.7-0.1,1.2-0.2,1.9c-0.1,0.6-0.3,0.8-0.9,0.8C45.2,58.1,42,58.1,38.7,58L38.7,58z
			"/>
	</g>
</g>
</svg>
