<?xml version="1.0" encoding="utf-8"?>
<!-- Generator: Adobe Illustrator 21.0.0, SVG Export Plug-In . SVG Version: 6.00 Build 0)  -->
<svg version="1.1" id="Layer_1" xmlns="http://www.w3.org/2000/svg" xmlns:xlink="http://www.w3.org/1999/xlink" x="0px" y="0px"
	 viewBox="0 0 200 200" style="enable-background:new 0 0 200 200;" xml:space="preserve">
<style type="text/css">
	.st0{fill:#0E6CDC;}
	.st1{fill:#C86A45;}
	.st2{fill:#FFFFFF;}
	.st3{fill:#E9E7E6;}
	.st4{fill:#D57B4B;}
	.st5{fill:#E9E8E8;}
	.st6{fill:#FDFDFC;}
	.st7{fill:#E5E6E9;}
	.st8{fill:#267DE7;}
	.st9{fill:#E7E8E9;}
	.st10{fill:#FCFDFD;}
</style>
<path class="st0" d="M149.2,182.9h-25.3c-15.6,0-28.3-12.8-28.3-28.3V97.6c0-15.6,12.8-28.3,28.3-28.3h25.3
	c15.6,0,28.3,12.8,28.3,28.3v56.9C177.5,170.1,164.7,182.9,149.2,182.9z"/>
<polygon class="st0" points="86.5,71.2 96.8,171.8 138.3,185 180,168.7 185.5,71.8 "/>
<polygon class="st1" points="50.5,14.5 50.5,127.4 65.8,127.9 103.1,116.5 109.8,15.8 "/>
<ellipse class="st2" cx="77.3" cy="30.7" rx="14.7" ry="11.7"/>
<g id="hMGc68.tif_2_">
	<g>
		<g>
			<g>
				<path class="st3" d="M63.1,74.4c-5.4,0-10.8-0.1-16.2-0.1c-4.2,0-8.4,0-12.7,0c-1.2,0-1.5-0.4-1.6-1.5c-0.8-9.5-1.7-19-2.6-28.4
					c-0.3-3.3-0.6-6.6-0.9-9.9c-0.1-1,0.3-1.1,1.2-1.1c4,0,7.9,0,11.9,0c6.9,0,13.9,0,20.8-0.1c0,0.1,0,0.1,0,0.2
					c0,4.5,0,8.9,0,13.4c0,0.1,0,0.1,0,0.2c-6,0-12.1,0-18.1-0.1c-0.7,0-1,0.2-0.9,0.9c0.4,4,0.7,8,1.1,12c0.1,0.7,0.4,0.9,1,0.9
					c5.7,0,11.3-0.1,17-0.1l0,0.1c0,4.5,0,8.9,0,13.4C63.1,74.3,63.1,74.3,63.1,74.4z"/>
				<g>
					<path class="st4" d="M63.1,95.8c0-7.1,0-14.3,0-21.4c0-0.1,0-0.1,0-0.2c0.5,0,1.1,0.1,1.6,0.1c4.6,0,9.1,0,13.7,0
						c1,0,1.3,0.2,1.2,1.3c-0.5,5-0.9,10-1.3,14.9c-0.1,1.1-0.5,1.4-1.5,1.7c-4.6,1.2-9.2,2.5-13.8,3.7L63.1,95.8z"/>
					<g>
						<path class="st1" d="M62.5,133.4c-3.6-1.3-7.4-2.2-11.1-3.2c-10.4-2.9-20.9-5.8-31.3-8.7c-0.9-0.3-1.3-0.7-1.3-1.6
							c-1.4-15.5-2.8-31-4.1-46.5c-1.1-12.8-2.2-25.7-3.4-38.5c-0.7-7.4-1.3-14.8-2-22.2c-0.1-1.3,0.1-1.8,1.6-1.8
							c35,0,70,0,104.9,0c0.4,0,0.9,0.1,1.3,0.1c0,1.3,0,2.6,0,3.9c-0.4,0.2-0.3,0.6-0.3,0.9c-0.2,2.5-0.4,4.9-0.7,7.4
							c-0.8,8.5-1.5,17.1-2.3,25.6c-0.7,8.1-1.4,16.3-2.2,24.5c-0.8,8.5-1.5,17-2.3,25.5c-0.6,7.1-1.3,14.1-1.9,21.2
							c-0.1,0.9-0.5,1.3-1.4,1.6c-9,2.4-18,4.9-26.9,7.4c-5.2,1.5-10.5,3-15.7,4.5C63.1,133.4,62.8,133.4,62.5,133.4z M63.1,95.8
							c-0.2,0-0.4,0-0.6,0c-4.5-1.2-9.1-2.5-13.6-3.7c-0.8-0.2-1-0.6-1-1.3c-0.2-2.9-0.6-5.8-0.8-8.7c-0.1-0.7-0.2-1.1-1-1
							c-3.8,0-7.6,0-11.5,0c-0.9,0-1.1,0.3-1,1.2c0.2,1.5,0.2,3,0.4,4.4c0.4,4.8,0.9,9.7,1.3,14.5c0.1,0.9,0.4,1.3,1.3,1.5
							c8.9,2.4,17.8,4.9,26.6,7.3c0,4.1,0,8.1,0,12.2c0,1.7,0,1.8,1.7,1.3c5.9-1.6,11.7-3.2,17.6-4.8c5-1.4,10.1-2.8,15.1-4.2
							c0.6-0.2,1.3-0.2,1.3-1.1c0.3-3.1,0.6-6.3,0.9-9.4c0.2-2.7,0.4-5.3,0.6-8c0.4-4.2,0.8-8.4,1.2-12.7c0.2-2.5,0.4-4.9,0.6-7.4
							c0.4-3.9,0.8-7.8,1.1-11.8c0.2-2.7,0.4-5.4,0.6-8.1c0.4-4.2,0.8-8.4,1.2-12.7c0.2-2.6,0.5-5.1,0.7-7.7
							c0.4-4.8,0.9-9.6,1.4-14.4c0.1-1-0.2-1.5-1.4-1.5c-13.8,0-27.6,0-41.4,0c-1,0-1.4,0.3-1.4,1.4c0.1,4,0,8,0,12.1
							c-6.9,0-13.9,0.1-20.8,0.1c-4,0-7.9,0-11.9,0c-0.9,0-1.3,0.1-1.2,1.1c0.4,3.3,0.6,6.6,0.9,9.9c0.9,9.5,1.7,18.9,2.6,28.4
							c0.1,1.1,0.4,1.5,1.6,1.5c4.2-0.1,8.4,0,12.7,0c5.4,0,10.8,0,16.2,0.1C63.1,81.5,63.1,88.7,63.1,95.8z"/>
						<path class="st4" d="M63.1,33.3c0-4,0-8,0-12.1c0-1,0.3-1.4,1.4-1.4c13.8,0,27.6,0,41.4,0c1.2,0,1.5,0.4,1.4,1.5
							c-0.5,4.8-1,9.6-1.4,14.4c-0.2,2.6-0.4,5.1-0.7,7.7c-0.4,4.2-0.8,8.4-1.2,12.7c-0.2,2.7-0.4,5.4-0.6,8.1
							c-0.4,3.9-0.8,7.8-1.1,11.8c-0.2,2.5-0.4,4.9-0.6,7.4c-0.4,4.2-0.8,8.4-1.2,12.7c-0.2,2.7-0.4,5.3-0.6,8
							c-0.3,3.1-0.6,6.3-0.9,9.4c-0.1,0.9-0.7,1-1.3,1.1c-5,1.4-10.1,2.8-15.1,4.2c-5.9,1.6-11.7,3.2-17.6,4.8
							c-1.7,0.5-1.7,0.4-1.7-1.3c0-4.1,0-8.1,0-12.2c0-0.1,0-0.1,0-0.2c0.1,0,0.3,0,0.4,0c8.8-2.4,17.6-4.9,26.3-7.3
							c0.8-0.2,0.9-0.7,1-1.4c0.5-6,1.1-12,1.6-18.1c0.6-7,1.2-13.9,1.9-20.9c0.1-1.1-0.1-1.6-1.4-1.5c-3.6,0.1-7.2,0-10.9,0
							c-6.3,0-12.7,0-19,0.1l0-0.1c0-4.5,0-9.1,0-13.6c0-0.1,0-0.1,0-0.2c10.6,0,21.1,0,31.7,0.1c0.8,0,1-0.4,1-1.1
							c0.3-3.5,0.6-7,0.9-10.5c0.2-2,0.1-2-1.8-2c-10.1,0-20.2,0-30.4,0c-0.5,0-1,0.1-1.5,0.1C63.1,33.4,63.1,33.4,63.1,33.3z"/>
						<path class="st5" d="M63.1,110c-8.9-2.5-17.8-4.9-26.6-7.3c-0.9-0.2-1.2-0.7-1.3-1.5c-0.4-4.8-0.8-9.7-1.3-14.5
							c-0.1-1.5-0.2-3-0.4-4.4c-0.1-0.8,0.1-1.2,1-1.2c3.8,0,7.6,0,11.5,0c0.8,0,1,0.3,1,1c0.2,2.9,0.6,5.8,0.8,8.7
							c0.1,0.7,0.2,1.1,1,1.3c4.6,1.2,9.1,2.5,13.6,3.7c0.2,0,0.4,0,0.6,0l0,0.1c0,4.6,0,9.3,0,13.9C63.1,109.9,63.1,109.9,63.1,110
							z"/>
						<path class="st6" d="M63.1,95.9c4.6-1.2,9.2-2.5,13.8-3.7c0.9-0.2,1.4-0.6,1.5-1.7c0.4-5,0.8-10,1.3-14.9
							c0.1-1.1-0.2-1.3-1.2-1.3c-4.6,0-9.1,0-13.7,0c-0.5,0-1.1-0.1-1.6-0.1c0-4.5,0-8.9,0-13.4c6.3,0,12.7-0.1,19-0.1
							c3.6,0,7.2,0.1,10.9,0c1.3,0,1.5,0.4,1.4,1.5c-0.7,7-1.2,13.9-1.9,20.9c-0.5,6-1.1,12-1.6,18.1c-0.1,0.7-0.2,1.2-1,1.4
							c-8.8,2.4-17.6,4.8-26.3,7.3c-0.1,0-0.3,0-0.4,0C63.1,105.2,63.1,100.6,63.1,95.9z"/>
					</g>
				</g>
				<path class="st6" d="M63.1,46.9c0-4.5,0-8.9,0-13.4c0.5,0,1-0.1,1.5-0.1c10.1,0,20.2,0,30.4,0c1.9,0,2,0,1.8,2
					c-0.3,3.5-0.6,7-0.9,10.5c-0.1,0.7-0.2,1.1-1,1.1C84.2,46.9,73.6,46.9,63.1,46.9z"/>
				<path class="st1" d="M63.1,60.7c-5.7,0-11.3,0-17,0.1c-0.7,0-1-0.2-1-0.9c-0.3-4-0.7-8-1.1-12c-0.1-0.7,0.2-0.9,0.9-0.9
					C51,47,57,47,63.1,47C63.1,51.6,63.1,56.1,63.1,60.7z"/>
			</g>
			<g>
				<path class="st7" d="M136.8,89.1c0.1,0,0.2,0.1,0.3,0.1c0,4.5,0,9,0,13.5c-0.1,0-0.2,0.1-0.3,0.1c-8.2,0-16.4,0-24.5-0.1
					c-2.3,0-4.7,0-7,0c-0.8,0-1.1-0.3-1.2-1.1c-0.3-3.7-0.6-7.4-1-11.1c-0.1-1.3,0.3-1.5,1.4-1.5c10.2,0,20.3,0,30.5,0
					C135.7,89.1,136.2,89.1,136.8,89.1z"/>
				<path class="st7" d="M136.8,130.2c-4.5,0-9-0.1-13.5-0.1c-5.1,0-10.2,0-15.3,0c-0.9,0-1.4-0.1-1.5-1.2c-0.3-3.7-0.6-7.4-1-11.1
					c-0.1-1.2,0.3-1.4,1.4-1.4c9.4,0,18.7,0,28.1,0c0.6,0,1.2,0,1.8-0.1c0.1,0,0.2,0.1,0.3,0.1c0,4.5,0,9,0,13.4
					C137,130.1,136.9,130.1,136.8,130.2z"/>
				<path class="st8" d="M136.8,130.2c0.1-0.1,0.2-0.1,0.3-0.2c5,0,10,0.1,15,0.1c1.1,0,1.4,0.3,1.3,1.4c-0.5,4.9-1,9.8-1.3,14.6
					c-0.1,1.3-0.6,1.6-1.7,1.9c-4.5,1.2-8.9,2.4-13.3,3.6c-0.1,0-0.2-0.1-0.3-0.1C136.8,144.4,136.8,137.3,136.8,130.2z"/>
				<path class="st8" d="M135.7,116.6c-0.1,0-0.2-0.1-0.3-0.1c0-4.6,0-9.1,0-13.7c0.1,0,0.2-0.1,0.3-0.1c6.3,0,12.6,0.1,18.8,0
					c1,0,1.4,0.2,1.3,1.2c-0.4,3.7-0.8,7.5-1.1,11.2c-0.1,1.1-0.5,1.4-1.6,1.4C147.4,116.5,141.6,116.6,135.7,116.6z"/>
				<g>
					<path class="st8" d="M136.8,89.1c0-4,0-8,0-12.1c0-1,0.3-1.4,1.3-1.4c13.8,0,27.6,0,41.4,0c1.2,0,1.5,0.4,1.4,1.5
						c-0.3,3-0.5,6-0.8,9c-0.3,2.7-0.4,5.4-0.7,8.1c-0.4,4.1-0.8,8.1-1.1,12.2c-0.2,2.5-0.4,5-0.6,7.5c-0.4,4.2-0.8,8.3-1.1,12.5
						c-0.2,2.7-0.4,5.4-0.6,8.1c-0.4,3.9-0.8,7.8-1.1,11.8c-0.2,2.7-0.4,5.3-0.7,8c-0.4,4.1-0.8,8.2-1.1,12.4c0,0,0,0.1,0,0.1
						c0.6,2.8-1.1,3.4-3.3,4c-8.5,2.3-17,4.7-25.6,7c-1.9,0.5-3.9,1-5.9,1.6c-1.1,0.3-1.3,0-1.3-1c0-3.7,0-7.3,0-11
						c0-0.6,0.1-1.2-0.3-1.7c0.2,0,0.4-0.1,0.6-0.1c0.1,0,0.2,0,0.3,0c8.7-2.4,17.5-4.8,26.2-7.2c0.9-0.3,1.1-0.8,1.1-1.6
						c0.2-3,0.5-5.9,0.7-8.9c1-10.6,1.9-21.1,2.9-31.7c0.8-8.5,1.5-17.1,2.3-25.6c0.1-1.1-0.1-1.5-1.3-1.4c-5.1,0.1-10.1,0-15.2,0
						c-5.7,0-11.4,0-17.1,0.1C137,89.2,136.9,89.1,136.8,89.1z"/>
					<path class="st9" d="M137.1,165.6c-0.2,0-0.4,0.1-0.6,0.1c-8.6-2.4-17.3-4.8-25.9-7.2c-1-0.3-1.5-0.6-1.6-1.8
						c-0.5-6.1-1.1-12.1-1.7-18.2c-0.1-1.2,0-1.8,1.5-1.7c3.5,0.1,7,0.1,10.6,0c1.1,0,1.6,0.3,1.6,1.5c0.1,2.7,0.4,5.4,0.7,8.2
						c0.1,0.6,0,1.2,0.9,1.4c4.7,1.2,9.5,2.5,14.2,3.8c0.1,0,0.2,0.1,0.3,0.1C137.1,156.3,137.1,161,137.1,165.6z"/>
					<path class="st10" d="M137.1,116.6c5.4,0,10.8-0.1,16.2,0c1.1,0,1.4-0.3,1.5-1.4c0.3-3.8,0.6-7.5,1-11.2c0.1-1-0.2-1.2-1.2-1.2
						c-5.8,0-11.7,0-17.5,0c0-4.5,0-9,0-13.5c5.7,0,11.4-0.1,17.1-0.1c5.1,0,10.1,0,15.2,0c1.2,0,1.4,0.3,1.3,1.4
						c-0.8,8.5-1.5,17.1-2.3,25.6c-1,10.6-1.9,21.1-2.9,31.7c-0.3,3-0.5,5.9-0.7,8.9c-0.1,0.8-0.2,1.4-1.1,1.6
						c-8.7,2.4-17.5,4.8-26.2,7.2c-0.1,0-0.2,0-0.3,0c0-4.6,0-9.3,0-13.9c4.4-1.2,8.9-2.5,13.3-3.6c1.1-0.3,1.6-0.7,1.7-1.9
						c0.3-4.9,0.8-9.8,1.3-14.6c0.1-1.1-0.2-1.4-1.3-1.4c-5,0-10,0-15-0.1C137.2,125.5,137.1,121.1,137.1,116.6z"/>
				</g>
			</g>
		</g>
	</g>
</g>
<polygon class="st10" points="137.2,89.2 137.2,102.7 156.8,102.7 158.7,120.3 136.8,120.3 136.8,130.2 155.2,130.2 153.9,153.3 
	136.8,151.6 136.8,165.7 153,156.7 157.9,152.9 160.8,139.8 162.6,109.1 160.3,96.9 "/>
<path class="st0" d="M136.2,189.2c-2.5-1.1-5.3-1.6-7.9-2.4c-11.4-3.2-22.8-6.4-34.2-9.5c-1-0.3-1.4-0.7-1.5-1.7
	c-0.7-8.5-1.5-17-2.3-25.5c-0.9-9.5-1.7-19.1-2.6-28.6c-0.7-8.2-1.5-16.4-2.2-24.6c-0.9-9.6-1.7-19.2-2.6-28.8c-0.1-1,0-1.5,1.2-1.5
	c35.1,0,70.3,0,105.4,0c1.1,0,1.3,0.3,1.2,1.3c-1.4,15.1-2.7,30.2-4,45.4c-1.4,15.6-2.8,31.1-4.2,46.7c-0.5,5.3-1,10.6-1.4,15.9
	c-0.1,0.9-0.5,1.1-1.2,1.3c-13.7,3.8-27.4,7.6-41.1,11.4c-0.5,0.1-1.1,0.1-1.5,0.6C137,189.2,136.6,189.2,136.2,189.2z M136.8,116.5
	c-0.6,0-1.2,0.1-1.8,0.1c-9.4,0-18.7,0-28.1,0c-1.1,0-1.5,0.2-1.4,1.4c0.4,3.7,0.7,7.4,1,11.1c0.1,1,0.6,1.2,1.5,1.2
	c5.1,0,10.2,0,15.3,0c4.5,0,9,0,13.5,0.1c0,7.1,0,14.3,0,21.4c-4.7-1.3-9.5-2.5-14.2-3.8c-0.9-0.2-0.9-0.8-0.9-1.4
	c-0.2-2.7-0.5-5.4-0.7-8.2c-0.1-1.2-0.5-1.5-1.6-1.5c-3.5,0.1-7,0.1-10.6,0c-1.5-0.1-1.6,0.5-1.5,1.7c0.6,6.1,1.2,12.1,1.7,18.2
	c0.1,1.2,0.6,1.5,1.6,1.8c8.6,2.4,17.3,4.8,25.9,7.2c0.4,0.5,0.3,1.1,0.3,1.7c0,3.7,0,7.3,0,11c0,1,0.3,1.3,1.3,1
	c1.9-0.6,3.9-1.1,5.9-1.6c8.5-2.4,17-4.8,25.6-7c2.3-0.6,4-1.3,3.3-4c0,0,0-0.1,0-0.1c0.4-4.1,0.8-8.2,1.1-12.4
	c0.2-2.7,0.4-5.3,0.7-8c0.4-3.9,0.8-7.8,1.1-11.8c0.2-2.7,0.4-5.4,0.6-8.1c0.4-4.2,0.8-8.3,1.1-12.5c0.2-2.5,0.4-5,0.6-7.5
	c0.4-4.1,0.8-8.1,1.1-12.2c0.2-2.7,0.4-5.4,0.7-8.1c0.4-3,0.6-6,0.8-9c0.1-1.1-0.2-1.5-1.4-1.5c-13.8,0-27.6,0-41.4,0
	c-1,0-1.4,0.3-1.3,1.4c0,4,0,8,0,12.1c-0.6,0-1.2,0.1-1.8,0.1c-10.2,0-20.3,0-30.5,0c-1.1,0-1.6,0.2-1.4,1.5c0.4,3.7,0.7,7.4,1,11.1
	c0.1,0.8,0.4,1.1,1.2,1.1c2.3,0,4.7,0,7,0c8.2,0,16.4,0,24.5,0.1C136.8,107.4,136.8,111.9,136.8,116.5z"/>
</svg>
