<?xml version="1.0" encoding="iso-8859-1"?>
<!-- Generator: Adobe Illustrator 21.0.0, SVG Export Plug-In . SVG Version: 6.00 Build 0)  -->
<svg version="1.1" id="Capa_1" xmlns="http://www.w3.org/2000/svg" xmlns:xlink="http://www.w3.org/1999/xlink" x="0px" y="0px"
	 viewBox="0 0 511.999 511.999" style="enable-background:new 0 0 511.999 511.999;" xml:space="preserve">
<path style="fill:#FF7816;" d="M300.982,211.018c-11.455-11.455-24.819-19.303-39.244-24.396c-22.486-8.06-47.519-8.06-70.005,0
	c-14.425,5.092-27.789,12.941-39.244,24.396L30.706,332.802c-40.941,40.941-40.941,107.551,0,148.492s107.551,40.941,148.492,0
	l121.783-121.783C342.135,318.357,340.65,250.687,300.982,211.018z M136.772,438.868c-17.607,17.607-46.032,17.607-63.64,0
	c-17.607-17.607-17.607-46.032,0-63.64c5.091-5.091,121.783-121.783,121.783-121.783c17.607-17.607,46.032-17.607,63.64,0
	s17.607,46.032,0,63.64C256.222,319.417,136.772,438.868,136.772,438.868z"/>
<path style="fill:#FF4B00;" d="M300.982,359.511L179.198,481.294c-40.941,40.941-107.551,40.941-148.492,0l42.426-42.426
	c17.607,17.607,46.032,17.607,63.64,0c0,0,119.45-119.45,121.783-121.783c17.607-17.607,17.607-46.032,0-63.64l42.426-42.426
	C340.65,250.687,342.135,318.357,300.982,359.511z"/>
<path style="fill:#76E2F8;" d="M481.294,179.198L364.621,295.871c-11.455,11.455-24.819,19.303-39.244,24.396
	c-22.486,8.06-47.519,8.06-70.005,0c-14.425-5.092-27.789-12.941-39.244-24.396s-19.303-24.819-24.396-39.244l3.182-3.183
	c17.607-17.607,46.032-17.607,63.64,0s46.032,17.607,63.64,0l116.673-116.673c17.607-17.607,17.607-46.032,0-63.64
	c-17.607-17.607-46.032-17.607-63.64,0l-113.49,113.49c-22.486-8.06-47.519-8.06-70.005,0c5.092-14.425,12.941-27.789,24.396-39.244
	L332.802,30.706c40.941-40.941,107.551-40.941,148.492,0S522.235,138.257,481.294,179.198z"/>
<path style="fill:#25D9F8;" d="M481.294,179.198L364.621,295.871c-11.455,11.455-24.819,19.303-39.244,24.396
	c-22.486,8.06-47.519,8.06-70.005,0c-14.425-5.092-27.789-12.941-39.244-24.396l42.426-42.426c17.607,17.607,46.032,17.607,63.64,0
	l116.673-116.673c17.607-17.607,17.607-46.032,0-63.64l42.426-42.426C522.235,71.647,522.235,138.257,481.294,179.198z"/>
<g>
</g>
<g>
</g>
<g>
</g>
<g>
</g>
<g>
</g>
<g>
</g>
<g>
</g>
<g>
</g>
<g>
</g>
<g>
</g>
<g>
</g>
<g>
</g>
<g>
</g>
<g>
</g>
<g>
</g>
</svg>
