<svg height="512pt" viewBox="-9 0 512 512.11109" width="512pt" xmlns="http://www.w3.org/2000/svg"><path d="m60.695312 102.761719c-67.21875 77.320312-79.769531 188.089843-31.554687 278.488281s147.199219 141.683594 248.855469 128.929688c101.65625-12.75 184.90625-86.894532 209.300781-186.398438 24.390625-99.507812-15.128906-203.746094-99.363281-262.066406h-.089844l-117.847656-42.902344c-7.53125-.707031-15.125-1.058594-22.773438-1.058594-22.964844-.050781-45.820312 3.15625-67.886718 9.53125zm0 0" fill="#f0c419"/><path d="m194.257812 70.71875c0 2.949219-.175781 5.898438-.53125 8.828125h-140.183593c-.351563-2.929687-.53125-5.878906-.527344-8.828125 0-39.003906 31.617187-70.6210938 70.621094-70.6210938 39 0 70.621093 31.6171878 70.621093 70.6210938zm0 0" fill="#fff"/><path d="m143.320312 79.546875c4.390626-4.832031 6.8125-11.128906 6.796876-17.65625 0-14.625-11.855469-26.484375-26.480469-26.484375s-26.484375 11.859375-26.484375 26.484375c-.015625 6.527344 2.410156 12.824219 6.796875 17.65625" fill="#2c2f38"/><path d="m128.386719 185.476562c-45.085938 0-55.828125-20.445312-56.902344-22.785156-1.917969-4.351562-.042969-9.4375 4.238281-11.507812 4.28125-2.066406 9.433594-.371094 11.648438 3.839844.425781.695312 8.40625 12.796874 41.003906 12.796874 35.761719 0 50.042969-14.28125 50.628906-14.890624 3.324219-3.5625 8.914063-3.753907 12.476563-.429688 3.5625 3.328125 3.753906 8.914062.429687 12.480469-.769531.835937-19.414062 20.496093-63.523437 20.496093zm0 0" fill="#e57e25"/><path d="m193.726562 79.546875c-4.359374 35.394531-34.425781 61.988281-70.089843 61.988281-35.664063 0-65.730469-26.59375-70.09375-61.988281zm0 0" fill="#f0c419"/><path d="m188.960938 43.792969c-16.132813-27.488281-48.675782-40.769531-79.433594-32.410157-30.757813 8.363282-52.105469 36.289063-52.097656 68.164063h-3.886719c-.351563-2.929687-.53125-5.878906-.527344-8.828125-.042969-33.746094 23.796875-62.808594 56.898437-69.367188 33.105469-6.554687 66.222657 11.226563 79.046876 42.441407zm0 0" fill="#e6e7e8"/><path d="m123.636719 150.167969c-40.046875-.015625-73.832031-29.808594-78.859375-69.535157-.308594-2.511718.472656-5.039062 2.148437-6.933593 1.675781-1.898438 4.085938-2.980469 6.617188-2.980469h140.183593c2.53125 0 4.941407 1.082031 6.617188 2.980469 1.679688 1.894531 2.460938 4.421875 2.148438 6.933593-5.023438 39.726563-38.8125 69.519532-78.855469 69.535157zm-59.269531-61.792969c7.835937 26.1875 31.929687 44.132812 59.269531 44.132812 27.335937 0 51.433593-17.945312 59.265625-44.132812zm0 0" fill="#e57e25"/><path d="m123.636719 48.648438c0 7.3125-5.929688 13.242187-13.242188 13.242187s-13.242187-5.929687-13.242187-13.242187 5.929687-13.242188 13.242187-13.242188 13.242188 5.929688 13.242188 13.242188zm0 0" fill="#fff"/><path d="m387.933594 70.71875c.003906 2.949219-.175782 5.898438-.53125 8.828125h-140.179688c-.355468-2.929687-.53125-5.878906-.53125-8.828125 0-39.003906 31.617188-70.6210938 70.621094-70.6210938s70.621094 31.6171878 70.621094 70.6210938zm0 0" fill="#fff"/><path d="m337 79.546875c4.386719-4.832031 6.8125-11.128906 6.796875-17.65625 0-14.625-11.859375-26.484375-26.484375-26.484375s-26.480469 11.859375-26.480469 26.484375c-.015625 6.527344 2.40625 12.824219 6.796875 17.65625" fill="#2c2f38"/><path d="m313.78125 185.476562c-45.082031 0-55.824219-20.445312-56.902344-22.785156-1.917968-4.351562-.042968-9.4375 4.242188-11.507812 4.28125-2.066406 9.433594-.371094 11.648437 3.839844.421875.695312 8.402344 12.796874 41.003907 12.796874 35.761718 0 50.042968-14.28125 50.625-14.890624 3.328124-3.5625 8.914062-3.753907 12.480468-.429688 3.5625 3.328125 3.753906 8.914062.425782 12.480469-.757813.835937-19.410157 20.496093-63.523438 20.496093zm0 0" fill="#e57e25"/><path d="m387.402344 79.546875c-4.359375 35.394531-34.425782 61.988281-70.089844 61.988281s-65.730469-26.59375-70.089844-61.988281zm0 0" fill="#f0c419"/><path d="m382.636719 43.792969c-16.128907-27.488281-48.675781-40.769531-79.433594-32.410157-30.757813 8.363282-52.101563 36.289063-52.097656 68.164063h-3.882813c-.355468-2.929687-.53125-5.878906-.53125-8.828125-.042968-33.746094 23.796875-62.808594 56.902344-69.367188 33.105469-6.554687 66.21875 11.226563 79.042969 42.441407zm0 0" fill="#e6e7e8"/><path d="m317.3125 150.167969c-40.042969-.011719-73.832031-29.804688-78.847656-69.535157-.3125-2.511718.46875-5.035156 2.144531-6.929687 1.675781-1.898437 4.082031-2.984375 6.613281-2.984375h140.191406c2.527344 0 4.9375 1.085938 6.609376 2.984375 1.675781 1.894531 2.457031 4.417969 2.144531 6.929687-5.023438 39.726563-38.808594 69.519532-78.855469 69.535157zm-59.269531-61.792969c7.835937 26.1875 31.933593 44.132812 59.269531 44.132812s51.433594-17.945312 59.269531-44.132812zm0 0" fill="#e57e25"/><path d="m317.3125 48.648438c0 7.3125-5.929688 13.242187-13.242188 13.242187s-13.238281-5.929687-13.238281-13.242187 5.925781-13.242188 13.238281-13.242188 13.242188 5.929688 13.242188 13.242188zm0 0" fill="#fff"/><path d="m414.945312 362.027344c-4.277343 7.101562-9.054687 13.886718-14.300781 20.304687-21.007812 39.28125-200.386719 60.488281-198.089843 72.941407l-1.234376-35.777344c7.832032-38.617188 5.085938-78.632813-7.945312-115.816406.882812.261718 159.777344-74.613282 202.238281-96.929688 9.179688-6.441406 18.539063-13.503906 28.160157-21.273438 0 0 44.136718 88.277344-8.828126 176.550782zm0 0" fill="#802d40"/><path d="m349.535156 418.613281v12.269531c-50.226562 36.152344-114.886718 45.632813-173.375 25.425782v-26.660156c.035156-4.625 3.597656-8.457032 8.210938-8.828126l16.949218-1.324218 84.476563-6.445313 54.378906-3.175781c2.417969-.144531 4.785157.707031 6.554688 2.359375s2.785156 3.957031 2.804687 6.378906zm0 0" fill="#fff"/><path d="m400.644531 382.332031c-14.601562 18.566407-31.820312 34.921875-51.109375 48.550781v-12.269531c-.019531-2.421875-1.035156-4.726562-2.804687-6.378906s-4.136719-2.503906-6.554688-2.359375l-54.378906 3.175781c-1.65625-9.175781-5.636719-17.777343-11.5625-24.980469-3.402344.367188-6.828125.425782-10.238281.175782-5.476563-.625-10.6875-2.695313-15.097656-6.003906-4.292969-3.007813-7.609376-7.214844-9.53125-12.09375-1.699219-4.695313-1.214844-9.90625 1.324218-14.210938 3.882813-5.871094 9.589844-10.308594 16.242188-12.625 10.652344-4.101562 21.878906-6.515625 33.277344-7.148438 55.351562-4.765624 90.574218 25.160157 110.433593 46.167969zm0 0" fill="#ff5364"/><path d="m370.808594 264.925781c-16.066406 12.003907-51.464844 37.164063-120.144532 43.253907-18.25 2.210937-36.753906.984374-54.554687-3.617188-.96875-.265625-1.851563-.621094-2.734375-.882812-9.886719-2.351563-18.503906-8.378907-24.101562-16.863282l-9.355469-42.019531c43.960937 21.1875 125.96875 38.136719 235.695312-38.046875 6.003907 30.632812-3.53125 42.375-24.804687 58.175781zm0 0" fill="#fff"/><path d="m239.425781 475.277344c-28.699219-.300782-57.085937-5.988282-83.683593-16.773438-2.941407-1.144531-5.046876-3.769531-5.523438-6.886718-.476562-3.117188.742188-6.253907 3.203125-8.226563s5.789063-2.484375 8.730469-1.339844c158.496094 61.855469 241.679687-78.449219 245.140625-84.453125 39.636719-66.058594 21.890625-132.960937 12.773437-157.96875-94.101562 72.667969-169.921875 77.539063-217.539062 68.421875-31.640625-5.5-61.125-19.714843-85.132813-41.046875-3.347656-3.464844-3.304687-8.96875.097657-12.375 3.402343-3.410156 8.910156-3.460937 12.375-.117187 4.574218 4.5 111.847656 106.9375 288.355468-35.921875 2.078125-1.683594 4.808594-2.332032 7.421875-1.765625 2.617188.566406 4.832031 2.285156 6.03125 4.679687 1.878907 3.777344 45.664063 93.660156-9.164062 185.042969-.6875 1.21875-64.0625 108.722656-183.085938 108.730469zm0 0" fill="#e57e25"/></svg>