<?xml version="1.0" encoding="utf-8"?>
<!-- Generator: Adobe Illustrator 23.1.0, SVG Export Plug-In . SVG Version: 6.00 Build 0)  -->
<svg version="1.1" id="Layer_1" xmlns="http://www.w3.org/2000/svg" xmlns:xlink="http://www.w3.org/1999/xlink" x="0px" y="0px"
	 viewBox="0 0 107.6 114" style="enable-background:new 0 0 107.6 114;" xml:space="preserve">
<style type="text/css">
	.st0{fill:#045770;}
	.st1{fill:#065971;}
</style>
<g id="P2aVkM.tif">
	<g>
		<path class="st0" d="M16.8,12.5c1.6,0.5,3.3,0.9,4.8,1.7c1.9,1,3.8,2,5.4,3.6c0.6,0.6,1.3,0.9,2.2,0.9c2.1,0,4.2,0.3,6.3,0.9
			c2.3,0.6,4.4,1.6,6.5,2.9c8.9,5.6,16.1,12.9,21.4,22.3c1.4,2.4,2.2,5.1,3.3,7.7c1.9,4.6,4.1,9,6.1,13.5c0.7,1.6,1.8,2.4,3.3,3
			c5.5,2.1,10.2,5.6,14.7,9.5c1.7,1.4,3,3.1,4.3,4.9c0.4,0.5,0.2,0.7-0.3,0.9c-2.1,0.8-4.3,1.1-6.4,1.3c-1.9,0.2-3.7,1.1-5.6,1.3
			c-0.4,0-0.3,0.3-0.2,0.5c0.3,0.6,0.7,1,1.1,1.4c1,1,2.2,1.7,3.3,2.4c3.3,1.9,6,4.4,8.3,7.5c0.3,0.3,0.5,0.7,0.9,1
			c1,0.8,1.6,1.8,2,3.1c-0.4,0.2-0.6-0.2-0.8-0.4c-2.6-2.5-5.4-4.5-8.6-5.9c-2.8-1.2-5.3-3-7.6-5c-1.7-1.5-2.9-3.4-3.7-5.5
			c-0.2-0.6,0.3-1,0.7-1.1c2.4-0.8,4.7-1.8,7.2-2.1c1.8-0.2,3.5-0.3,5.3-0.3c0.2,0,0.4,0.1,0.5-0.1c0.1-0.3-0.1-0.4-0.2-0.6
			c-0.5-0.6-1-1-1.6-1.4c-1.7-1.1-3.3-2.2-4.8-3.5c-2.9-2.3-6.2-3.8-9.7-4.7c-2.6-0.7-4.3-2.2-5.5-4.7c-2.5-5.7-5.2-11.3-7.4-17.1
			c-1.8-4.6-4.5-8.7-7.5-12.5c-5.2-6.4-11.3-11.5-18.8-14.7c-1.4-0.6-2.9-1-4.4-1.1c-1.4,0-2.9-0.2-4.3-0.3c-0.6,0-1.1-0.4-1.5-0.8
			c-2.4-2.4-5.3-3.6-8.3-4.8c-0.6-0.3-1.2-0.4-1.9-0.4c-1.5,0-2.3,1.1-1.9,2.5c0.4,1.5,1.1,2.7,2.1,3.8c3.2,3.9,5.5,8.2,6.7,13.2
			c0.3,1.1,0.7,2.2,1,3.3c0.9,2.6,2.1,5.1,4.1,7c1,1,1.1,2.2,0.8,3.5c-0.5,2-1.5,3.9-1.9,6c-1.1,5.7-0.9,11.2,1.4,16.6
			c0.5,1.1,1,2.1,2,2.7c0.7,0.4,0.9,0.3,1-0.5c0.3-2.2,0.5-4.4,0.9-6.6c0.5-2.4,1.9-4.3,3.4-6.2c0.3-0.4,0.5-0.1,0.6,0.1
			c0.2,0.5,0.3,1.1,0.5,1.7c2.5,6.5,5.7,12.5,9.7,18.1c1,1.4,2.1,2.8,3.6,3.9c0.1,0.1,0.3,0.2,0.2,0.5c-0.3,0-0.6-0.2-0.8-0.4
			c-2.9-3.1-6.4-5.5-9.1-8.8C38,74.3,37.1,72,36,69.8c-0.2-0.4-0.4-0.9-0.8-1.3c-0.2,1-0.4,2-0.6,3c-0.2,1.2-0.3,2.4-0.5,3.5
			c-0.7,3-3.4,4-5.7,2.2c-1.8-1.4-2.9-3.3-3.7-5.5c-2.2-6-2.4-12-0.7-18.2c0.5-1.7,0.6-3.5,1.4-5.1c0.2-0.4,0-0.8-0.3-1.1
			c-2.7-2.9-4-6.6-5.3-10.3c-0.6-1.9-1.3-3.7-1.8-5.6c-0.3-1.1-0.9-2.1-1.5-3c-1.2-1.6-2.3-3.3-3.5-4.9c-1.1-1.4-1.8-3-2.4-4.7
			c0-0.8,0-1.5,0-2.3c0.3-0.1,0.2-0.4,0.3-0.7c0.5-1.2,1.2-2.3,2.4-2.9c0.4-0.2,0.9-0.2,1.2-0.5C15.1,12.5,16,12.5,16.8,12.5z"/>
		<path class="st1" d="M27.9,28.4c2.6-1,3.8,0.2,4.7,2.3c0.3,0.7-0.3,2.6-1,3.1c-0.2,0.1-0.3,0.2-0.4-0.1
			C30.5,31.7,29.3,30,27.9,28.4z"/>
	</g>
</g>
</svg>
