<?xml version="1.0" encoding="UTF-8" standalone="no"?>
<!-- Created with Inkscape (http://www.inkscape.org/) -->

<svg
   xmlns:dc="http://purl.org/dc/elements/1.1/"
   xmlns:cc="http://creativecommons.org/ns#"
   xmlns:rdf="http://www.w3.org/1999/02/22-rdf-syntax-ns#"
   xmlns:svg="http://www.w3.org/2000/svg"
   xmlns="http://www.w3.org/2000/svg"
   xmlns:sodipodi="http://sodipodi.sourceforge.net/DTD/sodipodi-0.dtd"
   xmlns:inkscape="http://www.inkscape.org/namespaces/inkscape"
   width="1000"
   height="239.28896"
   id="svg3211"
   version="1.1"
   inkscape:version="0.48.5 r10040"
   sodipodi:docname="New document 4">
  <defs
     id="defs3213" />
  <sodipodi:namedview
     id="base"
     pagecolor="#ffffff"
     bordercolor="#666666"
     borderopacity="1.0"
     inkscape:pageopacity="0.0"
     inkscape:pageshadow="2"
     inkscape:zoom="0.80336722"
     inkscape:cx="391.66953"
     inkscape:cy="-25.265703"
     inkscape:document-units="px"
     inkscape:current-layer="layer1"
     showgrid="false"
     fit-margin-left="0.5"
     fit-margin-bottom="0.5"
     fit-margin-top="0.5"
     fit-margin-right="0.5"
     inkscape:window-width="1920"
     inkscape:window-height="1028"
     inkscape:window-x="-8"
     inkscape:window-y="-8"
     inkscape:window-maximized="1" />
  <metadata
     id="metadata3216">
    <rdf:RDF>
      <cc:Work
         rdf:about="">
        <dc:format>image/svg+xml</dc:format>
        <dc:type
           rdf:resource="http://purl.org/dc/dcmitype/StillImage" />
        <dc:title></dc:title>
      </cc:Work>
    </rdf:RDF>
  </metadata>
  <g
     inkscape:label="Layer 1"
     inkscape:groupmode="layer"
     id="layer1"
     transform="translate(295.79853,-295.46826)">
    <g
       id="g3017"
       transform="matrix(7.8820112,0,0,-7.8820112,-295.29853,508.68798)">
      <path
         d="m 0,0 c 0,-1.784 1.459,-3.244 3.244,-3.244 l 23.215,0 c 1.785,0 3.244,1.46 3.244,3.244 l 0,23.744 c 0,1.784 -1.459,3.244 -3.244,3.244 l -23.215,0 C 1.459,26.988 0,25.528 0,23.744 L 0,0 z"
         style="fill:#feec36;fill-opacity:1;fill-rule:nonzero;stroke:none"
         id="path3019"
         inkscape:connector-curvature="0" />
    </g>
    <g
       id="g3021"
       transform="matrix(7.8820112,0,0,-7.8820112,-167.90473,500.15098)">
      <path
         d="m 0,0 c 0,0.389 0.088,0.814 0.249,1.264 4.172,2.488 8.525,6.313 10.504,9.323 0.083,0.008 0.163,0.012 0.238,0.012 0.58,0 0.959,-0.364 0.959,-0.818 C 11.95,7.01 4.918,0.884 0.155,-0.94 0.057,-0.702 0,-0.398 0,0 M 10.285,10.507 C 8.344,7.849 4.456,4.613 0.778,2.408 2.66,5.776 7.511,9.848 10.285,10.507 M -4.228,0.099 c -0.003,0.034 -0.007,0.067 -0.007,0.102 0,0.827 0.318,1.792 0.861,2.823 3.729,1.869 7.63,4.875 10.314,7.765 1.228,1.318 2.2,2.612 2.79,3.763 0.217,0.044 0.421,0.069 0.607,0.069 1.059,0 1.209,-0.756 1.209,-1.261 0,-0.694 -0.371,-1.552 -1.008,-2.493 C 10.403,10.849 10.262,10.824 10.116,10.789 7.01,10.066 1.378,5.539 -0.545,1.655 -1.873,0.942 -3.136,0.396 -4.228,0.099 m 3.075,-1.441 c -0.364,-0.077 -0.704,-0.121 -1.015,-0.121 -0.662,0 -1.341,0.24 -1.734,0.717 0.92,0.321 1.904,0.769 2.913,1.31 -0.143,-0.459 -0.221,-0.903 -0.221,-1.321 0,-0.216 0.021,-0.41 0.057,-0.585 m -4.327,1.207 c -0.127,-0.011 -0.25,-0.017 -0.369,-0.017 -1.243,0 -1.865,0.622 -2.024,1.52 0.991,0.205 2.048,0.558 3.135,1.023 -0.416,-0.879 -0.678,-1.73 -0.742,-2.526 m -3.601,2.564 c -1.18,0.091 -1.709,0.817 -1.709,1.806 0,0.115 0.006,0.234 0.016,0.355 0.938,0.107 1.95,0.375 3.001,0.771 C -8.387,4.331 -8.84,3.339 -9.081,2.429 m -2.634,3.472 c -0.941,0.322 -1.092,1.091 -1.092,1.712 0,0.275 0.041,0.574 0.12,0.892 0.17,-0.021 0.348,-0.035 0.536,-0.035 0.586,0 1.241,0.116 1.942,0.325 -0.648,-1.004 -1.166,-1.982 -1.506,-2.894 m -1.704,4.888 c -0.061,0.203 -0.093,0.438 -0.093,0.706 0,0.443 0.125,0.949 0.349,1.496 0.303,-0.148 0.672,-0.235 1.113,-0.235 0.213,0 0.436,0.017 0.663,0.048 -0.527,-0.683 -1.001,-1.36 -1.401,-2.015 -0.115,-0.19 -0.225,-0.376 -0.327,-0.561 -0.134,0.152 -0.238,0.337 -0.304,0.561 m 13.041,13.235 c 0.655,0 0.983,-0.352 0.983,-0.856 0,-0.145 -0.021,-0.3 -0.06,-0.462 -3.394,-1.448 -7.95,-5.152 -11.099,-8.874 -0.23,-0.044 -0.444,-0.069 -0.639,-0.069 -0.622,0 -1.095,0.105 -1.421,0.324 2.454,4.225 9.285,9.937 12.236,9.937 M -9.245,14.23 c 2.763,3.291 6.623,6.604 9.648,8.053 -1.073,-2.618 -6.201,-6.686 -9.648,-8.053 m 12.321,8.812 c 1.008,0 1.311,-0.253 1.311,-1.211 0,-0.23 -0.071,-0.503 -0.2,-0.81 -3.859,-1.198 -9.424,-5.724 -12.966,-10.232 -0.186,-0.237 -0.365,-0.472 -0.54,-0.709 -0.8,-0.257 -1.552,-0.4 -2.227,-0.4 -0.254,0 -0.486,0.022 -0.696,0.07 0.151,0.334 0.33,0.682 0.533,1.039 0.423,0.736 0.947,1.512 1.55,2.302 4.297,1.377 9.989,6.648 10.931,9.361 0.862,0.377 1.646,0.59 2.304,0.59 M -7.901,10.627 c 0.039,0.054 0.077,0.108 0.118,0.162 3.14,4.185 8.109,8.459 11.76,9.804 C 2.47,17.822 -2.931,12.964 -7.549,10.789 -7.667,10.734 -7.784,10.68 -7.901,10.627 M 6.05,21.025 c 1.009,0 1.463,-0.505 1.463,-1.261 0,-0.498 -0.192,-1.087 -0.536,-1.737 C 4.019,17.138 -0.09,14.183 -3.435,10.789 -4.757,9.449 -5.96,8.041 -6.924,6.665 -8.272,6.103 -9.518,5.768 -10.548,5.75 c 0.312,1.085 0.917,2.296 1.724,3.55 0.916,0.388 1.881,0.897 2.856,1.489 4.456,2.708 9.136,7.17 10.353,9.943 0.603,0.19 1.162,0.293 1.665,0.293 M -5.414,7.363 c 0.841,1.139 1.842,2.304 2.931,3.426 2.986,3.081 6.606,5.839 9.242,6.85 C 5.528,15.583 2.924,13.013 -0.016,10.789 -1.77,9.464 -3.642,8.261 -5.414,7.363 M 9.263,14.428 C 8.585,13.308 7.513,12.055 6.203,10.789 3.787,8.456 0.559,6.086 -2.502,4.467 c 1.466,2.16 3.676,4.46 5.916,6.322 2.132,1.773 4.287,3.151 5.849,3.639 M 8.597,18.05 c 1.009,0 1.462,-0.681 1.462,-1.387 0,-0.535 -0.206,-1.163 -0.577,-1.852 C 7.783,14.398 5.165,12.853 2.589,10.789 0.034,8.744 -2.477,6.189 -4.006,3.727 -5.396,3.099 -6.714,2.661 -7.86,2.496 c 0.163,1.012 0.693,2.196 1.478,3.45 2.501,1.16 5.123,2.92 7.426,4.843 2.839,2.369 5.187,4.986 6.224,7.027 0.489,0.153 0.936,0.234 1.329,0.234 M 1.563,-1.715 c -0.251,0 -0.496,0.025 -0.715,0.101 5.14,2.487 11.404,8.505 11.404,11.344 0,0.525 -0.272,0.894 -0.734,1.059 -0.168,0.062 -0.361,0.094 -0.575,0.099 0.577,0.937 0.907,1.785 0.907,2.472 0,0.505 -0.152,1.564 -1.565,1.564 -0.12,0 -0.252,-0.012 -0.39,-0.031 0.302,0.66 0.466,1.268 0.466,1.795 0,1.135 -0.755,1.613 -1.764,1.613 -0.357,0 -0.75,-0.052 -1.169,-0.15 0.267,0.591 0.413,1.128 0.413,1.588 0,0.857 -0.454,1.587 -1.892,1.587 -0.43,0 -0.905,-0.071 -1.413,-0.205 0.102,0.296 0.153,0.568 0.153,0.811 0,0.958 -0.605,1.411 -1.613,1.411 -0.63,0 -1.375,-0.178 -2.198,-0.499 0.019,0.104 0.03,0.203 0.03,0.298 0,0.756 -0.403,1.16 -1.361,1.16 -3.148,0 -9.58,-4.928 -12.677,-9.384 -0.019,0.111 -0.029,0.231 -0.029,0.358 0,1.714 2.167,5.647 7.663,8.168 l -0.151,0.303 c -5.797,-2.396 -8.597,-7.008 -8.597,-8.924 0,-0.415 0.106,-0.821 0.325,-1.163 -0.578,-1.039 -0.927,-2.022 -0.953,-2.871 -0.002,-0.035 -0.002,-0.068 -0.002,-0.1 0,-0.814 0.389,-1.471 1.092,-1.854 -0.281,-0.717 -0.437,-1.385 -0.437,-1.978 0,-0.741 0.554,-2.076 2.128,-2.29 -0.056,-0.308 -0.085,-0.604 -0.085,-0.887 0,-1.059 0.732,-2.521 2.444,-2.521 0.15,0 0.303,0.005 0.458,0.014 -0.001,-0.038 -0.004,-0.077 -0.004,-0.115 0,-1.613 1.111,-2.37 2.572,-2.37 0.405,0 0.844,0.051 1.308,0.145 0.344,-1.088 1.52,-1.557 2.373,-1.557 0.701,0 1.502,0.171 2.362,0.474 0.387,-0.344 0.954,-0.474 1.62,-0.474 2.522,0 7.514,3.076 9.732,7.059 L 10.487,4.537 C 7.739,0.352 3.454,-1.715 1.563,-1.715"
         style="fill:#173a79;fill-opacity:1;fill-rule:nonzero;stroke:none"
         id="path3023"
         inkscape:connector-curvature="0" />
    </g>
    <g
       id="g3025"
       transform="matrix(7.8820112,0,0,-7.8820112,4.7924977,325.9199)">
      <path
         d="m 0,0 0,-10.419 -2.462,0 0,10.419 -3.296,0 0,2.196 9.054,0 L 3.296,0 0,0 z"
         style="fill:#173a79;fill-opacity:1;fill-rule:nonzero;stroke:none"
         id="path3027"
         inkscape:connector-curvature="0" />
    </g>
    <g
       id="g3029"
       transform="matrix(7.8820112,0,0,-7.8820112,81.327618,408.03785)">
      <path
         d="m 0,0 0,5.634 c 0,1.223 -0.781,1.63 -1.506,1.63 -0.727,0 -1.489,-0.425 -1.489,-1.63 l 0,-5.634 -2.304,0 0,12.615 2.304,0 0,-4.235 c 0.62,0.639 1.4,0.958 2.214,0.958 2.021,0 3.084,-1.418 3.084,-3.367 L 2.303,0 0,0 z"
         style="fill:#173a79;fill-opacity:1;fill-rule:nonzero;stroke:none"
         id="path3031"
         inkscape:connector-curvature="0" />
    </g>
    <g
       id="g3033"
       transform="matrix(7.8820112,0,0,-7.8820112,152.26493,357.05858)">
      <path
         d="M 0,0 C -0.248,0.549 -0.763,0.957 -1.541,0.957 -2.321,0.957 -2.835,0.549 -3.083,0 -3.225,-0.337 -3.278,-0.585 -3.296,-0.993 l 3.509,0 C 0.195,-0.585 0.142,-0.337 0,0 m -3.296,-2.57 c 0,-1.187 0.726,-2.055 2.021,-2.055 1.009,0 1.505,0.283 2.09,0.868 l 1.4,-1.365 C 1.276,-6.06 0.373,-6.574 -1.293,-6.574 c -2.179,0 -4.27,0.992 -4.27,4.73 0,3.013 1.629,4.714 4.022,4.714 2.569,0 4.022,-1.878 4.022,-4.412 l 0,-1.028 -5.777,0 z"
         style="fill:#173a79;fill-opacity:1;fill-rule:nonzero;stroke:none"
         id="path3035"
         inkscape:connector-curvature="0" />
    </g>
    <g
       id="g3037"
       transform="matrix(7.8820112,0,0,-7.8820112,295.92252,408.03785)">
      <path
         d="M 0,0 -2.056,0 -4.377,7.655 -6.698,0 l -2.055,0 -3.367,12.615 2.569,0 1.95,-7.955 2.304,7.955 1.842,0 2.304,-7.955 1.966,7.955 2.569,0 L 0,0 z"
         style="fill:#173a79;fill-opacity:1;fill-rule:nonzero;stroke:none"
         id="path3039"
         inkscape:connector-curvature="0" />
    </g>
    <g
       id="g3041"
       transform="matrix(7.8820112,0,0,-7.8820112,363.79132,357.05858)">
      <path
         d="M 0,0 C -0.248,0.549 -0.762,0.957 -1.541,0.957 -2.321,0.957 -2.836,0.549 -3.083,0 -3.225,-0.337 -3.278,-0.585 -3.296,-0.993 l 3.508,0 C 0.195,-0.585 0.142,-0.337 0,0 m -3.296,-2.57 c 0,-1.187 0.728,-2.055 2.02,-2.055 1.01,0 1.507,0.283 2.091,0.868 L 2.214,-5.122 C 1.275,-6.06 0.373,-6.574 -1.294,-6.574 c -2.179,0 -4.27,0.992 -4.27,4.73 0,3.013 1.631,4.714 4.023,4.714 2.569,0 4.022,-1.878 4.022,-4.412 l 0,-1.028 -5.777,0 z"
         style="fill:#173a79;fill-opacity:1;fill-rule:nonzero;stroke:none"
         id="path3043"
         inkscape:connector-curvature="0" />
    </g>
    <g
       id="g3045"
       transform="matrix(7.8820112,0,0,-7.8820112,431.94162,377.31614)">
      <path
         d="m 0,0 -1.826,0 c -0.832,0 -1.292,-0.389 -1.292,-1.046 0,-0.637 0.424,-1.063 1.328,-1.063 0.638,0 1.045,0.054 1.452,0.444 C -0.089,-1.435 0,-1.062 0,-0.496 L 0,0 z m 0.053,-3.898 0,0.797 c -0.62,-0.619 -1.205,-0.885 -2.269,-0.885 -1.045,0 -1.806,0.266 -2.356,0.815 -0.496,0.514 -0.762,1.258 -0.762,2.072 0,1.471 1.01,2.676 3.154,2.676 l 2.18,0 0,0.461 c 0,1.01 -0.496,1.453 -1.719,1.453 -0.886,0 -1.294,-0.213 -1.772,-0.763 l -1.471,1.436 c 0.904,0.992 1.791,1.276 3.332,1.276 2.587,0 3.933,-1.099 3.933,-3.26 l 0,-6.078 -2.25,0 z"
         style="fill:#173a79;fill-opacity:1;fill-rule:nonzero;stroke:none"
         id="path3047"
         inkscape:connector-curvature="0" />
    </g>
    <g
       id="g3049"
       transform="matrix(7.8820112,0,0,-7.8820112,486.82322,408.03785)">
      <path
         d="m 0,0 c -1.878,0 -2.676,1.329 -2.676,2.64 l 0,4.571 -0.974,0 0,1.755 0.974,0 0,2.728 2.304,0 0,-2.728 1.63,0 0,-1.755 -1.63,0 0,-4.429 c 0,-0.532 0.248,-0.833 0.797,-0.833 l 0.833,0 L 1.258,0 0,0 z"
         style="fill:#173a79;fill-opacity:1;fill-rule:nonzero;stroke:none"
         id="path3051"
         inkscape:connector-curvature="0" />
    </g>
    <g
       id="g3053"
       transform="matrix(7.8820112,0,0,-7.8820112,548.83102,408.03785)">
      <path
         d="m 0,0 0,5.634 c 0,1.223 -0.78,1.63 -1.507,1.63 -0.726,0 -1.488,-0.425 -1.488,-1.63 l 0,-5.634 -2.304,0 0,12.615 2.304,0 0,-4.235 c 0.62,0.639 1.401,0.958 2.215,0.958 2.02,0 3.083,-1.418 3.083,-3.367 L 2.303,0 0,0 z"
         style="fill:#173a79;fill-opacity:1;fill-rule:nonzero;stroke:none"
         id="path3055"
         inkscape:connector-curvature="0" />
    </g>
    <g
       id="g3057"
       transform="matrix(7.8820112,0,0,-7.8820112,620.46752,357.05858)">
      <path
         d="M 0,0 C -0.249,0.549 -0.763,0.957 -1.541,0.957 -2.321,0.957 -2.835,0.549 -3.083,0 -3.225,-0.337 -3.278,-0.585 -3.296,-0.993 l 3.509,0 C 0.195,-0.585 0.142,-0.337 0,0 m -3.296,-2.57 c 0,-1.187 0.727,-2.055 2.021,-2.055 1.01,0 1.505,0.283 2.09,0.868 l 1.4,-1.365 C 1.276,-6.06 0.372,-6.574 -1.293,-6.574 c -2.18,0 -4.271,0.992 -4.271,4.73 0,3.013 1.63,4.714 4.023,4.714 2.569,0 4.022,-1.878 4.022,-4.412 l 0,-1.028 -5.777,0 z"
         style="fill:#173a79;fill-opacity:1;fill-rule:nonzero;stroke:none"
         id="path3059"
         inkscape:connector-curvature="0" />
    </g>
    <g
       id="g3061"
       transform="matrix(7.8820112,0,0,-7.8820112,690.01832,355.10305)">
      <path
         d="m 0,0 c -0.355,0.354 -0.656,0.548 -1.223,0.548 -0.708,0 -1.488,-0.531 -1.488,-1.7 l 0,-5.564 -2.304,0 0,9.232 2.251,0 0,-0.886 c 0.443,0.531 1.328,0.992 2.321,0.992 0.903,0 1.542,-0.231 2.179,-0.868 L 0,0 z"
         style="fill:#173a79;fill-opacity:1;fill-rule:nonzero;stroke:none"
         id="path3063"
         inkscape:connector-curvature="0" />
    </g>
    <g
       id="g3065"
       transform="matrix(7.8820112,0,0,-7.8820112,23.086648,521.59477)">
      <path
         d="m 0,0 -4.997,7.743 0,-7.743 -2.463,0 0,12.616 2.198,0 4.996,-7.726 0,7.726 2.463,0 L 2.197,0 0,0 z"
         style="fill:#173a79;fill-opacity:1;fill-rule:nonzero;stroke:none"
         id="path3067"
         inkscape:connector-curvature="0" />
    </g>
    <g
       id="g3069"
       transform="matrix(7.8820112,0,0,-7.8820112,95.429318,470.61472)">
      <path
         d="M 0,0 C -0.249,0.549 -0.763,0.957 -1.542,0.957 -2.321,0.957 -2.835,0.549 -3.083,0 -3.225,-0.337 -3.278,-0.585 -3.296,-0.993 l 3.509,0 C 0.195,-0.585 0.142,-0.337 0,0 m -3.296,-2.57 c 0,-1.187 0.726,-2.055 2.02,-2.055 1.01,0 1.506,0.284 2.091,0.868 l 1.4,-1.364 C 1.276,-6.06 0.373,-6.574 -1.294,-6.574 c -2.179,0 -4.27,0.992 -4.27,4.73 0,3.013 1.63,4.714 4.022,4.714 2.57,0 4.023,-1.878 4.023,-4.412 l 0,-1.028 -5.777,0 z"
         style="fill:#173a79;fill-opacity:1;fill-rule:nonzero;stroke:none"
         id="path3071"
         inkscape:connector-curvature="0" />
    </g>
    <g
       id="g3073"
       transform="matrix(7.8820112,0,0,-7.8820112,149.61263,521.59477)">
      <path
         d="m 0,0 c -1.878,0 -2.675,1.328 -2.675,2.64 l 0,4.572 -0.975,0 0,1.754 0.975,0 0,2.728 2.303,0 0,-2.728 1.629,0 0,-1.754 -1.629,0 0,-4.43 c 0,-0.532 0.248,-0.833 0.797,-0.833 l 0.832,0 L 1.257,0 0,0 z"
         style="fill:#173a79;fill-opacity:1;fill-rule:nonzero;stroke:none"
         id="path3075"
         inkscape:connector-curvature="0" />
    </g>
    <g
       id="g3077"
       transform="matrix(7.8820112,0,0,-7.8820112,246.11442,521.59477)">
      <path
         d="M 0,0 -1.897,0 -3.827,5.795 -5.759,0 l -1.896,0 -2.835,9.231 2.445,0 1.489,-5.705 1.878,5.705 1.683,0 1.896,-5.705 1.489,5.705 2.427,0 L 0,0 z"
         style="fill:#173a79;fill-opacity:1;fill-rule:nonzero;stroke:none"
         id="path3079"
         inkscape:connector-curvature="0" />
    </g>
    <g
       id="g3081"
       transform="matrix(7.8820112,0,0,-7.8820112,309.65212,467.54547)">
      <path
         d="m 0,0 c -0.266,0.266 -0.621,0.407 -1.081,0.407 -0.46,0 -0.798,-0.141 -1.063,-0.407 -0.48,-0.478 -0.532,-1.275 -0.532,-2.233 0,-0.956 0.052,-1.772 0.532,-2.249 0.265,-0.267 0.603,-0.409 1.063,-0.409 0.46,0 0.815,0.142 1.081,0.409 0.477,0.477 0.531,1.293 0.531,2.249 C 0.531,-1.275 0.477,-0.478 0,0 m 1.79,-5.83 c -0.568,-0.602 -1.507,-1.133 -2.871,-1.133 -1.364,0 -2.286,0.531 -2.853,1.133 -0.833,0.869 -1.045,1.914 -1.045,3.597 0,1.665 0.212,2.711 1.045,3.58 0.567,0.602 1.489,1.134 2.853,1.134 1.364,0 2.303,-0.532 2.871,-1.134 0.831,-0.869 1.044,-1.915 1.044,-3.58 0,-1.683 -0.213,-2.728 -1.044,-3.597"
         style="fill:#173a79;fill-opacity:1;fill-rule:nonzero;stroke:none"
         id="path3083"
         inkscape:connector-curvature="0" />
    </g>
    <g
       id="g3085"
       transform="matrix(7.8820112,0,0,-7.8820112,380.87242,468.66392)">
      <path
         d="m 0,0 c -0.354,0.355 -0.656,0.549 -1.223,0.549 -0.707,0 -1.488,-0.532 -1.488,-1.7 l 0,-5.565 -2.304,0 0,9.232 2.251,0 0,-0.886 c 0.443,0.532 1.329,0.992 2.321,0.992 0.903,0 1.542,-0.23 2.179,-0.868 L 0,0 z"
         style="fill:#173a79;fill-opacity:1;fill-rule:nonzero;stroke:none"
         id="path3087"
         inkscape:connector-curvature="0" />
    </g>
    <g
       id="g3089"
       transform="matrix(7.8820112,0,0,-7.8820112,442.17872,521.59477)">
      <path
         d="m 0,0 -2.267,3.845 -0.976,-1.098 0,-2.747 -2.303,0 0,11.701 2.303,0 0,-6.243 3.066,3.773 2.781,0 L -0.691,5.511 2.853,0 0,0 z"
         style="fill:#173a79;fill-opacity:1;fill-rule:nonzero;stroke:none"
         id="path3091"
         inkscape:connector-curvature="0" />
    </g>
  </g>
</svg>
