<?xml version="1.0" encoding="utf-8"?>
<!-- Generator: Adobe Illustrator 21.0.0, SVG Export Plug-In . SVG Version: 6.00 Build 0)  -->
<svg version="1.1" id="Layer_1" xmlns="http://www.w3.org/2000/svg" xmlns:xlink="http://www.w3.org/1999/xlink" x="0px" y="0px"
	 viewBox="0 0 200 200" style="enable-background:new 0 0 200 200;" xml:space="preserve">
<style type="text/css">
	.st0{fill:#6499D1;}
	.st1{fill:#004482;}
	.st2{fill:#00589B;}
	.st3{fill:#EEEEEE;}
</style>
<g id="PRixBQ.tif">
	<g>
		<path class="st0" d="M98.2,7.8c1.2,0,2.4,0,3.6,0c0.2,0.1,0.3,0.1,0.5,0.2c1.9,0.2,3.7,0.9,5.4,1.8c16.6,9.6,33.1,19.1,49.7,28.7
			c5.8,3.3,11.6,6.7,17.4,10c2.2,1.3,3.9,3,5,5.3c0,0.4-0.5,0.5-0.7,0.7c-10.3,5.9-20.5,11.8-30.8,17.8c-0.3,0.1-0.5,0.4-0.8,0.3
			c-0.4-0.2-0.4-0.5-0.6-0.8c-12.2-20.1-36.4-30.3-59.3-24.9c-26.1,6.2-43.8,30.2-42,57c0.5,8.1,2.8,15.6,6.7,22.7
			c0.1,0.3,0.4,0.5,0.3,0.8c-0.1,0.3-0.5,0.4-0.8,0.6c-2.9,1.7-5.8,3.4-8.7,5c-7.6,4.4-15.3,8.8-22.9,13.2c-0.2-0.3-0.4-0.7-0.6-1
			c-0.8-1.4-1.1-3-1.6-4.6c0-27,0-54.1,0-81.1c0.2-0.2,0.1-0.4,0.2-0.6c0.9-4.3,3.1-7.8,6.8-10.2c3.1-2,6.3-3.7,9.5-5.5
			c6.9-3.9,13.7-7.9,20.6-11.8c12.5-7.2,25.1-14.5,37.6-21.7c1.3-0.7,2.6-1.2,4.1-1.5C97.2,8,97.7,8.1,98.2,7.8z"/>
		<path class="st1" d="M20.1,146.1c7.6-4.4,15.3-8.8,22.9-13.2c2.9-1.7,5.8-3.4,8.7-5c0.3-0.2,0.6-0.2,0.8-0.6
			c0.3,0.1,0.4,0.4,0.5,0.6c12.9,21.1,36.8,31.1,60.6,25c14.7-3.8,25.9-12.4,33.7-25.5c0.1,0,0.2,0,0.3,0.1c4.3,2.5,8.6,5,12.9,7.4
			c4.1,2.3,8.1,4.7,12.2,7c2.4,1.4,4.8,2.8,7.2,4.2c-1.2,2.3-3,4.2-5.3,5.5c-22.4,12.9-44.8,25.8-67.1,38.7
			c-1.3,0.8-2.7,1.3-4.1,1.6c-0.4,0.1-0.9,0-1.3,0.3c-1.4,0-2.7,0-4.1,0c-0.1-0.2-0.3-0.2-0.5-0.2c-1.6-0.3-3.1-0.7-4.5-1.5
			c-22.6-13-45.2-26-67.7-39.1C22.9,150.2,21.3,148.3,20.1,146.1z"/>
		<path class="st2" d="M179.9,146.1c-2.4-1.4-4.8-2.8-7.2-4.2c-4.1-2.4-8.1-4.7-12.2-7c-4.3-2.5-8.6-5-12.9-7.4
			c-0.1,0-0.2,0-0.3-0.1c-0.1-0.1-0.1-0.1-0.2-0.2c-7.6-4.4-15.3-8.8-22.9-13.2c-0.2-0.1-0.4-0.3-0.7-0.2c-0.2-0.3-0.5-0.5-0.8-0.7
			c-1.1-0.6-2.2-1.2-3.3-1.9c-4.5-2.6-8.9-5.1-13.4-7.7c-2-1.2-4.1-2.2-6-3.5c0.2-0.2,0.4-0.3,0.7-0.5c4.8-2.8,9.6-5.5,14.4-8.3
			c2.8-1.6,5.7-3.2,8.4-4.9c0.2-0.1,0.4-0.2,0.6-0.3c7.5-4.3,15.1-8.7,22.6-13c0.2-0.1,0.5-0.2,0.6-0.5c0.3,0.1,0.6-0.1,0.8-0.3
			c10.3-5.9,20.5-11.8,30.8-17.8c0.3-0.2,0.7-0.2,0.7-0.7c0.4,0.4,0.7,1,0.9,1.5c0.7,1.3,0.9,2.8,1.4,4.2c0,27.1,0,54.2,0,81.3
			c-0.2,0.1-0.2,0.4-0.2,0.5C181.4,143,180.9,144.6,179.9,146.1z M165.3,93.8c0,0.7,0,1.5,0,2.2c0,0.7-0.1,0.9-0.9,0.9
			c-1.5-0.1-3,0-4.5,0c-0.6,0-0.8,0.2-0.8,0.8c0,1.5,0,3,0,4.6c0,0.6,0.1,0.8,0.7,0.8c1.5,0,3,0,4.6,0c0.7,0,0.8,0.2,0.8,0.9
			c0,1.5,0,3,0,4.6c0,0.5,0.1,0.7,0.7,0.7c1.5,0,3.1,0,4.6,0c0.7,0,0.8-0.2,0.8-0.8c0-1.5,0-3.1,0-4.6c0-0.5,0.1-0.7,0.7-0.7
			c1.6,0,3.2,0,4.7,0c0.6,0,0.7-0.2,0.7-0.8c0-1.5,0-3.1,0-4.6c0-0.5-0.1-0.7-0.7-0.7c-1.6,0-3.2,0-4.7,0c-0.6,0-0.7-0.2-0.7-0.7
			c0-1.6,0-3.2,0-4.7c0-0.5-0.1-0.7-0.6-0.7c-1.6,0-3.2,0-4.8,0c-0.5,0-0.7,0.2-0.6,0.7C165.3,92.3,165.3,93.1,165.3,93.8z
			 M142.5,106c0,0.8,0,1.7,0,2.5c0,0.5,0.2,0.6,0.6,0.6c1.6,0,3.2,0,4.8,0c0.6,0,0.7-0.2,0.7-0.7c0-1.6,0-3.2,0-4.7
			c0-0.5,0.1-0.7,0.6-0.6c1.6,0,3.2,0,4.8,0c0.5,0,0.6-0.2,0.6-0.7c0-1.6,0-3.2,0-4.7c0-0.6-0.2-0.7-0.8-0.7c-1.5,0-3.1,0-4.6,0
			c-0.5,0-0.7-0.1-0.7-0.7c0-1.6,0-3.2,0-4.7c0-0.6-0.2-0.7-0.7-0.7c-1.6,0-3.2,0-4.7,0c-0.6,0-0.7,0.2-0.7,0.7c0,1.6,0,3.2,0,4.7
			c0,0.5-0.1,0.7-0.6,0.7c-1.6,0-3.2,0-4.8,0c-0.5,0-0.6,0.2-0.6,0.7c0,1.6,0,3.2,0,4.7c0,0.6,0.2,0.7,0.8,0.7c1.6,0,3.2,0,4.7,0
			c0.5,0,0.6,0.1,0.6,0.6C142.5,104.4,142.5,105.2,142.5,106z"/>
		<path class="st3" d="M147.4,72.5c-0.1,0.3-0.3,0.4-0.6,0.5c-7.5,4.4-15.1,8.7-22.6,13c-0.2,0.1-0.4,0.2-0.6,0.3
			c-0.1-0.2-0.2-0.4-0.3-0.6c-5.8-9.8-17.9-15-29.1-12.5C79.9,76.5,70.7,90,73,104.5c0.5,3.2,1.5,6.3,3.3,9.1
			c0.1,0.2,0.2,0.5,0.4,0.7c6.1,10,18.1,15,29.5,12.3c7.5-1.8,13.4-6.1,17.4-12.8c0.3-0.1,0.5,0.1,0.7,0.2
			c7.6,4.4,15.3,8.8,22.9,13.2c0.1,0,0.1,0.1,0.2,0.2c-7.8,13.1-19,21.7-33.7,25.5c-23.9,6.1-47.8-3.9-60.6-25
			c-0.1-0.2-0.2-0.5-0.5-0.6c0-0.3-0.2-0.6-0.3-0.8c-3.9-7.1-6.2-14.6-6.7-22.7c-1.8-26.8,15.9-50.8,42-57
			c22.9-5.4,47.1,4.7,59.3,24.9C146.9,71.9,147,72.3,147.4,72.5z"/>
		<path class="st0" d="M76.4,113.6c-1.8-2.8-2.8-5.8-3.3-9.1c-2.3-14.5,6.8-28,21.2-31.2c11.1-2.5,23.2,2.7,29.1,12.5
			c0.1,0.2,0.2,0.4,0.3,0.6c-2.7,1.8-5.6,3.3-8.4,4.9c-4.8,2.8-9.6,5.5-14.4,8.3c-0.2,0.1-0.4,0.3-0.7,0.5c-0.2,0.1-0.4,0.2-0.6,0.3
			c-3.6,2.1-7.2,4.2-10.8,6.2C84.7,108.8,80.5,111.2,76.4,113.6z"/>
		<path class="st1" d="M76.4,113.6c4.1-2.4,8.3-4.7,12.4-7.1c3.6-2.1,7.2-4.2,10.8-6.2c0.2-0.1,0.4-0.2,0.6-0.3c1.9,1.3,4,2.4,6,3.5
			c4.4,2.6,8.9,5.1,13.4,7.7c1.1,0.6,2.2,1.2,3.3,1.9c0.3,0.2,0.6,0.3,0.8,0.7c-4,6.7-9.8,11-17.4,12.8
			c-11.4,2.8-23.4-2.3-29.5-12.3C76.6,114.1,76.5,113.8,76.4,113.6z"/>
		<path class="st3" d="M165.3,93.8c0-0.8,0-1.5,0-2.3c0-0.5,0.1-0.7,0.6-0.7c1.6,0,3.2,0,4.8,0c0.5,0,0.6,0.2,0.6,0.7
			c0,1.6,0,3.2,0,4.7c0,0.5,0.1,0.7,0.7,0.7c1.6,0,3.2,0,4.7,0c0.6,0,0.7,0.2,0.7,0.7c0,1.5,0,3.1,0,4.6c0,0.6-0.1,0.8-0.7,0.8
			c-1.6,0-3.2,0-4.7,0c-0.5,0-0.7,0.1-0.7,0.7c0,1.5,0,3.1,0,4.6c0,0.6-0.1,0.8-0.8,0.8c-1.5,0-3.1,0-4.6,0c-0.6,0-0.7-0.2-0.7-0.7
			c0-1.5,0-3,0-4.6c0-0.6-0.1-0.9-0.8-0.9c-1.5,0.1-3,0-4.6,0c-0.6,0-0.7-0.2-0.7-0.8c0-1.5,0-3,0-4.6c0-0.6,0.1-0.8,0.8-0.8
			c1.5,0,3,0,4.5,0c0.7,0,0.9-0.2,0.9-0.9C165.3,95.3,165.3,94.6,165.3,93.8z"/>
		<path class="st3" d="M142.5,106c0-0.8,0-1.6,0-2.4c0-0.5-0.1-0.6-0.6-0.6c-1.6,0-3.2,0-4.7,0c-0.5,0-0.8-0.1-0.8-0.7
			c0-1.6,0-3.2,0-4.7c0-0.5,0.1-0.7,0.6-0.7c1.6,0,3.2,0,4.8,0c0.5,0,0.6-0.2,0.6-0.7c0-1.6,0-3.2,0-4.7c0-0.5,0.1-0.7,0.7-0.7
			c1.6,0,3.2,0,4.7,0c0.5,0,0.7,0.1,0.7,0.7c0,1.6,0,3.2,0,4.7c0,0.6,0.2,0.7,0.7,0.7c1.5,0,3.1,0,4.6,0c0.5,0,0.8,0.1,0.8,0.7
			c0,1.6,0,3.2,0,4.7c0,0.5-0.1,0.7-0.6,0.7c-1.6,0-3.2,0-4.8,0c-0.5,0-0.7,0.1-0.6,0.6c0,1.6,0,3.2,0,4.7c0,0.5-0.1,0.7-0.7,0.7
			c-1.6,0-3.2,0-4.8,0c-0.5,0-0.6-0.1-0.6-0.6C142.6,107.7,142.5,106.9,142.5,106z"/>
	</g>
</g>
</svg>
