<?xml version="1.0" encoding="utf-8"?>
<!-- Generator: Adobe Illustrator 21.0.0, SVG Export Plug-In . SVG Version: 6.00 Build 0)  -->
<svg version="1.1" id="Layer_1" xmlns="http://www.w3.org/2000/svg" xmlns:xlink="http://www.w3.org/1999/xlink" x="0px" y="0px"
	 viewBox="0 0 200 200" style="enable-background:new 0 0 200 200;" xml:space="preserve">
<style type="text/css">
	.st0{fill:#ACB8C7;}
	.st1{fill:#EEEEEE;}
	.st2{fill:#808A96;}
</style>
<polyline class="st0" points="118.5,49.2 129.8,75.5 162.8,74.1 167.3,45.5 142.9,31.4 "/>
<ellipse class="st1" cx="103.8" cy="102" rx="51.8" ry="55"/>
<g id="ZD7A3s.tif">
	<g>
		<path class="st0" d="M105.1,188.7c-3.4,0-6.8,0-10.2,0c-14.7-8.5-29.4-16.9-44.1-25.4c-3.4-2-7.2-3.5-10.1-6.3
			c8-8.9,16.6-17.2,25.3-25.5c2.2,1.9,4.2,4,6.6,5.7c10,7.3,21.4,9.5,33.6,8.7c19.2-1.3,31.5-12.5,34.2-30.9
			c0.5-3.3,0.2-3.6-3.1-3.8c-6.2-0.3-12.4-0.6-18.6-1c-1.4-0.1-2,0.3-2.1,1.7c-0.4,3-1.4,5.8-3.5,8.1c-4.5,4.7-10.3,5.3-16.1,4
			c-6.4-1.4-9.8-6.1-11.6-12.2c5.3-5.2,10.5-10.4,15.8-15.6c4.6-4.5,8.8-9.3,13.7-13.4c0.8,0.8,1.1,1.9,1.3,3c0.3,1.4,1,2,2.5,2
			c6.8,0.1,13.6,0.2,20.3,0.4c2,0.1,2.8-0.5,2.5-2.8c-1.2-7.8-4.8-14.5-9.9-20.4c1.5-0.1,2.2-1.3,3.1-2.2c7.6-7.5,15.3-15,22.9-22.5
			c4.4,1.5,8,4.5,12.1,6.5c5.3,2.6,9.2,6.3,10.7,12.2c0,26.9,0,53.7,0,80.6c-1.3,5.4-4.8,9-9.6,11.6c-8.8,4.8-17.4,9.9-26.1,14.9
			C131.5,173.5,118.3,181.1,105.1,188.7z"/>
		<path class="st2" d="M40.7,157c-5.8-2.5-11.3-5.6-16.3-9.5c-3.4-2.7-4.7-6.7-4.7-10.9c0-24.9,0-49.9,0-74.8
			c0-5.9,2.5-10.4,7.7-13.4c21.4-12.3,42.8-24.7,64.3-37c5.3-3,10.7-3.2,16-0.2c16.2,9.3,32.5,18.6,48.7,28c0.4,0.2,0.7,0.7,1.1,1
			c-7.6,7.5-15.2,15-22.9,22.5c-0.9,0.9-1.6,2.1-3.1,2.2c-6.8-7.2-15.2-11.3-25-12.5c-20-2.3-44.5,7.9-49.6,34.9
			c-3,15.9-1.1,30.9,9.1,44.2C57.4,139.8,48.7,148.1,40.7,157z"/>
		<path class="st2" d="M85.2,111.9c-3.6-9.7-3.2-19.3,1.3-28.6c4.6-9.3,16.4-12,24.3-5.9c1.8,1.4,3.5,3,4.1,5.4
			c-4.9,4.1-9.2,9-13.7,13.4C95.7,101.4,90.5,106.7,85.2,111.9z"/>
	</g>
</g>
<path class="st0" d="M94.9,188.7c0,0,4.5,3.3,10.2,0"/>
</svg>
