<?xml version="1.0" encoding="utf-8"?>
<!-- Generator: Adobe Illustrator 21.0.0, SVG Export Plug-In . SVG Version: 6.00 Build 0)  -->
<svg version="1.1" id="Layer_1" xmlns="http://www.w3.org/2000/svg" xmlns:xlink="http://www.w3.org/1999/xlink" x="0px" y="0px"
	 viewBox="0 0 107.6 114" style="enable-background:new 0 0 107.6 114;" xml:space="preserve">
<style type="text/css">
	.st0{fill:#FFFFFF;}
</style>
<g id="HOsbAF.tif">
	<g>
		<path d="M7.1,36.6c0.2-0.6,0.2-1.3,0.5-1.9c0.8-1.9,2.4-3.1,4.3-3.8c1-0.4,2-0.7,3-1.1c0.2-0.1,0.3-0.2,0.4-0.3
			c-0.7,0.1-1.4,0.2-2,0.5c-0.4,0.2-0.7,0.4-1.1,0.5c-0.9,0.2-1.5-0.4-1.3-1.3c0.2-0.9,1-1.6,2-1.8c0.5-0.1,1-0.2,1.5-0.4
			c1.4-0.6,2-1.9,1.5-3.3c-0.1-0.2-0.2-0.4-0.4-0.6c-0.3-0.3-0.4-0.6-0.1-0.9c0.3-0.4,0.7-0.7,1.1-1c0.5-0.5,1.1-0.8,1.7-1.3
			c0.9-0.8,0.9-1.6-0.2-2.3c-0.5-0.4-0.9-0.8-1.2-1.3c-0.8-1.4-0.3-2.6,1.3-3c0.7-0.2,1.4-0.2,2.1,0c1.3,0.4,1.8,1.5,1.4,2.9
			c-0.1,0.4-0.3,0.9-0.3,1.3c0,0.7,0.3,1.2,1,1.3c0.9,0.1,1.9,0,2.8,0.1c0.5,0,1,0,1.5,0.1c0.5,0.1,0.7,0.4,0.7,0.9
			c0,0.3-0.1,0.7-0.2,1c-0.1,0.2,0,0.4,0.1,0.6c0.7,0.7,1.6,0.9,2.5,1.1c0.9,0.2,1.8,0.3,2.7,0.5c1.3,0.3,1.7,0.8,1.9,2.1
			c0,0,0.1,0,0.1,0c1,0.1,1.9,0.5,2.7,1c0.6,0.4,1.1,0.8,1.8,1.1c0.6,0.3,1.2,0.4,1.8,0.6c0.1,0,0.2,0,0.2,0
			c1.9,0.7,3.7,1.4,5.6,2.2c1.2,0.5,2.3,1.3,2.9,2.4c0.4,0.7,0.5,0.9-0.4,1.1c-0.6,0.1-1.3,0.1-1.9-0.1c-1.2-0.3-2.3-0.7-3.5-1.1
			c-0.3-0.1-0.6-0.2-0.9-0.2c-1.4-0.2-2.2,0.4-2.3,1.7c-0.1,0.8,0,1.6,0,2.3c0.1,2.3,0.3,4.6,0.5,7c0.3,4.5,0.7,9,1.8,13.5
			c0.7,2.9,1.6,5.7,2.9,8.3c0.9,1.8,2,3.4,3.3,5c1.8,2.2,3.7,4.5,5.6,6.6c2.1,2.3,4.7,4,7.3,5.6c4.8,2.9,10.1,4.6,15.5,5.6
			c0.1,0,0.3-0.1,0.5-0.2c1-1,2-2,3.1-3c0.6-0.6,1.3-1.1,2.1-1.3c0.7-0.2,1.4-0.2,2,0.2C85,83.8,85,84,85,84.1
			c0,0.6-0.4,1.1-0.7,1.6c-0.4,0.5-0.9,1.1-1.3,1.6c-0.2,0.2-0.5,0.6-0.3,0.9c0.2,0.2,0.6,0.3,0.9,0.3c0.6,0,1.2,0,1.8-0.1
			c0.9-0.1,1.8,0.1,2.7,0.4c0.5,0.1,0.9,0.3,1.4,0.4c1,0.2,1.9-0.1,2.6-0.8c0.1-0.1,0.2-0.2,0.3-0.4c0.8,0.8,1.7,1,2.7,1
			c1.1,0,2.1-0.1,3.2-0.1c0.4,0,0.8,0,1.2,0.1c0.7,0.2,1.1,0.6,1.1,1.4c0,0.5-0.1,0.9-0.2,1.4c0,0.1-0.2,0.2-0.3,0.3
			c-0.9,0.5-1.9,0.7-2.9,0.8c-1.1,0.2-2.3,0.3-3.4,0.8c-0.1,0-0.2,0.1-0.2,0.1c-0.3,0.2-0.6,0.5-0.9,0.6c-0.3,0-0.7-0.2-1-0.3
			c-1-0.3-2-0.2-3,0.1c-1.1,0.3-2.3,0.7-3.4,1.1c-0.9,0.3-1.8,0.4-2.7,0.4c-0.9,0-1.7,0.2-2.6,0.3c-2.2,0.2-4.5,0.5-6.7,0.6
			c-0.9,0.1-1.9,0.1-2.8,0.1c-0.1,0-0.2,0-0.3,0c-0.6,0-1.3,0-1.9,0c-0.4,0-0.9-0.1-1.3-0.1c-3.5-0.3-7-0.6-10.5-1
			c-4-0.4-7.8-1.4-11.5-2.8c-4-1.5-7.7-3.6-11.1-6.2c-1.8-1.4-3.5-2.8-5.2-4.3c-1.4-1.2-2.5-2.8-3.7-4.3c-3.5-4.3-6.4-9-8.8-14
			c-2-4.2-3.8-8.6-4.8-13.1c-0.6-2.5-1.2-5-1.9-7.5c-0.4-1.5-0.9-2.9-1.6-4.2c-0.3-0.6-0.4-1.2-0.5-1.8C7.1,37,7.1,36.8,7.1,36.6z
			 M14.7,54.7c0.3,0.4,0.4,0.9,1,1c0-0.1,0-0.2,0-0.3c0-0.1,0-0.3-0.1-0.4c-0.4-1.4-1-2.7-1.7-4c-0.1-0.1-0.2-0.2-0.3-0.3
			c0,0-0.1,0-0.1,0.1c0.1,1.3,0.8,2.4,1.1,3.6c-0.1-0.1-0.2-0.3-0.3-0.4c-0.4-0.6-0.7-1.3-1.1-1.9c-0.1-0.2-0.3-0.4-0.5-0.5
			c0,0-0.1,0-0.1,0.1c0,0.1,0,0.2,0,0.3c0.2,0.6,0.4,1.2,0.6,1.7c0.4,1,0.9,1.9,1.4,2.9c0.5,1,0.9,2,1.4,3c0.4,0.8,1,1.6,1.9,2.2
			c-0.1-0.2-0.1-0.2-0.1-0.3c-0.6-0.9-1.1-2-1.4-3c-0.3-1.1-0.8-2.2-1.5-3.1C14.8,55.1,14.8,54.9,14.7,54.7z M35.5,68.3
			c0.6,0.5,1.1,1,1.7,1.5c0.6,0.5,1.2,0.9,1.9,0.9c0.4,0,0.8,0.2,1.1,0.5c0.6,0.4,1,1,1.3,1.6c0.1,0.3,0.2,0.7,0.3,1
			c0.1,0.5-0.3,0.9-0.8,0.8c-0.6-0.1-1.2-0.2-1.7-0.5c-0.9-0.6-1.9-1.1-2.9-1.4c-0.2-0.1-0.4-0.1-0.7-0.1c0,0,0,0.1,0,0.1
			c0.1,0.1,0.2,0.2,0.3,0.3c0.5,0.3,1,0.7,1.6,1c2.3,1.1,4.6,2.1,6.9,3.2c1,0.5,1.9,1,2.8,1.6c1.7,1.1,2.8,2.8,4.3,4.2
			c-0.9,0.4-1.9,0.3-2.8,0.1c-0.4-0.1-0.7-0.2-1-0.4c-0.1-0.1-0.3-0.3-0.3-0.5c0-0.1,0.2-0.3,0.4-0.4c0.2-0.1,0.3-0.1,0.5-0.2
			c0,0,0-0.1,0-0.1c-0.8-0.1-1.6-0.3-2.4-0.4c-0.3,0-0.5,0.2-0.3,0.5c0.3,0.6,0.5,1.1,1.1,1.4c1.1,0.6,2.3,0.7,3.5,0.8
			c0.8,0.1,1.5,0.1,2.4,0.2c-0.3,0.5-0.6,0.9-1,1.4c0.2,0,0.3,0.1,0.4,0.1c0.1,0,0.3,0,0.5,0c-0.1,0.1-0.2,0.1-0.3,0.2
			c-0.5,0.4-0.5,0.6,0,0.9c0.3,0.2,0.6,0.4,1,0.5c0.1,0,0.2,0,0.3,0c0.9-0.4,1.4-0.2,2,0.6c0.2,0.3,0.4,0.6,0.6,0.8
			c0.4,0.5,0.7,0.6,1.2,0.2c0.3-0.2,0.6-0.6,0.9-0.8c0.3-0.3,0.7-0.5,1-0.8c0,0,0,0.1,0.1,0.1c-0.4,0.5-0.8,1-1.1,1.4
			c0,0,0.1,0.1,0.1,0.1c0.4-0.2,0.8-0.4,1.1-0.6c1.1-0.8,2.4-0.8,3.7-0.5c1.6,0.3,3,1.1,4.5,1.7c0.4,0.2,0.8,0.4,1.3,0.5
			c0.9,0.1,1.8,0.4,2.6,0.6c0.7,0.2,1.3,0.4,2,0.2c0.4-0.1,0.8-0.3,1.2-0.4c0.1-0.1,0.2-0.2,0.3-0.3c-0.1-0.1-0.2-0.3-0.3-0.3
			c-0.5-0.2-1.1-0.3-1.6-0.5c-1-0.3-2-0.5-2.9-0.9c-0.6-0.2-0.7-0.5-0.3-1c0,0,0,0,0,0c-0.1,0-0.1,0-0.2,0c-0.9,0.2-1.8,0.2-2.7-0.1
			c-1.5-0.5-2.7-1.4-3.6-2.6C63,84.3,62.6,84,62,83.8c-2.6-0.7-5-1.7-7-3.5c-0.8-0.7-1.5-1.5-2-2.4c-0.1-0.1-0.1-0.4,0-0.4
			c0.3-0.2,0.2-0.3,0-0.5c-0.3-0.3-0.5-0.7-0.8-1c-0.5-0.5-1-1-1.4-1.5c-1-1.5-2-3.1-3-4.6c-0.1-0.1-0.1-0.3-0.2-0.3
			c-0.7-0.4-1.1-1.1-1.6-1.7c-0.1-0.1-0.2-0.1-0.3-0.3c-0.1,0.5-0.1,0.9-0.2,1.2c-0.2-0.5-0.4-1-0.7-1.4c-0.5-0.7-1-1.3-2-1.3
			c0-0.6,0.3-1.1,0.8-1.4c0.5-0.3,0.5-0.4,0.1-0.9c-0.2-0.2-0.3-0.5-0.4-0.8c-0.1-0.2-0.1-0.4-0.1-0.6c-0.4-1.6-0.9-3.2-1.3-4.8
			c-0.3-1.1-0.5-2.2-0.7-3.4c0-0.2-0.2-0.4-0.2-0.4c-0.1,0-0.4,0.1-0.5,0.2c-0.4,0.4-0.7,0.9-0.9,1.5c0,0.1-0.1,0.1-0.1,0.2
			c0,0-0.1,0-0.1,0c0.1-0.7,0.2-1.4,0.4-2c0-0.2,0.2-0.4,0.4-0.5c0.2,0.1,0.3,0.2,0.5,0.4c0.1-0.3,0.3-0.6,0.4-0.9
			c0.2-0.7-0.1-1-0.8-0.9c0,0,0,0-0.1,0c0-0.1,0.1-0.3,0.1-0.4c0.3-0.9,0.4-1.8,0.2-2.7c-0.1-0.4-0.2-0.5-0.5-0.4
			c0.1-1.3,0.2-2.7,0.2-4c0-0.6-0.1-1.2-0.2-1.8c-0.1-0.4-0.3-0.6-0.6-0.5c0.2-1.2,0.4-2.4,0.5-3.7c0.1-1,0.1-2-0.4-3
			c-0.3-0.6-0.8-0.8-1.4-0.6c-0.2,0.1-0.4,0.2-0.6,0.3c-0.2,0.1-0.5,0.2-0.7,0.3c-1.2,0.2-2.4,0.4-3.6,0.7c-0.4,0.1-0.9,0.3-1.3,0.4
			c0.5,0.4,1.2,0.6,1.6,1.2c-1.3-0.1-2.4-0.5-3.5-0.7c0,0.1,0,0.1-0.1,0.1c-0.2,0.9-0.5,1.2-1.5,1.1c-0.6,0-1.2-0.1-1.8-0.1
			c0.1,0.1,0.1,0.1,0.2,0.1c0.6,0.2,0.7,0.7,0.2,1.1c-0.4,0.3-0.9,0.6-1.4,0.8c-0.7,0.3-1.5,0.4-2.2,0.2c-0.3-0.1-0.5,0-0.7,0.2
			c-0.3,0.3-0.3,0.6-0.2,1c0.1,0.2,0.2,0.5,0.3,0.7c0.3,0.5,0.6,1,0.8,1.5c0.2,0.5,0.1,0.7-0.3,1.1c0,0-0.1,0.1-0.1,0.1
			c0,0.4-0.4,0.4-0.7,0.5c-0.5,0.1-1,0.1-1.4,0.2c-0.7,0.1-1,0.5-1.1,1.2c0,0.2,0,0.4-0.1,0.6c-0.1,0-0.2,0-0.2,0
			c-0.5-0.1-0.8,0.1-0.7,0.6c0,0.6,0.3,1.2,0.8,1.6c0.2,0.1,0.6,0.2,0.7,0.1c0.3-0.3,0.6-0.1,0.9,0c1.6,0.6,2.3,1.5,2.3,3.2
			c0,0.6,0,1.3-0.1,1.9c0,0.2-0.1,0.4-0.2,0.5c-0.2,0-0.4,0-0.5-0.1c-0.3-0.4-0.6-0.9-0.8-1.4c-0.3-0.9,0-1.4,1-1.6
			c-0.4-0.5-0.8-1-1.2-1.4c-0.3-0.3-0.7-0.3-0.9-0.1c-0.6,0.6-1.2,1.3-1.8,1.9c0.3,0.2,0.7,0.4,0.9,0.7c0.4,0.3,0.8,0.7,1.2,1.1
			c0.3,0.4,0.2,0.8-0.2,1.1c-0.1,0.1-0.3,0.2-0.5,0.3c1.5,0.2,2.2,1.2,2.6,2.5c0.1,0.4,0.3,0.9,0.4,1.3c0.2,0.6,0.9,0.8,1.3,0.3
			c0.1-0.1,0.2-0.2,0.3-0.4c0.2-0.2,0.5-0.3,0.8-0.1c0.1,0,0.2,0.1,0.3,0.1c-0.1-0.2-0.2-0.3-0.4-0.4c-0.7-0.6-1.4-1.2-2-1.9
			c-0.3-0.2-0.5-0.5-0.7-0.8c-0.1-0.1-0.1-0.3-0.1-0.4c0-0.1,0.2-0.1,0.3-0.1c0.4,0,0.7,0.1,1.1,0.1c0-0.3,0-0.5,0-0.8
			c0-0.4-0.1-0.9-0.1-1.3c0-0.3,0.1-0.6,0.3-0.8c0.2-0.2,0.5-0.3,0.8-0.4c0,0.1,0,0.1,0,0.2c0,0.5-0.1,0.9-0.2,1.4
			c0,0.5-0.1,1,0,1.5c0,0.4,0.3,0.6,0.7,0.3c0.4-0.3,0.8-0.7,1.2-1.1c0.5-0.6,0.8-0.6,1.2,0c0.3,0.4,0.7,0.9,1,1.3
			c0.2,0.3,0.3,0.6,0.4,0.9c0.1,0.4-0.1,0.8-0.6,0.8c-0.4,0-0.8,0-1.1-0.1c-0.4-0.1-0.8-0.4-1.2-0.6c0.2,0.5,0.6,0.9,0.9,1.2
			c0.5,0.4,1,0.8,1.5,1.3c0.6,0.5,0.9,1.2,0.7,2c-0.1,0.7,0.2,1.2,0.5,1.6c0.2,0.3,0.5,0.4,0.9,0.3c0.3-0.1,0.5-0.1,0.8-0.2
			c0.1,0.3,0.2,0.5,0.3,0.8c0.1,0.1,0.2,0.2,0.3,0.3c0.1-0.1,0.2-0.2,0.3-0.3c0.1-0.4,0.1-0.8,0.2-1.2c1.1,0.2,2,0.7,2.4,1.9
			c0.1,0.4,0.2,0.7,0.4,1.1c0.1,0.2,0.2,0.6,0.6,0.4c0.3-0.1,0.1-0.4,0-0.7c-0.3-0.7-0.6-1.4-0.9-2.1c-0.1-0.1-0.1-0.3-0.1-0.4
			c0.2,0,0.3,0.1,0.3,0.2c0.6,0.6,1.2,1.3,1.8,1.9c0.3,0.4,0.6,0.8,0.8,1.3c0.2,0.6,0,1.1-0.6,1.4c-0.2,0.1-0.4,0.2-0.6,0.2
			C36.4,68.3,35.9,68.3,35.5,68.3z M18.5,38.4c0.6-0.1,1.1-0.2,1.6-0.4c1.2-0.5,2.3-1,3.5-1.6c1.2-0.6,2.3-1.2,3.7-1.3
			c0.9-0.1,1.9-0.1,2.8-0.2c2-0.2,4-0.5,6-1.1c0.7-0.2,1.4-0.5,2.2-0.6c1.4-0.3,2.4-0.9,3.3-2c0.4-0.5,0.6-1.1,0.5-1.8
			c-0.1-0.6-0.3-0.8-0.9-0.8c-4.2-0.2-8.2,0.4-12.3,1.4c-3.9,1-7.7,2.4-11.6,3.1c-0.2,0-0.5,0.3-0.7,0.4c0.2,0.2,0.4,0.4,0.6,0.5
			c0.3,0.2,0.6,0.3,1,0.5c-0.2,0.1-0.4,0.2-0.5,0.2c-0.1,0.1-0.3,0.2-0.3,0.3c0,0.1,0.2,0.3,0.3,0.4c0.2,0.2,0.5,0.3,0.8,0.5
			c0.2,0.1,0.3,0.3,0.1,0.4c-0.3,0.2-0.7,0.4-1,0.3c-0.6-0.1-1.2-0.3-1.8-0.5c-1.1-0.5-1.3-1.1-1-2.2c0,0,0,0,0-0.1
			c-0.4,0.1-0.8,0.1-1.1,0.2c-1.1,0.2-2.2,0.5-3.2,1.2c-0.9,0.6-1.4,1.5-1.2,2.6c0.2,0.8,0.6,1.5,1.1,2.2c0,0.1,0.2,0.1,0.3,0.1
			c0-0.3-0.1-0.5-0.1-0.7c-0.1-1-0.1-2,0.3-2.9c0.4-1,1.6-1.4,2.8-0.8c-0.3,0.1-0.5,0.2-0.8,0.3c-0.5,0.3-0.7,0.7-0.4,1.3
			c0.4,0.9,1.9,1.8,2.9,1.8c0.4,0,0.6-0.2,0.7-0.6c0-0.3,0-0.5,0-0.8c0.3,0,0.6,0,0.9-0.1c0.6-0.1,1.1-0.2,1.7-0.2
			c0.4,0,0.5,0.1,0.4,0.5C18.7,38,18.6,38.1,18.5,38.4z M37.9,87.9c0,0.1-0.1,0.1-0.1,0.2c0.2,0.1,0.4,0.3,0.6,0.4
			c2.4,1.6,5,2.6,7.6,3.7c1.9,0.8,3.9,1.5,5.9,1.8c3.5,0.5,6.9,1,10.4,1.5c3.2,0.4,6.4,0.5,9.7,0.1c0.6-0.1,1.1-0.2,1.7-0.3
			c-0.8-0.4-1.6-0.6-2.4-0.5c-1,0-2,0.1-3.1,0.1c-1.2,0.1-2.4,0-3.6-0.5c-0.1-0.1-0.3-0.1-0.4,0c-1.5,0.3-3,0.3-4.6,0.1
			c-1.6-0.2-3.3-0.4-4.9-0.6c-0.7-0.1-1.3-0.2-1.9-0.4c-1.3-0.5-2.6-1-3.9-1.5c-2.8-1.1-5.6-2.2-8.2-3.7c-0.5-0.3-1.2-0.5-1.8-0.7
			c-0.1,0-0.2,0-0.3,0c0.1,0.2,0.2,0.3,0.4,0.4c1.6,1,3.2,1.9,4.9,2.6c0.3,0.1,0.7,0.4,1,0.5c-0.1,0.1-0.1,0.1-0.1,0.1
			c-0.1,0-0.2,0-0.3-0.1c-1.5-0.7-3-1.3-4.5-2C39.4,88.7,38.7,88.3,37.9,87.9z M30.5,79.7c-1,0.2-1.7-0.3-2.2-1.1
			c-0.3-0.5-0.6-1-0.9-1.5c-0.2-0.3-0.4-0.6-0.9-0.5c-0.1,0-0.1,0-0.2-0.1c-0.7-0.3-1.2-0.8-1.5-1.5c-0.2-0.6-0.4-1.1-0.6-1.7
			c-0.4-1.2-1-2.1-2.1-2.8c-0.1-0.1-0.2-0.2-0.3-0.3c-0.3-0.5-0.5-1.1-0.8-1.5c-0.5-0.7-1.1-1.4-1.7-2.1c-0.8-1-1.5-2.1-2-3.3
			c-0.4-1.2-1.1-2.4-1.9-3.4c-0.1-0.1-0.2-0.2-0.3-0.3c0,0.1,0,0.2,0,0.2c0.1,0.2,0.1,0.4,0.2,0.6c1,2.7,2.4,5.2,4,7.6
			c1.6,2.4,3.2,4.7,4.7,7.2c1.2,2.1,2.6,4,4.4,5.4c1.2,0.9,2.3,1.9,3.3,3c0.8,0.8,1.8,1.2,3,1.4c0.2,0,0.4-0.1,0.6-0.1
			c0-0.2,0-0.4-0.1-0.6c-0.6-0.9-1.5-1.6-2.5-1.9c-0.5-0.1-0.8-0.3-1.1-0.7c-0.4-0.4-0.8-0.8-1.2-1.2C30.1,80.3,30.1,80.2,30.5,79.7
			z M32.4,69.4C32.4,69.3,32.4,69.3,32.4,69.4c-0.3-0.3-0.6-0.4-0.8-0.6c-0.3-0.2-0.3-0.5,0.1-0.6c0.2-0.1,0.5-0.2,0.7-0.3
			c0.2-0.1,0.4-0.2,0.6-0.4c-0.2-0.1-0.2-0.1-0.3-0.1c-0.7-0.2-1.5-0.4-2.2-0.6c-0.4-0.1-0.8-0.2-1.1-0.2c-0.1,0-0.2,0-0.3,0.1
			c0,0.1,0,0.3,0.1,0.4c0.1,0.2,0.3,0.3,0.5,0.5c0,0,0,0,0,0c-0.4-0.1-0.8-0.3-1.3-0.4c0.1,0.4,0.2,0.6,0.2,0.9
			c-0.4,0-0.7-0.1-1.1-0.1c0.4,0.7,1.1,1,1.4,1.7c-0.3,0-0.6,0-0.9,0c0.8,0.7,1.6,1.4,2.5,2c0,0-0.1,0.1-0.1,0.1
			c-0.6-0.3-1.2-0.5-1.8-0.8c0,0-0.1,0.1-0.1,0.1c0.1,0.2,0.2,0.4,0.4,0.5c0.4,0.3,0.7,0.5,1.1,0.7c0.9,0.5,1.9,1,2.9,1.6
			c0.6,0.3,1.1,0.6,1.7,0.9c0.2,0.1,0.4,0.1,0.5,0.2c0,0,0-0.1,0.1-0.1c-0.4-0.4-0.8-0.7-1.2-1.1c0.3-0.6,0.2-0.8-0.2-1.2
			c-0.2-0.2-0.5-0.4-0.7-0.6c-0.3-0.2-0.4-0.5-0.1-0.8c-0.6-0.4-1.2-0.8-1.7-1.2c0,0,0-0.1,0.1-0.1C31.6,69.4,32,69.4,32.4,69.4z
			 M25.8,28.9c-0.1-0.3-0.2-0.7-0.2-1c0-0.4,0.3-0.6,0.6-0.3c0.3,0.3,0.5,0.6,0.8,0.9c0.2,0.3,0.4,0.6,0.7,0.9
			c0.6,0.6,1.3,0.4,1.6-0.4c0.2-0.6,0.2-1.1,0-1.7c0.5,0.4,0.9,1,1.5,1.2c0,0,0.1-0.1,0.1-0.1c-0.4-0.5-0.7-1-1.1-1.5
			c0.1-0.2,0.3-0.4,0.4-0.7c0.1-0.3,0-0.5-0.3-0.5c-0.3,0-0.6,0-0.8,0c-2.2,0.6-4.4,1.1-6.6,1.7c-1.7,0.4-3.3,0.9-5,1.4
			c-0.2,0.1-0.3,0.2-0.5,0.2c0,0,0,0.1,0,0.1c0.2,0,0.4,0,0.6-0.1c1.1-0.3,2.2-0.7,3.3-0.9C22.7,27.9,24.3,27.7,25.8,28.9z
			 M26.8,59.1c0.1,0.2,0.2,0.3,0.3,0.5c0.1,0.4,0.3,0.7,0.4,1.1c0.1,0.4-0.1,0.6-0.5,0.6c-0.1,0-0.3,0-0.4-0.1
			c-0.6-0.2-1.2-0.5-1.8-0.7c-0.4-0.1-0.8-0.3-1.1-0.3c-0.4-0.1-0.6,0.2-0.5,0.6c0.2,0.4,0.4,0.8,0.6,1.2c0.1,0.1,0.1,0.3,0.1,0.4
			c0,0-0.1,0-0.1,0.1c0.2,0.1,0.4,0.2,0.7,0.3c1.1,0.5,2.1,1,3.2,1.5c0.5,0.2,1,0.5,1.5,0.7c0.3,0.1,0.6,0.2,0.9,0.3
			c0.1,0,0.3,0,0.4,0c0.1-0.1,0-0.3,0-0.4c-0.4-0.7-0.7-1.4-1.4-1.8c-0.2-0.1-0.4-0.4-0.4-0.6c-0.2-0.4-0.3-0.8-0.4-1.2
			c-0.2-0.6-0.3-1.3-0.5-1.9C27.6,59,27.3,58.9,26.8,59.1z M35.9,78.7c0.5-0.1,0.9-0.1,1.4-0.2c0.2-0.1,0.4-0.3,0.6-0.4
			c-0.2-0.2-0.4-0.4-0.6-0.5c-1-0.4-2-0.8-3-1c-0.7-0.2-1.5-0.3-2.3-0.3c-0.5,0-0.6,0.3-0.3,0.7c0.4,0.5,0.8,1,1.5,1.1
			c0.1,0,0.2,0,0.3,0.1C34.2,78.6,35.1,78.7,35.9,78.7z M23.2,22.2c0,0.3-0.1,0.6,0,0.8c0.2,1.1,0.9,1.9,1.7,2.5
			c0.3,0.2,0.7,0.4,1.2,0.3c0.4-0.1,0.6-0.2,0.5-0.6c0-0.3-0.1-0.6-0.2-0.8c-0.1-0.3,0-0.4,0.3-0.3c0.2,0.1,0.4,0.2,0.6,0.2
			c0,0,0-0.1,0.1-0.1C26.4,22.9,24.7,22.9,23.2,22.2z M85.9,90c-0.4,0-0.9-0.1-1.3-0.1c-1.6-0.2-3.2-0.4-4.8-0.5
			c-0.7-0.1-1.4,0-2,0.3c-0.3,0.1-0.5,0.4-0.5,0.8c0.5,0,1,0.1,1.4,0.1c0.6,0,1.3,0,1.9,0c1,0.1,2,0.2,3,0.2c0.5,0,1-0.1,1.5-0.1
			C85.5,90.5,85.8,90.4,85.9,90z M18,16.6c-0.1-0.1-0.1-0.2-0.2-0.3c-0.1-0.1-0.1-0.2-0.1-0.3c-0.2-0.4,0-0.6,0.4-0.6
			c0.3,0,0.7,0,1,0c0.4,0,0.8,0,1.2,0c0.2,0,0.5-0.2,0.4-0.4c-0.2-0.4-0.4-0.8-0.7-1.1c-0.5-0.4-1-0.5-1.6-0.2
			c-0.7,0.4-1,0.9-1.1,1.7C17.3,16,17.5,16.4,18,16.6z M64.1,89.9c0-0.2,0-0.4-0.1-0.6c-0.1-0.6-0.4-0.8-1-0.5
			c-0.5,0.3-1,0.7-1.5,1.1c-0.2,0.1-0.3,0.4-0.3,0.6c0,0.1,0,0.3,0.1,0.4c0,0.1,0.2,0,0.3,0c0.2-0.1,0.4-0.2,0.6-0.4
			c0.2-0.2,0.4-0.1,0.5,0.1c0,0.1,0.1,0.3,0.1,0.4c0.1,0.1,0.2,0.1,0.3,0.1C63.5,91.1,64.1,90.3,64.1,89.9z M56.4,93.1
			c-0.5-0.4-1-0.6-1.6-0.7c-1.2-0.3-2.5-0.5-3.7-0.8c-0.6-0.1-1.2-0.2-1.9-0.4C50.2,92.2,55.4,93.6,56.4,93.1z M20.4,42.2
			c0,0,0,0.1,0,0.1c-0.4,0-0.8-0.1-1.1-0.1c-0.1,0-0.3,0.1-0.4,0.1c0.1,0.1,0.1,0.3,0.2,0.4c0.7,0.5,1.9,0.3,2.4-0.4
			c0.2-0.3,0.2-0.6-0.2-0.8c-0.2-0.1-0.5-0.2-0.7-0.2c-0.7-0.1-1.4-0.1-2.1-0.1c-0.1,0-0.2,0-0.3,0c0,0,0,0.1,0,0.1
			C18.9,41.6,19.6,41.9,20.4,42.2z M37.9,76.7c0,0-0.1,0.1-0.1,0.1c0.6,0.5,1.2,1.1,1.9,1.5c0.6,0.3,1.2,0.4,1.9,0.5
			c0.2,0,0.5-0.1,0.7-0.2c-0.2-0.1-0.4-0.4-0.6-0.4c-0.7-0.1-1.3-0.5-1.9-0.9c-0.1-0.1-0.2-0.1-0.3-0.2C38.9,77,38.5,76.7,37.9,76.7
			z M23.6,25.3c-0.3-0.7-1-1.1-1.6-0.9c-1,0.3-1.9,0.6-2.8,0.9c-0.2,0.1-0.4,0.2-0.6,0.3c0,0.1,0,0.1,0.1,0.2
			c0.3-0.1,0.6-0.1,0.9-0.2c0.2-0.1,0.4-0.2,0.7-0.2c0.8,0,1.5,0,2.3,0C22.8,25.3,23.2,25.3,23.6,25.3z M40.3,76.8c0,0,0,0.1,0,0.1
			c0.7,0.3,1.5,0.7,2.2,0.9c0.8,0.2,1.6,0.3,2.4,0.1c-0.1-0.1-0.2-0.2-0.4-0.2c-0.3-0.1-0.7-0.1-1.1-0.2c-0.3-0.1-0.5-0.2-0.8-0.3
			C41.9,76.8,41.1,76.7,40.3,76.8z M98.6,90.1c-1.6-0.3-3.1-0.2-4.7,0.1c0,0.1,0,0.1,0,0.2C95.5,90.8,97,90.4,98.6,90.1z M46.9,31.3
			c0,0-0.2,0.1-0.3,0.1c0.1,0.1,0.1,0.2,0.2,0.3c0.1,0.1,0.2,0.1,0.3,0.2c0.5,0.3,1,0.5,1.3,1.1c0.1,0.2,0.3,0.2,0.4-0.1
			c0.1-0.3,0-0.7-0.3-1C48,31.6,47.5,31.4,46.9,31.3z M43.5,82.9c-0.4-0.6-2.5-1.5-2.9-1.3C40.9,82.3,42.5,83.1,43.5,82.9z
			 M64.5,90.5c0,0.3,0.3,0.6,0.4,0.5c0.5-0.4,0.9-0.7,1.4-1.1c0.1-0.1,0.1-0.2,0.1-0.3c0,0-0.2-0.1-0.3-0.1
			c-0.6,0.1-1.1,0.3-1.4,0.7C64.6,90.2,64.6,90.4,64.5,90.5z M16.2,42.3c-0.3,0.1-0.5,0.1-0.7,0.2c-0.1,0.1-0.2,0.2-0.2,0.3
			c0.1,0.4,0.8,0.7,1.1,0.4c0.2-0.2,0.3-0.4,0.4-0.6C16.6,42.5,16.4,42.4,16.2,42.3z M22.4,20.6c0.7,0.1,1.4,0,1.9-0.4
			c-0.5-0.4-1-0.4-1.5-0.2C22.6,20.1,22.4,20.2,22.4,20.6z M16.7,48.8c0-0.7-0.5-1.2-1-1.1c-0.2,0-0.4,0.2-0.4,0.3
			c0,0.1,0.1,0.3,0.3,0.4C16,48.6,16.3,48.7,16.7,48.8z M43.2,80.3c-0.8-0.5-1.5-0.8-2.4-0.9C41,80,42.4,80.6,43.2,80.3z M15.2,46.3
			c0.2,0.3,1.1,0.9,1.4,0.8c0.2,0,0.3-0.2,0.4-0.3c0,0,0-0.2-0.1-0.3C16.7,46.3,15.6,46.1,15.2,46.3z M38.4,76.1
			c-0.4-0.5-2-1.2-2.4-1C36.5,75.9,37.5,75.8,38.4,76.1z M13.3,49c0,0,0.1,0,0.1-0.1c-0.1-0.3-0.2-0.7-0.4-1
			c-0.1-0.1-0.3-0.2-0.5-0.3c-0.1,0.2-0.2,0.4-0.2,0.6C12.5,48.7,12.9,48.9,13.3,49z M71.8,91.5c-0.6,0-1.1,0.3-1.5,0.7
			c-0.1,0.1,0,0.3-0.1,0.5c0,0,0.1,0,0.1,0C70.9,92.4,71.5,92,71.8,91.5z M66.3,90.8c-0.4,0-1.1,0.4-1.3,0.7c-0.1,0.2,0,0.3,0.2,0.3
			C65.6,91.9,66.3,91.3,66.3,90.8z M35.1,66.8c0-0.6-0.5-1-1-0.9c-0.1,0-0.2,0.1-0.2,0.2c0,0.1,0.1,0.2,0.1,0.2
			C34.3,66.5,34.7,66.6,35.1,66.8z M51.6,85.7c-0.5-0.2-1.3-0.1-1.5,0.2C50.5,86.4,51.2,86.2,51.6,85.7z M44.8,85.2
			c0.2,0.3,0.6,0.5,1.3,0.5c-0.1-0.2-0.1-0.4-0.2-0.6C45.7,84.9,45.1,85,44.8,85.2z M67.2,91.5c0.5-0.1,0.8-0.4,1.1-0.7
			c0,0,0.1-0.2,0-0.2c0-0.1-0.1-0.1-0.2-0.1C67.6,90.5,67.2,91,67.2,91.5z M19.5,56.5c0.5,0.5,1.1,0.5,1.4-0.1
			C20.5,56.3,20,56.3,19.5,56.5z M25.1,67.5c0,0.1-0.1,0.1-0.1,0.2c0.5,0.3,1.1,0.6,1.6,0.9c0,0,0-0.1,0.1-0.1
			C26.3,67.9,25.8,67.5,25.1,67.5z M69.1,91.5c-0.5-0.1-1,0.2-1.1,0.4c0,0.1,0,0.2,0,0.3c0,0.1,0.2,0.1,0.3,0.1
			C68.5,92.1,68.8,91.8,69.1,91.5z M22.9,65.8c0.3,0.5,0.8,0.8,1.3,1.1C24,66.2,23.5,65.8,22.9,65.8z M39.5,84.5
			c-0.5-0.1-1,0.1-1.2,0.4C38.8,85.1,39.2,85,39.5,84.5z M32.8,75.1c0,0,0-0.1,0-0.1c-0.5-0.1-1-0.2-1.5-0.3c0,0,0,0.1,0,0.1
			C31.7,75,32.2,75.3,32.8,75.1z M47.4,90.9c0,0,0.1-0.1,0.1-0.1c0-0.1,0-0.3-0.1-0.4c-0.2-0.2-0.6-0.1-0.9,0.2
			C46.8,90.7,47.1,90.8,47.4,90.9z M42.9,88.5c0.1,0,0.1,0,0.2-0.1c0-0.2,0.1-0.4,0.1-0.6c-0.2,0-0.4-0.1-0.6-0.1
			c-0.1,0-0.2,0.1-0.3,0.2C42.6,88.1,42.8,88.3,42.9,88.5z M11.5,39.5c0.2,0.1,0.3,0.2,0.4,0.3c0.2,0.1,0.4,0,0.5-0.2
			c0.1-0.1,0.1-0.2,0.1-0.3c-0.2,0-0.4-0.1-0.5,0C11.9,39.3,11.8,39.4,11.5,39.5z M38.9,82.2c0,0.1,0,0.1,0,0.2
			c0.3,0.1,0.5,0.2,0.8,0.3c0.1,0,0.2-0.1,0.3-0.2c-0.1-0.1-0.1-0.2-0.2-0.2C39.5,82.2,39.2,82.2,38.9,82.2z M42.6,84.5
			c0,0,0,0.1,0,0.1c0.5,0.4,0.9,0.4,1.3,0C43.5,84.6,43.1,84.5,42.6,84.5z M34.7,75.8c0,0,0-0.1,0-0.1c-0.4-0.1-0.9-0.2-1.3-0.4
			C33.8,75.8,34.3,76,34.7,75.8z M15.2,49.1c0,0,0,0.1-0.1,0.1c0.3,0.2,0.7,0.3,1.1,0.5C16.1,49.2,15.7,49,15.2,49.1z M69.2,91.9
			c0,0,0,0.1,0.1,0.1c0.6-0.1,1-0.3,1.2-0.9C70,91.4,69.6,91.7,69.2,91.9z M55.2,79c0,0,0.1-0.1,0.1-0.1c-0.1-0.2-0.2-0.4-0.3-0.5
			c0,0-0.3,0-0.3,0.1c-0.1,0.1-0.1,0.3-0.1,0.4C54.8,79,55,79,55.2,79z M80.3,85.8c-0.2,0.1-0.4,0.3-0.6,0.4
			c0.1,0.1,0.3,0.3,0.4,0.3c0.2-0.1,0.3-0.3,0.4-0.4C80.5,86,80.4,85.9,80.3,85.8z M17.4,43.6c0,0.1,0,0.1,0,0.2
			c0.2,0.1,0.4,0.2,0.7,0.2c0.1,0,0.2-0.1,0.2-0.2c0-0.1-0.1-0.2-0.2-0.2C17.9,43.5,17.7,43.6,17.4,43.6z M23,68.8
			c0,0-0.1,0.1-0.1,0.1c0.4,0.3,0.8,0.7,1.1,1C23.9,69.3,23.5,69,23,68.8z M17.1,44.8c0-0.4,0.1-0.7-0.2-0.7c-0.1,0-0.3,0.3-0.4,0.4
			C16.6,44.6,16.8,44.7,17.1,44.8z M74.7,95.2c0.5,0.4,0.8,0.3,0.9-0.2C75.3,94.9,75,94.9,74.7,95.2z M44,82.2c0,0,0.1-0.1,0.1-0.1
			c-0.1-0.1-0.2-0.3-0.3-0.3c-0.2,0-0.4,0-0.6,0c0,0.1,0,0.1,0,0.2C43.5,82,43.8,82.1,44,82.2z M51,87.2c0,0,0-0.1,0-0.1
			c-0.7-0.1-1.3-0.1-2-0.2c0,0.1,0,0.1,0,0.2C49.7,87.1,50.3,87.2,51,87.2z M60.5,89.6c0,0.1,0.1,0.1,0.1,0.2
			c0.4-0.2,0.7-0.5,1.1-0.7c0-0.1-0.1-0.1-0.1-0.2C61.2,89.1,60.9,89.4,60.5,89.6z M25.3,57.2c0-0.2,0-0.3-0.1-0.4
			c0-0.1-0.2-0.2-0.2-0.2c-0.1,0.1-0.2,0.2-0.2,0.3C24.7,57.2,25,57.2,25.3,57.2z M88.1,90.1c-0.1-0.1-0.2-0.2-0.2-0.3
			c-0.1,0.1-0.3,0.3-0.4,0.4c0.1,0.1,0.2,0.2,0.2,0.2C87.8,90.4,87.9,90.3,88.1,90.1z M56.3,91.4c0.6-0.1,0.8-0.3,0.5-0.8
			C56.7,90.9,56.5,91.1,56.3,91.4z M57.2,80.7c-0.2-0.4-0.3-0.5-0.6-0.5c-0.1,0-0.1,0.1-0.2,0.2c0,0,0.1,0.1,0.1,0.2
			C56.7,80.6,56.9,80.6,57.2,80.7z M92.4,89.6c-0.1,0-0.1,0-0.2-0.1c-0.1,0.2-0.2,0.4-0.2,0.5c0.1,0,0.2,0.1,0.3,0
			C92.6,89.9,92.4,89.7,92.4,89.6z M22.9,63.3c0,0.1,0,0.2,0,0.2c0.2,0,0.4,0,0.6,0c0-0.1,0-0.2,0-0.3
			C23.3,63.3,23.1,63.3,22.9,63.3z M84.3,83.8c-0.1,0-0.1,0-0.2,0c-0.1,0.2-0.2,0.3-0.2,0.5c0,0.1,0.2,0.1,0.3,0.2
			C84.3,84.2,84.3,84,84.3,83.8z M35.2,80c0-0.1,0-0.1,0.1-0.2c-0.3-0.1-0.6-0.2-1-0.4c0,0.1,0,0.1-0.1,0.2
			C34.5,79.8,34.8,79.9,35.2,80z M19.7,54.6c0-0.1,0-0.1,0-0.2c-0.2,0-0.5,0.1-0.7,0.1c0,0.1,0,0.1,0,0.2
			C19.2,54.6,19.5,54.6,19.7,54.6z M23.5,38.6C23.5,38.5,23.4,38.5,23.5,38.6c-0.2,0-0.4,0-0.6,0.1c0,0,0,0.1,0,0.1
			c0.1,0.1,0.2,0.1,0.3,0.2C23.4,38.8,23.4,38.7,23.5,38.6z M40.1,74.2c0-0.1,0.1-0.1,0.1-0.2c-0.1-0.1-0.3-0.2-0.4-0.3
			c0,0.1-0.1,0.2-0.1,0.2C39.8,74,40,74.1,40.1,74.2z M38.3,73.1c0-0.1,0.1-0.1,0.1-0.2c-0.1-0.1-0.2-0.2-0.3-0.2
			c0,0-0.1,0.1-0.2,0.2C38.1,73,38.2,73.1,38.3,73.1z M40.3,87c0,0-0.1,0-0.1,0c-0.1,0.1-0.1,0.3-0.2,0.4c0.1,0,0.3,0,0.5,0
			C40.4,87.2,40.3,87.1,40.3,87z"/>
		<path class="st0" d="M35.5,68.3c0.4,0,0.8-0.1,1.3-0.2c0.2,0,0.4-0.1,0.6-0.2c0.6-0.3,0.8-0.8,0.6-1.4c-0.2-0.5-0.4-0.9-0.8-1.3
			c-0.6-0.7-1.2-1.3-1.8-1.9c-0.1-0.1-0.2-0.1-0.3-0.2c0,0.1,0.1,0.3,0.1,0.4c0.3,0.7,0.6,1.4,0.9,2.1c0.1,0.2,0.3,0.5,0,0.7
			c-0.3,0.1-0.5-0.2-0.6-0.4c-0.2-0.4-0.3-0.7-0.4-1.1c-0.4-1.2-1.2-1.7-2.4-1.9c-0.1,0.4-0.1,0.8-0.2,1.2c0,0.1-0.2,0.2-0.3,0.3
			c-0.1-0.1-0.2-0.2-0.3-0.3c-0.1-0.2-0.2-0.5-0.3-0.8c-0.3,0.1-0.6,0.1-0.8,0.2c-0.3,0.1-0.7,0-0.9-0.3c-0.4-0.5-0.6-1-0.5-1.6
			c0.1-0.8-0.2-1.5-0.7-2c-0.5-0.5-1-0.9-1.5-1.3c-0.4-0.3-0.7-0.7-0.9-1.2c0.4,0.2,0.8,0.4,1.2,0.6c0.4,0.1,0.8,0.2,1.1,0.1
			c0.4,0,0.7-0.4,0.6-0.8c-0.1-0.3-0.2-0.6-0.4-0.9c-0.3-0.5-0.6-0.9-1-1.3c-0.5-0.6-0.7-0.6-1.2,0c-0.4,0.4-0.8,0.7-1.2,1.1
			c-0.4,0.3-0.6,0.1-0.7-0.3c0-0.5,0-1,0-1.5c0-0.5,0.1-0.9,0.2-1.4c0-0.1,0-0.2,0-0.2c-0.3,0.1-0.6,0.2-0.8,0.4
			c-0.2,0.2-0.3,0.5-0.3,0.8c0,0.4,0.1,0.9,0.1,1.3c0,0.2,0,0.5,0,0.8c-0.4-0.1-0.8-0.1-1.1-0.1c-0.1,0-0.3,0-0.3,0.1
			c0,0.1,0,0.3,0.1,0.4c0.2,0.3,0.5,0.5,0.7,0.8c0.7,0.6,1.4,1.3,2,1.9c0.1,0.1,0.3,0.3,0.4,0.4c-0.1,0-0.2-0.1-0.3-0.1
			c-0.3-0.1-0.6-0.1-0.8,0.1c-0.1,0.1-0.2,0.2-0.3,0.4c-0.4,0.5-1.1,0.3-1.3-0.3c-0.1-0.4-0.3-0.9-0.4-1.3c-0.4-1.3-1.1-2.3-2.6-2.5
			c0.2-0.1,0.4-0.2,0.5-0.3c0.4-0.3,0.5-0.7,0.2-1.1c-0.3-0.4-0.8-0.7-1.2-1.1c-0.3-0.2-0.6-0.4-0.9-0.7c0.6-0.7,1.2-1.3,1.8-1.9
			c0.3-0.3,0.6-0.3,0.9,0.1c0.4,0.4,0.8,0.9,1.2,1.4c-1.1,0.2-1.4,0.6-1,1.6c0.2,0.5,0.5,0.9,0.8,1.4c0.1,0.1,0.4,0.2,0.5,0.1
			c0.1,0,0.2-0.3,0.2-0.5c0-0.6,0.1-1.3,0.1-1.9c0-1.7-0.6-2.7-2.3-3.2c-0.3-0.1-0.5-0.2-0.9,0c-0.1,0.1-0.5,0-0.7-0.1
			c-0.5-0.4-0.8-0.9-0.8-1.6c0-0.5,0.2-0.7,0.7-0.6c0.1,0,0.1,0,0.2,0c0-0.2,0-0.4,0.1-0.6c0.1-0.7,0.5-1.1,1.1-1.2
			c0.5-0.1,1-0.1,1.4-0.2c0.3,0,0.6-0.1,0.7-0.5c0,0,0.1-0.1,0.1-0.1c0.4-0.4,0.5-0.6,0.3-1.1c-0.2-0.5-0.5-1-0.8-1.5
			c-0.1-0.2-0.2-0.5-0.3-0.7c-0.1-0.4-0.1-0.7,0.2-1c0.2-0.2,0.4-0.3,0.7-0.2c0.7,0.3,1.5,0.1,2.2-0.2c0.5-0.2,1-0.5,1.4-0.8
			c0.6-0.4,0.4-0.9-0.2-1.1c0,0-0.1-0.1-0.2-0.1c0.6,0,1.2,0.1,1.8,0.1c1,0,1.3-0.2,1.5-1.1c0,0,0-0.1,0.1-0.1
			c1.1,0.2,2.2,0.6,3.5,0.7c-0.4-0.6-1.1-0.8-1.6-1.2c0.5-0.2,0.9-0.4,1.3-0.4c1.2-0.2,2.4-0.4,3.6-0.7c0.2,0,0.5-0.2,0.7-0.3
			c0.2-0.1,0.4-0.2,0.6-0.3c0.6-0.2,1.1,0,1.4,0.6c0.5,0.9,0.5,2,0.4,3c-0.1,1.2-0.3,2.5-0.5,3.7c0.3-0.1,0.6,0.2,0.6,0.5
			c0.1,0.6,0.2,1.2,0.2,1.8c0,1.3-0.1,2.7-0.2,4c0.3-0.1,0.4,0,0.5,0.4c0.2,0.9,0.1,1.8-0.2,2.7c0,0.1-0.1,0.3-0.1,0.4
			c0,0,0.1,0,0.1,0c0.7-0.2,1,0.2,0.8,0.9c-0.1,0.3-0.2,0.6-0.4,0.9c-0.2-0.1-0.3-0.2-0.5-0.4c-0.1,0.2-0.3,0.3-0.4,0.5
			c-0.2,0.7-0.3,1.4-0.4,2c0,0,0.1,0,0.1,0c0-0.1,0.1-0.1,0.1-0.2c0.1-0.6,0.5-1,0.9-1.5c0.1-0.1,0.3-0.2,0.5-0.2
			c0.1,0,0.2,0.3,0.2,0.4c0.2,1.1,0.4,2.3,0.7,3.4c0.4,1.6,0.9,3.2,1.3,4.8c0.1,0.2,0.1,0.4,0.1,0.6c0.1,0.3,0.2,0.6,0.4,0.8
			c0.4,0.5,0.4,0.6-0.1,0.9c-0.6,0.3-0.8,0.8-0.8,1.4c1-0.1,1.6,0.6,2,1.3c0.3,0.4,0.5,1,0.7,1.4c0.1-0.3,0.1-0.7,0.2-1.2
			c0.2,0.1,0.3,0.2,0.3,0.3c0.5,0.6,0.9,1.3,1.6,1.7c0.1,0.1,0.2,0.2,0.2,0.3c1,1.5,2,3.1,3,4.6c0.4,0.6,0.9,1,1.4,1.5
			c0.3,0.3,0.6,0.6,0.8,1c0.1,0.2,0.3,0.3,0,0.5c-0.1,0,0,0.3,0,0.4c0.5,0.9,1.2,1.7,2,2.4c2,1.8,4.5,2.8,7,3.5
			c0.6,0.2,1,0.4,1.4,0.9c1,1.2,2.1,2.1,3.6,2.6c0.9,0.3,1.8,0.3,2.7,0.1c0.1,0,0.1,0,0.2,0c0,0,0,0,0,0c-0.4,0.5-0.4,0.8,0.3,1
			c1,0.4,1.9,0.6,2.9,0.9c0.5,0.2,1.1,0.3,1.6,0.5c0.1,0,0.2,0.2,0.3,0.3c-0.1,0.1-0.2,0.2-0.3,0.3c-0.4,0.2-0.8,0.3-1.2,0.4
			c-0.7,0.2-1.4,0-2-0.2c-0.9-0.3-1.7-0.6-2.6-0.6c-0.4,0-0.8-0.3-1.3-0.5c-1.5-0.6-2.9-1.4-4.5-1.7c-1.3-0.3-2.5-0.2-3.7,0.5
			c-0.4,0.2-0.7,0.4-1.1,0.6c0,0-0.1-0.1-0.1-0.1c0.4-0.5,0.8-1,1.1-1.4c0,0,0-0.1-0.1-0.1c-0.3,0.3-0.7,0.5-1,0.8
			c-0.3,0.3-0.6,0.6-0.9,0.8c-0.5,0.3-0.9,0.3-1.2-0.2c-0.2-0.3-0.4-0.6-0.6-0.8c-0.6-0.8-1-1-2-0.6c-0.1,0-0.2,0.1-0.3,0
			c-0.3-0.2-0.6-0.4-1-0.5c-0.6-0.3-0.6-0.5,0-0.9c0.1,0,0.1-0.1,0.3-0.2c-0.2,0-0.3,0-0.5,0c-0.1,0-0.3-0.1-0.4-0.1
			c0.3-0.5,0.6-0.9,1-1.4c-0.9-0.1-1.6-0.1-2.4-0.2c-1.2-0.1-2.4-0.3-3.5-0.8c-0.6-0.3-0.9-0.8-1.1-1.4c-0.1-0.3,0-0.6,0.3-0.5
			c0.8,0.1,1.6,0.3,2.4,0.4c0,0,0,0.1,0,0.1c-0.2,0.1-0.4,0.1-0.5,0.2c-0.1,0.1-0.4,0.2-0.4,0.4c0,0.2,0.2,0.4,0.3,0.5
			c0.3,0.2,0.7,0.3,1,0.4c0.9,0.2,1.9,0.3,2.8-0.1c-1.5-1.4-2.6-3.1-4.3-4.2c-0.9-0.6-1.8-1.1-2.8-1.6c-2.3-1.1-4.6-2.1-6.9-3.2
			c-0.5-0.3-1-0.6-1.6-1c-0.1-0.1-0.2-0.2-0.3-0.3c0,0,0-0.1,0-0.1c0.2,0,0.5,0,0.7,0.1c1,0.3,2,0.8,2.9,1.4
			c0.5,0.3,1.1,0.4,1.7,0.5c0.5,0.1,0.8-0.3,0.8-0.8c0-0.3-0.1-0.7-0.3-1c-0.3-0.6-0.7-1.2-1.3-1.6c-0.3-0.3-0.7-0.5-1.1-0.5
			c-0.8,0-1.4-0.5-1.9-0.9C36.7,69.3,36.1,68.8,35.5,68.3z M28.2,51.1c0,0.1,0,0.3,0,0.4c0.2,1.6,0.7,3.1,1.5,4.4
			c0.1,0.1,0.1,0.2,0.2,0.3c0.4,0.5,0.5,0.5,0.9,0c0.2-0.3,0.4-0.3,0.7-0.1c0.2,0.1,0.3,0.3,0.5,0.4c-0.1-0.2-0.2-0.5-0.2-0.7
			c0-0.1,0.1-0.4,0.2-0.4c0.4-0.2,0.4-0.3,0.2-0.7c-0.8-1.1-1.6-2.1-2.6-3c-0.1-0.1-0.3-0.2-0.4-0.2c0,0-0.1,0-0.1,0.1
			c0.1,0.2,0.1,0.4,0.2,0.6c0.2,0.6,0.5,1.2,0.8,1.8c0.1,0.2,0.1,0.4,0.1,0.6c0,0-0.1,0-0.1,0C29.3,53.5,28.7,52.3,28.2,51.1z
			 M36.3,52c0-0.1,0-0.3-0.1-0.4c-0.1-0.3-0.2-0.6-0.3-0.9c0-0.1-0.1-0.2-0.2-0.2c-0.1,0-0.2,0.1-0.2,0.2c-0.1,0.1-0.1,0.2-0.1,0.4
			c-0.2,0.9-0.2,1.8-0.1,2.7c0.1,0.8,0.8,1.3,1.1,2.1c0.2,0.4,0.5,0.4,0.7-0.1c0.2-0.5,0.3-0.9,0.4-1.4C37.1,54.3,37,54,37,53.7
			c0-0.3,0-0.6,0.1-0.9C37.2,52.1,37,51.9,36.3,52z M39.1,39.3c0,0-0.1,0-0.1,0c-0.6,0.7-0.4,1.7-1,2.5c0-0.3-0.1-0.4-0.1-0.6
			c0.1-0.6,0.2-1.1,0.3-1.6c0-0.3,0-0.6,0-0.9c0-0.1-0.1-0.2-0.2-0.4c-0.1,0.1-0.3,0.2-0.4,0.3c-0.2,0.5-0.5,1-0.6,1.5
			c-0.1,0.7-0.2,1.4-0.2,2.1c0,0.4,0.2,0.8,0.6,0.9c0.4,0.1,0.6-0.3,0.8-0.7c0.3-0.8,0.5-1.6,0.7-2.3C39.1,39.8,39.1,39.5,39.1,39.3
			z M22.7,47.9c0.2,0.6,0.7,0.9,0.8,1.7c-0.6-0.4-1.1-0.7-1.7-1c0,0,0,0.1-0.1,0.1c0,0.1,0,0.1,0.1,0.2c0.6,0.7,1.2,1.4,1.9,2.1
			c0.5,0.5,1.1,0.2,1.2-0.5c0.1-0.8-0.3-1.5-1.1-1.8c-0.3-0.1-0.5-0.2-0.7-0.4C23,48.1,22.8,48,22.7,47.9z M28.5,48.6
			c0-0.1,0.1-0.1,0.1-0.2c-0.2-0.2-0.3-0.4-0.5-0.5c-0.9-0.6-1.8-1.2-2.7-1.8C25.2,46,25,46,24.7,45.9c-0.2-0.1-0.4,0.1-0.3,0.3
			c0.3,0.6,0.6,1.3,1.3,1.5c0.6,0.2,1.2,0.4,1.8,0.6C27.9,48.4,28.2,48.5,28.5,48.6z M28.8,45.7c0,0,0.1-0.1,0.1-0.1
			c-0.3-0.3-0.6-0.6-0.8-0.9c0.2-0.1,0.3-0.2,0.5-0.4c-0.1-0.1-0.3-0.3-0.5-0.4c0,0-0.1,0-0.1-0.1c-0.7-0.4-1.3-0.8-1.7-1.5
			c0,0-0.1-0.1-0.2-0.1c0.1,0.2,0.1,0.3,0.2,0.4c0.1,0.4,0.4,0.9,0.3,1.3c-0.1,0.5,0.2,0.7,0.5,1c0.3,0.2,0.7,0.4,1,0.6
			C28.3,45.6,28.6,45.6,28.8,45.7z M22.9,46.9c0.1,0.1,0.1,0.3,0.2,0.4c0.5,0.5,1,1,1.5,1.5c0.3,0.3,1.1,0.3,1.4,0.1
			C25.8,48.3,23.7,46.9,22.9,46.9z M50.4,77c0.3-0.6-1.3-2.8-1.8-2.9C48.5,75,49.7,76.9,50.4,77z M29.2,47.1
			c-0.4-0.8-3.2-1.8-3.8-1.5C26.6,46.1,27.9,46.6,29.2,47.1z M42.5,64.7c0.2-0.7,0.2-1.4-0.2-1.9c-0.1-0.1-0.3-0.2-0.4-0.3
			c0,0.2-0.1,0.3-0.1,0.5C41.9,63.5,42.1,64.1,42.5,64.7z M28.1,54.5c0.3-0.5,0.2-0.8,0-1.1c0-0.1-0.3-0.2-0.3-0.2
			c-0.1,0.1-0.3,0.4-0.3,0.5C27.6,54,27.8,54.2,28.1,54.5z M47.1,71.7c-0.1-0.5-0.5-1-0.9-1.1C46.2,71.4,46.5,71.8,47.1,71.7z
			 M29.1,43.2c0-0.5-0.2-0.8-0.4-0.8c-0.2,0.1-0.3,0.3-0.4,0.4c0.2,0.2,0.4,0.4,0.6,0.5C28.9,43.4,29.1,43.2,29.1,43.2z M39.1,52.6
			c0.5-0.7,0.6-1.7,0.3-2.1C39.3,51.2,39.2,51.9,39.1,52.6z M38.8,50.2c-0.3,0.4-0.4,1.3-0.1,1.6C38.8,51.3,38.8,50.8,38.8,50.2z
			 M27.2,50.9c0,0,0.1-0.1,0.1-0.1c-0.2-0.3-0.5-0.7-0.7-1C26.5,50.4,26.8,50.8,27.2,50.9z M25.9,52.3c-0.4,0.5-0.3,0.8,0.2,1.1
			C26,53,26,52.7,25.9,52.3z M43.8,67.2c-0.4,0.4-0.4,0.8,0,1C43.8,67.8,43.8,67.5,43.8,67.2z M33.6,50.3c-0.1,0-0.1,0-0.2,0
			c0,0.4,0,0.8,0.1,1.2c0.1,0,0.1,0,0.2,0C33.7,51.1,33.6,50.7,33.6,50.3z M31.4,61.2C31.4,61.2,31.4,61.2,31.4,61.2
			c0,0.3,0.1,0.5,0.2,0.7c0,0,0.1,0,0.1,0c0-0.1,0-0.3,0-0.4C31.7,61.3,31.5,61.2,31.4,61.2z M36.3,45.7c0,0-0.1,0-0.1,0
			c0.2,0.4,0.3,0.8,0.5,1.1c0,0,0.1,0,0.1-0.1C36.7,46.4,36.5,46.1,36.3,45.7z M25.4,50.3c0,0,0,0.1,0,0.1c0.1,0,0.3,0.1,0.3,0.1
			c0.1-0.1,0.1-0.2,0.1-0.3c0,0-0.1,0-0.1-0.1C25.7,50.2,25.6,50.2,25.4,50.3z M40.7,58.1c0,0,0.1,0,0.1,0c0-0.3,0-0.5,0-0.8
			c0,0-0.1,0-0.1,0C40.7,57.6,40.7,57.8,40.7,58.1z"/>
		<path class="st0" d="M18.5,38.4c0.1-0.3,0.2-0.4,0.2-0.5c0.1-0.4,0-0.6-0.4-0.5c-0.6,0.1-1.1,0.2-1.7,0.2c-0.3,0-0.6,0.1-0.9,0.1
			c0,0.3,0,0.5,0,0.8c0,0.4-0.3,0.6-0.7,0.6c-1,0.1-2.5-0.9-2.9-1.8c-0.2-0.5-0.1-1,0.4-1.3c0.2-0.1,0.5-0.2,0.8-0.3
			c-1.2-0.6-2.4-0.1-2.8,0.8c-0.4,1-0.4,1.9-0.3,2.9c0,0.2,0.1,0.4,0.1,0.7c-0.1,0-0.2-0.1-0.3-0.1c-0.5-0.7-0.9-1.4-1.1-2.2
			c-0.2-1.1,0.2-2,1.2-2.6c1-0.7,2-1,3.2-1.2c0.4-0.1,0.8-0.1,1.1-0.2c0,0,0,0.1,0,0.1c-0.3,1.1,0,1.7,1,2.2
			c0.6,0.2,1.2,0.4,1.8,0.5c0.3,0,0.7-0.2,1-0.3c0.2-0.1,0.1-0.3-0.1-0.4c-0.2-0.2-0.5-0.3-0.8-0.5c-0.1-0.1-0.3-0.2-0.3-0.4
			c0-0.1,0.2-0.2,0.3-0.3c0.1-0.1,0.3-0.1,0.5-0.2c-0.4-0.2-0.7-0.3-1-0.5c-0.2-0.1-0.4-0.3-0.6-0.5c0.2-0.1,0.5-0.4,0.7-0.4
			c4-0.6,7.8-2.1,11.6-3.1c4-1,8.1-1.6,12.3-1.4c0.6,0,0.8,0.2,0.9,0.8c0.1,0.7-0.1,1.3-0.5,1.8c-0.8,1.1-1.9,1.8-3.3,2
			c-0.7,0.1-1.5,0.4-2.2,0.6c-2,0.5-4,0.8-6,1.1c-0.9,0.1-1.9,0.1-2.8,0.2c-1.3,0.1-2.5,0.8-3.7,1.3c-1.1,0.5-2.3,1.1-3.5,1.6
			C19.6,38.2,19.1,38.2,18.5,38.4z M20.1,35.2c0.6,0,1.1,0.2,1.6,0.5c0.3,0.2,0.5,0.3,0.8,0.4c0.1,0.1,0.3,0,0.5,0
			c0-0.1,0-0.3,0-0.4c-0.3-0.7-0.8-1.2-1.4-1.5c-0.6-0.2-1-0.1-1.3,0.5C20.2,34.9,20.1,35,20.1,35.2z M34.8,31.1
			c0.6,0,0.8-0.3,0.8-0.7c-0.1-0.5-0.4-0.9-0.8-1.2c-0.4-0.2-0.8-0.1-0.9,0.3c-0.1,0.4-0.1,0.8-0.1,1.1c0,0.1,0.1,0.2,0.1,0.2
			C34.2,31,34.6,31.1,34.8,31.1z M25,32.3c0.2,0,0.5,0,0.7-0.1c0.3-0.1,0.6-0.3,0.9-0.3c0.4-0.1,0.8-0.1,1.1,0
			c0.4,0.2,0.7,0.2,1,0.1c0.3-0.1,0.6-0.2,0.9-0.3c0.1,0,0.2-0.1,0.3-0.2C29.1,30.7,25.8,31.3,25,32.3z M23,34.2
			c0.2,0,0.5,0,0.7-0.1c0.1,0,0.2-0.3,0.2-0.4c-0.2-0.4-1.2-0.8-1.6-0.6c-0.2,0.1-0.4,0.3-0.2,0.5C22.3,33.9,22.6,34.3,23,34.2z
			 M36.3,31.1c0.1,0,0.1,0,0.2,0c0-0.1,0.1-0.3,0.1-0.4c0-0.3,0.1-0.4,0.4-0.4c0.3-0.1,0.6-0.2,0.9-0.3c0.1,0,0.1-0.2,0.2-0.3
			c-0.1-0.1-0.2-0.1-0.3-0.2c-0.1,0-0.2,0-0.3,0c-0.6,0.2-1,0.6-1.2,1.2C36.2,30.8,36.3,31,36.3,31.1z M21,33.1
			c-0.2,0.1-0.5,0.2-0.7,0.4C20.7,33.7,21,33.6,21,33.1z M24.8,32.4c-0.5,0.1-0.5,0.2-0.2,0.5C24.7,32.7,24.7,32.5,24.8,32.4z"/>
		<path class="st0" d="M37.9,87.9c0.7,0.4,1.5,0.8,2.2,1.1c1.5,0.7,3,1.3,4.5,2c0.1,0,0.2,0.1,0.3,0.1c0,0,0.1,0,0.1-0.1
			c-0.3-0.2-0.6-0.4-1-0.5c-1.7-0.7-3.4-1.6-4.9-2.6c-0.2-0.1-0.3-0.2-0.4-0.4c0.1,0,0.2,0,0.3,0c0.6,0.2,1.2,0.4,1.8,0.7
			c2.6,1.5,5.4,2.6,8.2,3.7c1.3,0.5,2.6,1.1,3.9,1.5c0.6,0.2,1.3,0.3,1.9,0.4c1.6,0.2,3.3,0.5,4.9,0.6c1.5,0.2,3,0.1,4.6-0.1
			c0.1,0,0.3,0,0.4,0c1.1,0.5,2.4,0.6,3.6,0.5c1,0,2-0.1,3.1-0.1c0.8,0,1.6,0.1,2.4,0.5c-0.6,0.1-1.1,0.2-1.7,0.3
			c-3.2,0.4-6.5,0.3-9.7-0.1c-3.5-0.4-6.9-0.9-10.4-1.5c-2-0.3-4-1-5.9-1.8c-2.6-1.1-5.3-2.1-7.6-3.7c-0.2-0.1-0.4-0.3-0.6-0.4
			C37.9,88,37.9,88,37.9,87.9z"/>
		<path class="st0" d="M30.5,79.7c-0.4,0.5-0.4,0.6,0,1c0.4,0.4,0.8,0.8,1.2,1.2c0.3,0.4,0.6,0.6,1.1,0.7c1.1,0.3,1.9,1,2.5,1.9
			c0.1,0.1,0.1,0.4,0.1,0.6c-0.2,0-0.4,0.1-0.6,0.1c-1.1-0.2-2.2-0.6-3-1.4c-1-1.1-2.1-2.1-3.3-3c-1.9-1.5-3.3-3.4-4.4-5.4
			c-1.4-2.5-3.1-4.9-4.7-7.2c-1.6-2.4-3-4.9-4-7.6c-0.1-0.2-0.1-0.4-0.2-0.6c0,0,0-0.1,0-0.2c0.1,0.1,0.2,0.2,0.3,0.3
			c0.8,1,1.4,2.2,1.9,3.4c0.4,1.3,1.1,2.3,2,3.3c0.6,0.7,1.2,1.4,1.7,2.1c0.3,0.5,0.5,1,0.8,1.5c0.1,0.1,0.2,0.3,0.3,0.3
			c1.1,0.7,1.7,1.6,2.1,2.8c0.2,0.6,0.4,1.1,0.6,1.7c0.3,0.7,0.8,1.2,1.5,1.5c0.1,0,0.2,0.1,0.2,0.1c0.5-0.1,0.7,0.2,0.9,0.5
			c0.3,0.5,0.6,1,0.9,1.5C28.8,79.4,29.5,79.9,30.5,79.7z"/>
		<path class="st0" d="M32.4,69.4c-0.4,0-0.9,0-1.3,0c0,0,0,0.1-0.1,0.1c0.6,0.4,1.2,0.8,1.7,1.2c-0.3,0.3-0.1,0.6,0.1,0.8
			c0.2,0.2,0.5,0.4,0.7,0.6c0.4,0.4,0.5,0.6,0.2,1.2c0.4,0.4,0.8,0.7,1.2,1.1c0,0,0,0.1-0.1,0.1c-0.2-0.1-0.4-0.1-0.5-0.2
			c-0.6-0.3-1.2-0.6-1.7-0.9c-1-0.5-1.9-1-2.9-1.6c-0.4-0.2-0.8-0.4-1.1-0.7c-0.2-0.1-0.2-0.3-0.4-0.5c0,0,0.1-0.1,0.1-0.1
			c0.6,0.3,1.2,0.5,1.8,0.8c0,0,0.1-0.1,0.1-0.1c-0.8-0.7-1.6-1.3-2.5-2c0.3,0,0.5,0,0.9,0c-0.3-0.7-1.1-1-1.4-1.7
			c0.4,0,0.7,0.1,1.1,0.1c-0.1-0.3-0.1-0.5-0.2-0.9c0.5,0.2,0.9,0.3,1.3,0.4c0,0,0,0,0,0c-0.2-0.2-0.3-0.3-0.5-0.5
			C29,66.7,29,66.6,29,66.5c0.1,0,0.2-0.1,0.3-0.1c0.4,0.1,0.8,0.1,1.1,0.2c0.7,0.2,1.5,0.4,2.2,0.6c0.1,0,0.2,0.1,0.3,0.1
			c-0.2,0.2-0.4,0.3-0.6,0.4c-0.2,0.1-0.5,0.2-0.7,0.3c-0.4,0.2-0.4,0.4-0.1,0.6C31.9,68.9,32.2,69.1,32.4,69.4
			C32.4,69.3,32.4,69.3,32.4,69.4z"/>
		<path class="st0" d="M25.8,28.9c-1.4-1.2-3.1-1-4.7-0.7c-1.1,0.2-2.2,0.6-3.3,0.9c-0.2,0-0.4,0-0.6,0.1c0,0,0-0.1,0-0.1
			c0.2-0.1,0.3-0.2,0.5-0.2c1.7-0.5,3.3-0.9,5-1.4c2.2-0.6,4.4-1.2,6.6-1.7c0.3-0.1,0.5-0.1,0.8,0c0.3,0,0.4,0.2,0.3,0.5
			c-0.1,0.2-0.3,0.5-0.4,0.7c0.4,0.5,0.7,1,1.1,1.5c0,0-0.1,0.1-0.1,0.1c-0.6-0.2-1-0.7-1.5-1.2c0.2,0.6,0.2,1.2,0,1.7
			c-0.3,0.8-0.9,1-1.6,0.4c-0.3-0.2-0.5-0.6-0.7-0.9c-0.3-0.3-0.5-0.7-0.8-0.9c-0.3-0.3-0.6-0.1-0.6,0.3
			C25.6,28.2,25.7,28.6,25.8,28.9z"/>
		<path class="st0" d="M26.8,59.1c0.5-0.2,0.8-0.1,1,0.3c0.2,0.6,0.3,1.3,0.5,1.9c0.1,0.4,0.2,0.8,0.4,1.2c0.1,0.2,0.3,0.5,0.4,0.6
			c0.7,0.4,1,1.1,1.4,1.8c0.1,0.1,0.1,0.3,0,0.4c-0.1,0.1-0.3,0.1-0.4,0c-0.3-0.1-0.6-0.2-0.9-0.3c-0.5-0.2-1-0.5-1.5-0.7
			c-1.1-0.5-2.1-1-3.2-1.5c-0.2-0.1-0.4-0.2-0.7-0.3c0,0,0.1,0,0.1-0.1c0-0.1,0-0.3-0.1-0.4c-0.2-0.4-0.5-0.8-0.6-1.2
			c-0.2-0.4,0-0.6,0.5-0.6c0.4,0.1,0.8,0.2,1.1,0.3c0.6,0.2,1.2,0.5,1.8,0.7c0.1,0.1,0.3,0.1,0.4,0.1c0.4,0,0.6-0.2,0.5-0.6
			c-0.1-0.4-0.3-0.8-0.4-1.1C27,59.5,26.9,59.3,26.8,59.1z"/>
		<path class="st0" d="M35.9,78.7c-0.9-0.1-1.7-0.1-2.4-0.6c-0.1-0.1-0.2-0.1-0.3-0.1c-0.7-0.1-1.1-0.6-1.5-1.1
			c-0.3-0.4-0.1-0.7,0.3-0.7c0.8,0,1.6,0.1,2.3,0.3c1,0.3,2,0.7,3,1c0.2,0.1,0.4,0.3,0.6,0.5c-0.2,0.2-0.4,0.4-0.6,0.4
			C36.9,78.6,36.4,78.7,35.9,78.7z"/>
		<path class="st0" d="M23.2,22.2c1.5,0.7,3.1,0.6,4.1,2c0,0,0,0.1-0.1,0.1c-0.2-0.1-0.4-0.2-0.6-0.2c-0.3-0.1-0.4,0-0.3,0.3
			c0.1,0.3,0.2,0.6,0.2,0.8c0,0.4-0.1,0.6-0.5,0.6c-0.4,0.1-0.8-0.1-1.2-0.3c-0.9-0.6-1.5-1.4-1.7-2.5
			C23.1,22.8,23.2,22.6,23.2,22.2z"/>
		<path class="st0" d="M85.9,90c-0.2,0.4-0.4,0.5-0.8,0.6c-0.5,0.1-1,0.2-1.5,0.1c-1,0-2-0.2-3-0.2c-0.6,0-1.3,0-1.9,0
			c-0.5,0-0.9,0-1.4-0.1c0-0.4,0.2-0.6,0.5-0.8c0.6-0.4,1.3-0.4,2-0.3c1.6,0.2,3.2,0.4,4.8,0.5C85.1,89.9,85.5,90,85.9,90z"/>
		<path class="st0" d="M14.7,54.7c0.1,0.2,0.1,0.4,0.2,0.5c0.7,0.9,1.2,2,1.5,3.1c0.3,1.1,0.8,2.1,1.4,3c0,0.1,0.1,0.1,0.1,0.3
			C17,61,16.4,60.3,16,59.4c-0.5-1-0.9-2-1.4-3c-0.4-1-0.9-1.9-1.4-2.9c-0.2-0.6-0.4-1.1-0.6-1.7c0-0.1,0-0.2,0-0.3
			c0,0,0.1,0,0.1-0.1c0.2,0.2,0.4,0.3,0.5,0.5c0.4,0.6,0.7,1.3,1.1,1.9c0.1,0.1,0.2,0.3,0.3,0.4C14.6,54.5,14.7,54.6,14.7,54.7z"/>
		<path class="st0" d="M18,16.6c-0.5-0.2-0.7-0.7-0.7-1.2c0-0.7,0.4-1.3,1.1-1.7c0.6-0.3,1.2-0.2,1.6,0.2c0.3,0.3,0.5,0.7,0.7,1.1
			c0.1,0.3-0.2,0.4-0.4,0.4c-0.4,0-0.8,0-1.2,0c-0.3,0-0.7,0-1,0c-0.4,0-0.5,0.2-0.4,0.6c0,0.1,0.1,0.2,0.1,0.3
			C17.9,16.4,17.9,16.5,18,16.6z"/>
		<path class="st0" d="M64.1,89.9c0,0.4-0.6,1.2-1,1.2c-0.1,0-0.2-0.1-0.3-0.1c-0.1-0.1-0.1-0.3-0.1-0.4c-0.1-0.3-0.2-0.3-0.5-0.1
			c-0.2,0.1-0.4,0.3-0.6,0.4c-0.1,0.1-0.3,0.1-0.3,0c-0.1-0.1-0.1-0.3-0.1-0.4c0.1-0.2,0.2-0.5,0.3-0.6c0.5-0.4,1-0.8,1.5-1.1
			c0.6-0.3,0.9-0.2,1,0.5C64.1,89.5,64.1,89.7,64.1,89.9z"/>
		<path class="st0" d="M56.4,93.1c-1.1,0.5-6.2-0.9-7.2-1.9c0.7,0.1,1.3,0.3,1.9,0.4c1.2,0.3,2.5,0.5,3.7,0.8
			C55.4,92.5,55.9,92.7,56.4,93.1z"/>
		<path class="st0" d="M20.4,42.2c-0.8-0.3-1.5-0.6-2.3-0.9c0,0,0-0.1,0-0.1c0.1,0,0.2-0.1,0.3,0c0.7,0,1.4,0.1,2.1,0.1
			c0.2,0,0.5,0.1,0.7,0.2c0.3,0.2,0.4,0.5,0.2,0.8C21,43,19.7,43.3,19,42.8c-0.1-0.1-0.1-0.2-0.2-0.4c0.1,0,0.3-0.1,0.4-0.1
			c0.4,0,0.8,0.1,1.1,0.1C20.4,42.3,20.4,42.3,20.4,42.2z"/>
		<path class="st0" d="M14.7,54.7c0-0.1-0.1-0.2-0.1-0.4c-0.3-1.2-0.9-2.3-1.1-3.6c0,0,0.1,0,0.1-0.1c0.1,0.1,0.2,0.2,0.3,0.3
			c0.8,1.2,1.4,2.5,1.7,4c0,0.1,0,0.3,0.1,0.4c0,0.1,0,0.2,0,0.3C15.1,55.6,15,55.1,14.7,54.7z"/>
		<path class="st0" d="M37.9,76.7c0.6,0,1,0.3,1.5,0.5c0.1,0,0.2,0.1,0.3,0.2c0.6,0.4,1.2,0.8,1.9,0.9c0.2,0,0.4,0.3,0.6,0.4
			c-0.2,0.1-0.5,0.2-0.7,0.2c-0.6-0.1-1.3-0.2-1.9-0.5c-0.7-0.4-1.3-1-1.9-1.5C37.8,76.8,37.9,76.8,37.9,76.7z"/>
		<path class="st0" d="M23.6,25.3c-0.4,0-0.8-0.1-1.1-0.1c-0.8,0-1.5,0-2.3,0c-0.2,0-0.4,0.2-0.7,0.2c-0.3,0.1-0.6,0.1-0.9,0.2
			c0-0.1,0-0.1-0.1-0.2c0.2-0.1,0.4-0.2,0.6-0.3c0.9-0.3,1.9-0.6,2.8-0.9C22.6,24.2,23.2,24.6,23.6,25.3z"/>
		<path class="st0" d="M40.3,76.8c0.8-0.1,1.7,0,2.4,0.4c0.2,0.1,0.5,0.3,0.8,0.3c0.3,0.1,0.7,0.2,1.1,0.2c0.1,0,0.3,0.1,0.4,0.2
			c-0.8,0.2-1.6,0.1-2.4-0.1c-0.8-0.2-1.5-0.6-2.2-0.9C40.3,76.9,40.3,76.9,40.3,76.8z"/>
		<path class="st0" d="M98.6,90.1c-1.6,0.3-3.1,0.7-4.7,0.3c0-0.1,0-0.1,0-0.2C95.4,89.9,97,89.8,98.6,90.1z"/>
		<path class="st0" d="M46.9,31.3c0.6,0.1,1.1,0.3,1.5,0.6c0.3,0.3,0.4,0.7,0.3,1c-0.1,0.2-0.3,0.3-0.4,0.1C48,32.5,47.5,32.3,47,32
			c-0.1-0.1-0.2-0.1-0.3-0.2c-0.1-0.1-0.1-0.2-0.2-0.3C46.7,31.4,46.8,31.4,46.9,31.3z"/>
		<path class="st0" d="M43.5,82.9c-1,0.1-2.6-0.6-2.9-1.3C41.1,81.4,43.1,82.3,43.5,82.9z"/>
		<path class="st0" d="M64.5,90.5c0-0.1,0.1-0.2,0.2-0.3c0.4-0.4,0.9-0.6,1.4-0.7c0.1,0,0.2,0,0.3,0.1c0,0.1,0,0.2-0.1,0.3
			c-0.5,0.4-0.9,0.8-1.4,1.1C64.8,91.1,64.5,90.8,64.5,90.5z"/>
		<path class="st0" d="M16.2,42.3c0.2,0.1,0.4,0.2,0.6,0.3c-0.1,0.2-0.2,0.5-0.4,0.6c-0.3,0.3-1.1,0-1.1-0.4c0-0.1,0.1-0.3,0.2-0.3
			C15.7,42.4,15.9,42.3,16.2,42.3z"/>
		<path class="st0" d="M22.4,20.6c0-0.4,0.1-0.5,0.4-0.6c0.5-0.2,1.1-0.2,1.5,0.2C23.8,20.6,23.2,20.7,22.4,20.6z"/>
		<path class="st0" d="M16.7,48.8c-0.4-0.1-0.8-0.2-1.1-0.4c-0.1-0.1-0.3-0.3-0.3-0.4c0-0.1,0.2-0.3,0.4-0.3
			C16.3,47.6,16.7,48,16.7,48.8z"/>
		<path class="st0" d="M43.2,80.3c-0.8,0.3-2.2-0.3-2.4-0.9C41.6,79.5,42.4,79.8,43.2,80.3z"/>
		<path class="st0" d="M15.2,46.3c0.4-0.2,1.5,0,1.7,0.3c0.1,0.1,0.1,0.2,0.1,0.3c-0.1,0.1-0.3,0.2-0.4,0.3
			C16.3,47.2,15.4,46.6,15.2,46.3z"/>
		<path class="st0" d="M38.4,76.1c-0.8-0.2-1.8-0.2-2.4-1C36.4,74.9,37.9,75.5,38.4,76.1z"/>
		<path class="st0" d="M13.3,49c-0.4-0.1-0.8-0.3-0.9-0.8c0-0.2,0.1-0.4,0.2-0.6c0.2,0.1,0.4,0.1,0.5,0.3c0.2,0.3,0.3,0.7,0.4,1
			C13.4,49,13.4,49,13.3,49z"/>
		<path class="st0" d="M71.8,91.5c-0.4,0.6-0.9,0.9-1.4,1.3c0,0-0.1,0-0.1,0c0-0.2,0-0.4,0.1-0.5C70.7,91.8,71.2,91.5,71.8,91.5z"/>
		<path class="st0" d="M66.3,90.8c0,0.6-0.6,1.1-1.1,1c-0.2,0-0.3-0.1-0.2-0.3C65.1,91.2,65.9,90.8,66.3,90.8z"/>
		<path class="st0" d="M35.1,66.8c-0.4-0.2-0.7-0.3-1.1-0.5c-0.1,0-0.2-0.2-0.1-0.2c0-0.1,0.1-0.2,0.2-0.2
			C34.5,65.8,35.1,66.1,35.1,66.8z"/>
		<path class="st0" d="M51.6,85.7c-0.4,0.5-1.1,0.7-1.5,0.2C50.4,85.6,51.2,85.5,51.6,85.7z"/>
		<path class="st0" d="M44.8,85.2c0.3-0.2,0.9-0.3,1.1,0c0.1,0.1,0.1,0.3,0.2,0.6C45.5,85.7,45,85.5,44.8,85.2z"/>
		<path class="st0" d="M67.2,91.5c0-0.6,0.4-1,0.9-1c0.1,0,0.2,0,0.2,0.1c0,0,0,0.2,0,0.2C68,91.1,67.7,91.4,67.2,91.5z"/>
		<path class="st0" d="M19.5,56.5c0.5-0.2,1-0.2,1.4-0.1C20.6,57,20,57,19.5,56.5z"/>
		<path class="st0" d="M25.1,67.5c0.7,0,1.2,0.5,1.6,1c0,0,0,0.1-0.1,0.1c-0.5-0.3-1.1-0.6-1.6-0.9C25.1,67.6,25.1,67.5,25.1,67.5z"
			/>
		<path class="st0" d="M69.1,91.5c-0.3,0.3-0.5,0.6-0.8,0.8c0,0-0.2,0-0.3-0.1c-0.1-0.1-0.1-0.2,0-0.3
			C68.1,91.7,68.6,91.4,69.1,91.5z"/>
		<path class="st0" d="M22.9,65.8c0.6,0,1.1,0.4,1.3,1.1C23.7,66.6,23.2,66.4,22.9,65.8z"/>
		<path class="st0" d="M39.5,84.5c-0.2,0.5-0.6,0.6-1.2,0.4C38.4,84.6,39,84.4,39.5,84.5z"/>
		<path class="st0" d="M32.8,75.1c-0.6,0.3-1.1-0.1-1.5-0.3c0,0,0-0.1,0-0.1c0.5,0.1,1,0.2,1.5,0.3C32.8,75,32.8,75,32.8,75.1z"/>
		<path class="st0" d="M47.4,90.9c-0.3-0.1-0.6-0.2-0.9-0.3c0.3-0.3,0.7-0.4,0.9-0.2c0.1,0.1,0.1,0.3,0.1,0.4
			C47.5,90.8,47.4,90.9,47.4,90.9z"/>
		<path class="st0" d="M42.9,88.5c-0.2-0.2-0.3-0.3-0.5-0.5c0.1-0.1,0.2-0.2,0.3-0.2c0.2,0,0.4,0.1,0.6,0.1c0,0.2-0.1,0.4-0.1,0.6
			C43.1,88.4,43,88.5,42.9,88.5z"/>
		<path class="st0" d="M11.5,39.5c0.2-0.1,0.4-0.2,0.5-0.2c0.2,0,0.4,0,0.5,0c0,0.1-0.1,0.2-0.1,0.3c-0.1,0.2-0.3,0.3-0.5,0.2
			C11.8,39.7,11.8,39.6,11.5,39.5z"/>
		<path class="st0" d="M38.9,82.2c0.3,0,0.6,0,0.8,0.1c0.1,0,0.1,0.1,0.2,0.2c-0.1,0.1-0.2,0.2-0.3,0.2c-0.3-0.1-0.5-0.2-0.8-0.3
			C38.9,82.3,38.9,82.2,38.9,82.2z"/>
		<path class="st0" d="M42.6,84.5c0.4,0,0.8,0.1,1.3,0.1c-0.4,0.4-0.8,0.4-1.3,0C42.6,84.6,42.6,84.6,42.6,84.5z"/>
		<path class="st0" d="M34.7,75.8c-0.4,0.2-0.9,0-1.3-0.5c0.4,0.1,0.9,0.2,1.3,0.4C34.7,75.7,34.7,75.8,34.7,75.8z"/>
		<path class="st0" d="M15.2,49.1c0.5-0.1,1,0.1,1,0.6c-0.4-0.2-0.7-0.4-1.1-0.5C15.1,49.2,15.2,49.2,15.2,49.1z"/>
		<path class="st0" d="M69.2,91.9c0.4-0.2,0.8-0.5,1.3-0.8c-0.2,0.6-0.6,0.8-1.2,0.9C69.3,92,69.3,91.9,69.2,91.9z"/>
		<path class="st0" d="M55.2,79c-0.2,0-0.4-0.1-0.6-0.2c0,0,0-0.3,0.1-0.4c0.1-0.1,0.3-0.2,0.3-0.1c0.1,0.2,0.2,0.3,0.3,0.5
			C55.3,79,55.3,79,55.2,79z"/>
		<path class="st0" d="M80.3,85.8c0.1,0.1,0.2,0.2,0.2,0.3c-0.1,0.1-0.2,0.3-0.4,0.4c-0.1,0-0.3-0.2-0.4-0.3
			C79.9,86.1,80.1,85.9,80.3,85.8z"/>
		<path class="st0" d="M17.4,43.6c0.2,0,0.5-0.1,0.7,0c0.1,0,0.2,0.2,0.2,0.2c0,0.1-0.2,0.2-0.2,0.2c-0.2,0-0.5-0.1-0.7-0.2
			C17.4,43.7,17.4,43.6,17.4,43.6z"/>
		<path class="st0" d="M23,68.8c0.5,0.2,0.8,0.6,1,1.1c-0.4-0.3-0.8-0.7-1.1-1C23,68.8,23,68.8,23,68.8z"/>
		<path class="st0" d="M17.1,44.8c-0.3-0.1-0.5-0.2-0.7-0.3c0.1-0.1,0.3-0.4,0.4-0.4C17.2,44.1,17.1,44.4,17.1,44.8z"/>
		<path class="st0" d="M74.7,95.2c0.3-0.2,0.6-0.3,0.9-0.2C75.6,95.5,75.2,95.6,74.7,95.2z"/>
		<path class="st0" d="M44,82.2c-0.3-0.1-0.5-0.2-0.8-0.3c0-0.1,0-0.1,0-0.2c0.2,0,0.4-0.1,0.6,0c0.1,0,0.2,0.2,0.3,0.3
			C44.1,82.1,44.1,82.1,44,82.2z"/>
		<path class="st0" d="M51,87.2c-0.7,0-1.3-0.1-2-0.1c0-0.1,0-0.1,0-0.2c0.7,0.1,1.3,0.1,2,0.2C51,87.1,51,87.2,51,87.2z"/>
		<path class="st0" d="M60.5,89.6c0.4-0.2,0.7-0.5,1.1-0.7c0,0.1,0.1,0.1,0.1,0.2c-0.4,0.2-0.7,0.5-1.1,0.7
			C60.6,89.7,60.5,89.7,60.5,89.6z"/>
		<path class="st0" d="M25.3,57.2c-0.3,0-0.5-0.1-0.5-0.4c0-0.1,0.1-0.2,0.2-0.3c0.1,0.1,0.2,0.1,0.2,0.2
			C25.3,56.9,25.2,57,25.3,57.2z"/>
		<path class="st0" d="M88.1,90.1c-0.2,0.1-0.3,0.3-0.4,0.3c0,0-0.2-0.1-0.2-0.2c0.1-0.1,0.3-0.3,0.4-0.4C87.9,89.9,88,90,88.1,90.1
			z"/>
		<path class="st0" d="M56.3,91.4c0.2-0.3,0.3-0.5,0.5-0.8C57.1,91.2,57,91.3,56.3,91.4z"/>
		<path class="st0" d="M57.2,80.7c-0.3-0.1-0.5-0.1-0.7-0.2c-0.1,0-0.1-0.1-0.1-0.2c0-0.1,0.1-0.1,0.2-0.2
			C56.9,80.2,57.1,80.4,57.2,80.7z"/>
		<path class="st0" d="M92.4,89.6c0,0.2,0.2,0.4-0.1,0.5c-0.1,0-0.2,0-0.3,0c0.1-0.2,0.2-0.4,0.2-0.5C92.2,89.5,92.3,89.5,92.4,89.6
			z"/>
		<path class="st0" d="M22.9,63.3c0.2,0,0.4,0,0.6-0.1c0,0.1,0,0.2,0,0.3c-0.2,0-0.4,0-0.6,0C22.9,63.5,22.9,63.4,22.9,63.3z"/>
		<path class="st0" d="M84.3,83.8c0,0.2,0,0.4,0,0.7c-0.2-0.1-0.3-0.2-0.3-0.2c0-0.2,0.1-0.3,0.2-0.5C84.2,83.8,84.2,83.8,84.3,83.8
			z"/>
		<path class="st0" d="M35.2,80c-0.3-0.1-0.6-0.2-0.9-0.4c0-0.1,0-0.1,0.1-0.2c0.3,0.1,0.6,0.2,1,0.4C35.2,79.9,35.2,80,35.2,80z"/>
		<path class="st0" d="M19.7,54.6c-0.2,0-0.5,0-0.7,0.1c0-0.1,0-0.1,0-0.2c0.2,0,0.5-0.1,0.7-0.1C19.7,54.4,19.7,54.5,19.7,54.6z"/>
		<path class="st0" d="M23.5,38.6c-0.1,0.1-0.1,0.2-0.2,0.4c-0.1-0.1-0.2-0.1-0.3-0.2c0,0,0-0.1,0-0.1
			C23.1,38.6,23.3,38.5,23.5,38.6C23.4,38.5,23.5,38.5,23.5,38.6z"/>
		<path class="st0" d="M40.1,74.2c-0.1-0.1-0.3-0.2-0.4-0.3c0,0,0-0.1,0.1-0.2c0.1,0.1,0.3,0.2,0.4,0.3
			C40.2,74.1,40.1,74.1,40.1,74.2z"/>
		<path class="st0" d="M38.3,73.1c-0.1-0.1-0.3-0.2-0.4-0.2c0.1-0.1,0.2-0.2,0.2-0.2c0.1,0.1,0.2,0.2,0.3,0.2
			C38.4,73,38.4,73.1,38.3,73.1z"/>
		<path class="st0" d="M40.3,87c0.1,0.1,0.1,0.2,0.2,0.4c-0.2,0-0.4,0-0.5,0c0.1-0.1,0.1-0.3,0.2-0.4C40.2,87,40.2,87,40.3,87z"/>
		<path d="M28.2,51.1c0.5,1.2,1.1,2.4,1.9,3.5c0,0,0.1,0,0.1,0c0-0.2-0.1-0.4-0.1-0.6c-0.2-0.6-0.5-1.2-0.8-1.8
			c-0.1-0.2-0.1-0.4-0.2-0.6c0,0,0.1,0,0.1-0.1c0.1,0.1,0.3,0.1,0.4,0.2c1,0.9,1.9,1.9,2.6,3c0.3,0.4,0.2,0.5-0.2,0.7
			c-0.1,0.1-0.2,0.3-0.2,0.4c0,0.2,0.1,0.5,0.2,0.7c-0.2-0.2-0.3-0.3-0.5-0.4c-0.3-0.2-0.5-0.2-0.7,0.1c-0.4,0.5-0.5,0.5-0.9,0
			c-0.1-0.1-0.1-0.2-0.2-0.3c-0.8-1.4-1.3-2.8-1.5-4.4C28.2,51.4,28.2,51.2,28.2,51.1z"/>
		<path d="M36.3,52c0.7-0.1,0.9,0.1,0.8,0.8c0,0.3-0.1,0.6-0.1,0.9c0,0.3,0.1,0.6,0.5,0.7c-0.1,0.5-0.2,1-0.4,1.4
			c-0.2,0.4-0.5,0.4-0.7,0.1c-0.3-0.7-1-1.2-1.1-2.1c-0.1-0.9-0.2-1.8,0.1-2.7c0-0.1,0.1-0.3,0.1-0.4c0-0.1,0.1-0.2,0.2-0.2
			c0.1,0,0.2,0.1,0.2,0.2c0.1,0.3,0.2,0.6,0.3,0.9C36.3,51.7,36.3,51.9,36.3,52z"/>
		<path d="M39.1,39.3c0,0.2,0,0.5-0.1,0.7c-0.2,0.8-0.5,1.6-0.7,2.3c-0.1,0.3-0.3,0.7-0.8,0.7c-0.5-0.1-0.6-0.5-0.6-0.9
			c0-0.7,0-1.4,0.2-2.1c0.1-0.5,0.3-1,0.6-1.5c0.1-0.1,0.2-0.2,0.4-0.3c0.1,0.1,0.2,0.2,0.2,0.4c0,0.3,0,0.6,0,0.9
			c-0.1,0.6-0.2,1.1-0.3,1.6c0,0.1,0,0.3,0.1,0.6c0.7-0.8,0.4-1.8,1-2.5C39,39.3,39,39.3,39.1,39.3z"/>
		<path d="M22.7,47.9c0.2,0.1,0.3,0.3,0.5,0.4c0.2,0.1,0.5,0.3,0.7,0.4c0.8,0.3,1.2,1,1.1,1.8c-0.1,0.7-0.7,1-1.2,0.5
			c-0.7-0.7-1.3-1.4-1.9-2.1c0,0-0.1-0.1-0.1-0.2c0,0,0-0.1,0.1-0.1c0.5,0.3,1,0.6,1.7,1C23.4,48.8,22.8,48.4,22.7,47.9z"/>
		<path d="M28.5,48.6c-0.3-0.1-0.6-0.2-0.9-0.3c-0.6-0.2-1.2-0.4-1.8-0.6c-0.8-0.2-1-0.9-1.3-1.5c-0.1-0.2,0-0.3,0.3-0.3
			c0.2,0.1,0.5,0.1,0.7,0.2c0.9,0.6,1.8,1.2,2.7,1.8c0.2,0.1,0.3,0.4,0.5,0.5C28.6,48.5,28.5,48.5,28.5,48.6z"/>
		<path d="M28.8,45.7c-0.2-0.1-0.4-0.2-0.6-0.3c-0.3-0.2-0.7-0.4-1-0.6c-0.3-0.2-0.6-0.4-0.5-1c0.1-0.4-0.2-0.8-0.3-1.3
			c0-0.1-0.1-0.2-0.2-0.4c0.1,0.1,0.1,0.1,0.2,0.1c0.4,0.7,1,1.2,1.7,1.5c0,0,0.1,0,0.1,0.1c0.2,0.1,0.3,0.3,0.5,0.4
			c-0.2,0.1-0.3,0.2-0.5,0.4c0.3,0.3,0.6,0.6,0.8,0.9C28.8,45.6,28.8,45.7,28.8,45.7z"/>
		<path d="M22.9,46.9c0.7,0,2.9,1.4,3.1,2c-0.3,0.2-1.1,0.1-1.4-0.1c-0.5-0.5-1-1-1.5-1.5C23.1,47.2,23,47.1,22.9,46.9z"/>
		<path d="M50.4,77c-0.8-0.2-1.9-2-1.8-2.9C49.2,74.2,50.7,76.4,50.4,77z"/>
		<path d="M29.2,47.1c-1.3-0.5-2.5-1-3.8-1.5C26,45.3,28.7,46.3,29.2,47.1z"/>
		<path d="M42.5,64.7c-0.4-0.6-0.6-1.2-0.7-1.8c0-0.1,0.1-0.3,0.1-0.5c0.1,0.1,0.3,0.2,0.4,0.3C42.7,63.3,42.7,63.9,42.5,64.7z"/>
		<path d="M28.1,54.5c-0.2-0.3-0.5-0.6-0.6-0.8c0-0.1,0.1-0.3,0.3-0.5c0,0,0.3,0.1,0.3,0.2C28.2,53.8,28.4,54.1,28.1,54.5z"/>
		<path d="M47.1,71.7c-0.5,0.1-0.9-0.4-0.9-1.1C46.6,70.7,47,71.2,47.1,71.7z"/>
		<path d="M29.1,43.2c0,0-0.2,0.2-0.2,0.2c-0.2-0.2-0.4-0.4-0.6-0.5c0.1-0.1,0.3-0.3,0.4-0.4C28.9,42.3,29.1,42.7,29.1,43.2z"/>
		<path d="M39.1,52.6c0.1-0.7,0.2-1.4,0.3-2.1C39.7,50.9,39.6,51.9,39.1,52.6z"/>
		<path d="M38.8,50.2c0,0.6-0.1,1.1-0.1,1.6C38.4,51.5,38.5,50.6,38.8,50.2z"/>
		<path d="M27.2,50.9c-0.4-0.1-0.7-0.5-0.6-1.1c0.2,0.3,0.5,0.7,0.7,1C27.3,50.9,27.2,50.9,27.2,50.9z"/>
		<path d="M25.9,52.3c0.1,0.4,0.1,0.7,0.2,1.1C25.6,53.1,25.6,52.8,25.9,52.3z"/>
		<path d="M43.8,67.2c0,0.3,0,0.6,0,1C43.4,68,43.3,67.6,43.8,67.2z"/>
		<path d="M33.6,50.3c0,0.4,0.1,0.8,0.1,1.2c-0.1,0-0.1,0-0.2,0c0-0.4,0-0.8-0.1-1.2C33.5,50.3,33.6,50.3,33.6,50.3z"/>
		<path d="M31.4,61.2c0.1,0.1,0.3,0.1,0.3,0.2c0.1,0.1,0,0.3,0,0.4c0,0-0.1,0-0.1,0C31.5,61.6,31.4,61.4,31.4,61.2
			C31.4,61.2,31.4,61.2,31.4,61.2z"/>
		<path d="M36.3,45.7c0.2,0.4,0.4,0.7,0.5,1.1c0,0-0.1,0-0.1,0.1c-0.2-0.4-0.3-0.8-0.5-1.1C36.2,45.7,36.3,45.7,36.3,45.7z"/>
		<path d="M25.4,50.3c0.1-0.1,0.2-0.1,0.4-0.2c0,0,0.1,0,0.1,0.1c0,0.1-0.1,0.3-0.1,0.3c-0.1,0-0.2,0-0.3-0.1
			C25.4,50.4,25.4,50.3,25.4,50.3z"/>
		<path d="M40.7,58.1c0-0.3,0-0.5,0-0.8c0,0,0.1,0,0.1,0c0,0.3,0,0.5,0,0.8C40.8,58.1,40.8,58.1,40.7,58.1z"/>
		<path d="M20.1,35.2c0.1-0.2,0.1-0.3,0.2-0.4c0.3-0.6,0.7-0.7,1.3-0.5c0.7,0.3,1.1,0.8,1.4,1.5c0.1,0.1,0,0.3,0,0.4
			c-0.2,0-0.3,0-0.5,0c-0.3-0.1-0.6-0.3-0.8-0.4C21.2,35.4,20.7,35.2,20.1,35.2z"/>
		<path d="M34.8,31.1c-0.2-0.1-0.6-0.1-0.9-0.2c-0.1,0-0.2-0.1-0.1-0.2c0-0.4,0-0.8,0.1-1.1c0.1-0.4,0.5-0.6,0.9-0.3
			c0.4,0.3,0.8,0.7,0.8,1.2C35.7,30.9,35.4,31.1,34.8,31.1z"/>
		<path d="M25,32.3c0.7-1,4-1.6,4.9-0.9c-0.1,0.1-0.2,0.2-0.3,0.2c-0.3,0.1-0.6,0.2-0.9,0.3c-0.3,0.1-0.6,0.1-1-0.1
			c-0.3-0.1-0.7-0.1-1.1,0c-0.3,0.1-0.6,0.2-0.9,0.3C25.5,32.2,25.3,32.2,25,32.3z"/>
		<path d="M23,34.2c-0.5,0.1-0.7-0.3-1-0.6c-0.2-0.2,0-0.4,0.2-0.5c0.4-0.2,1.4,0.2,1.6,0.6c0,0.1-0.1,0.3-0.2,0.4
			C23.5,34.1,23.3,34.1,23,34.2z"/>
		<path d="M36.3,31.1c0-0.1-0.1-0.3-0.1-0.4c0.2-0.6,0.6-1,1.2-1.2c0.1,0,0.2-0.1,0.3,0c0.1,0,0.2,0.1,0.3,0.2
			c-0.1,0.1-0.1,0.2-0.2,0.3c-0.3,0.1-0.6,0.3-0.9,0.3c-0.3,0.1-0.4,0.2-0.4,0.4c0,0.1-0.1,0.2-0.1,0.4
			C36.5,31.1,36.4,31.1,36.3,31.1z"/>
		<path d="M21,33.1c0,0.5-0.3,0.6-0.7,0.4C20.5,33.4,20.7,33.3,21,33.1z"/>
		<path d="M24.8,32.4c-0.1,0.2-0.1,0.3-0.2,0.5C24.3,32.6,24.3,32.5,24.8,32.4z"/>
	</g>
</g>
</svg>
