<?xml version="1.0" encoding="utf-8"?>
<!-- Generator: Adobe Illustrator 21.0.0, SVG Export Plug-In . SVG Version: 6.00 Build 0)  -->
<svg version="1.1" id="Layer_1" xmlns="http://www.w3.org/2000/svg" xmlns:xlink="http://www.w3.org/1999/xlink" x="0px" y="0px"
	 viewBox="0 0 107.6 114" style="enable-background:new 0 0 107.6 114;" xml:space="preserve">
<style type="text/css">
	.st0{fill:#212121;}
	.st1{fill:#216BA7;}
</style>
<g id="hZrN6H.tif">
	<g>
		<path class="st0" d="M10.7,102c-0.1-0.1-0.3-0.2-0.2-0.5c0.2-0.9,0.5-1.9,0.7-2.8c0.1-0.3,0.2-0.4,0.5-0.4c0.4,0,0.7-0.1,1.1-0.1
			c0.5,0,0.8-0.2,1-0.6c0.9-1.7,1.3-3.5,1.7-5.3c0.4-1.9,0.6-3.8,1.3-5.7c0.1-0.4,0.3-0.5,0.7-0.5c1.1,0,2.1,0,3.2,0
			c0.3,0,0.4,0,0.3,0.4c-0.9,4-1.7,8-2.8,11.9c-0.2,0.6-0.4,1.1-0.7,1.7c-0.6,1.2-1.6,1.8-3,2c-0.1,0-0.2,0-0.2,0.1
			C13.1,102,11.9,102,10.7,102z"/>
		<path class="st1" d="M82.9,55c-1.5,3.1-3.6,5.8-6.2,8.1c-4.1,3.6-8.8,5.8-14.1,6.7c-3.4,0.6-6.8,0.5-10.2,0.1
			c-7.9-1-14.4-4.6-19.9-10.2c-5-5.1-8.2-11.2-9.3-18.4c-0.9-6,0-11.6,3.3-16.7c0.8-1.2,1.7-2.3,2.6-3.4c0.1-0.2,0.3-0.3,0.6-0.3
			c-0.2,1-0.4,2.1-0.6,3.1c-1,6.6-0.6,12.9,2.3,19c1.9,4,4.7,7.4,8.1,10.3c3.8,3.2,7.9,5.9,12.6,7.5c8,2.7,16,2.5,23.7-1
			c2.4-1.1,4.5-2.6,6.4-4.4C82.5,55.2,82.7,55.1,82.9,55L82.9,55z"/>
		<path class="st1" d="M84.7,38.9c0.1,0.2-0.1,0.4-0.2,0.6C82,45,77.7,48.4,72,49.9c-8.7,2.3-16.5,0.4-23.2-5.7
			c-3.3-3-5.8-6.5-6.9-10.9c-1.2-4.3-1.2-8.6,0.5-12.8c0.7-1.8,2.3-4.1,3.4-5.1c-0.1,0.9-0.3,1.8-0.4,2.7
			c-0.7,5.7,0.1,11.2,3.4,16.1c2.3,3.4,5.5,5.9,9,7.9c2.9,1.7,6,2.9,9.4,3.3c6.4,0.7,11.9-1,16.5-5.5C84.1,39.5,84.4,39.2,84.7,38.9
			L84.7,38.9z"/>
		<path class="st0" d="M39.9,92.4c-0.3,1.2-0.6,2.3-0.8,3.4C39,96,38.8,96,38.6,96c-0.9,0-1.8,0-2.6,0c-2.9,0-5.9,0.1-8.8-0.1
			c-2.6-0.2-4.5-2.1-4.8-4.7c-0.4-3.6,0.4-6.9,2.6-9.9c2-2.9,4.9-4,8.4-3.8c2.2,0.1,4.1,0.9,5.4,2.7c1.4,1.8,1.6,3.9,1.1,6
			c-0.5,1.9-1.1,3.8-1.8,5.6c-0.2,0.5-0.1,0.6,0.4,0.6C38.9,92.4,39.4,92.4,39.9,92.4z M31.4,92.3c0.8,0,1.4,0,2.1,0
			c0.2,0,0.3-0.1,0.4-0.3c0.6-2.3,1.4-4.6,1.8-7c0.3-1.4-0.4-2.8-1.7-3.3c-1.8-0.8-4.9-0.4-5.9,2.2c-0.7,1.8-1.1,3.6-1.3,5.4
			c-0.1,1.4,0.6,2.5,2,2.8C29.8,92.4,30.6,92.3,31.4,92.3z"/>
		<path class="st0" d="M64.7,90.1c-1.4,0-2.8,0-4.2,0c-0.4,0-0.6,0.1-0.6,0.5c-0.2,0.9,0.2,1.5,1.1,1.7c0.9,0.2,1.8,0.2,2.6,0.2
			c1.5,0,3,0,4.5,0c0.4,0,0.5,0.1,0.4,0.4c-0.2,0.9-0.4,1.8-0.6,2.7c0,0.2-0.1,0.3-0.4,0.3c-2.9,0-5.8,0.3-8.7-0.1
			c-2-0.3-3.3-1.7-3.2-3.7c0.1-2.5,0.7-5,1.8-7.3c0.4-0.8,1-1.5,1.8-2c2.5-1.7,5.2-2.2,8.1-1.2c1.9,0.7,2.9,2.2,2.7,4.3
			c-0.1,1.3-0.4,2.6-0.6,3.9c-0.1,0.3-0.2,0.4-0.5,0.4C67.5,90.1,66.1,90.1,64.7,90.1z M60.7,87c1.6,0,3.1,0,4.7,0
			c0.1,0,0.1,0,0.2,0c0.2,0,0.3,0,0.4-0.3c0.1-0.8-0.2-1.5-0.9-1.7C63.5,84.4,61.4,84.6,60.7,87z"/>
		<path class="st0" d="M55.9,81.6c-1,4.7-2,9.4-2.9,14c-0.1,0.3-0.1,0.4-0.5,0.4c-2.4,0-4.9,0-7.3,0c-2.5,0-3.8-1.4-3.8-3.9
			c0.1-1.8,0.5-3.6,0.8-5.4c0.3-1.5,0.6-3.1,1-4.6c0.1-0.3,0.2-0.4,0.5-0.4c1,0,2,0,2.9,0c0.3,0,0.4,0.1,0.4,0.4
			c-0.1,1.8-0.6,3.6-1,5.4c-0.3,1.5-0.5,3-0.3,4.6c0,0.3,0.1,0.5,0.5,0.4c1.1,0,2.2,0,3.3,0c0.3,0,0.4-0.1,0.5-0.4
			c0.7-3.3,1.4-6.5,2.1-9.8c0.1-0.5,0.3-0.6,0.8-0.6C53.8,81.6,54.8,81.6,55.9,81.6z"/>
		<path class="st1" d="M59.1,12c-0.1,1.1-0.3,2.1-0.2,3.2c0.1,4.4,1.9,8,5.1,10.8c2.1,1.8,4.4,3.2,7.1,3.9c3.5,1,6.9,0.5,10.2-1.1
			c0.1-0.1,0.3-0.1,0.5-0.2c-0.5,0.9-1.1,1.6-1.7,2.2c-2,1.9-4.4,2.8-7.1,2.9c-3.4,0.1-6.6-0.5-9.5-2.3c-3.8-2.5-6.2-6.1-7.1-10.5
			c-0.6-3.2,0.4-6,2.3-8.6l0.1-0.1C59,12,59,12,59.1,12z"/>
		<path class="st0" d="M86.2,88.3c1.9-2.8,3.8-5.4,5.5-8.1c0.4-0.7,0.9-0.9,1.7-0.9c1.2,0.1,2.4,0,3.7,0c-0.4,0.8-0.8,1.4-1.2,2
			c-1.5,2.2-3.3,4.3-4.9,6.4c-1.9,2.4-3.5,4.9-4.5,7.9c-0.1,0.2-0.2,0.3-0.4,0.3c-1.3,0-2.6,0-3.9,0c0-0.1-0.1-0.1,0-0.1
			c1-1.8,0.8-3.7,0.3-5.6c-0.3-1.2-0.7-2.4-1-3.6c-0.1-0.5,0-0.6,0.5-0.6c1.1,0,2.2,0,3.3,0c0.3,0,0.4,0.1,0.5,0.4
			C85.8,87,86,87.6,86.2,88.3z"/>
		<path class="st0" d="M78.5,81.5c1,0.1,2.6-0.1,4.2,0.1c1.4,0.1,1.9,0.7,2.2,2c0.3,1.5,0.3,1.5-1.1,1.5c-2.3,0-4.6,0-6.9,0
			c-0.4,0-0.6,0.1-0.6,0.5c-0.7,3.2-1.4,6.5-2,9.7C74.2,95.8,74,96,73.4,96c-0.9-0.1-1.9,0-2.8,0c-0.3,0-0.4-0.1-0.3-0.4
			c1-4.6,2-9.2,2.9-13.8c0.1-0.3,0.2-0.4,0.5-0.4C75.1,81.5,76.5,81.5,78.5,81.5z"/>
		<path class="st0" d="M17,84.8c0.2-1,0.5-2,0.7-3c0.1-0.2,0.2-0.3,0.4-0.3c1.1,0,2.3,0,3.4,0c0.4,0,0.4,0.1,0.3,0.4
			c-0.2,0.9-0.4,1.7-0.6,2.6c0,0.2,0,0.3-0.3,0.3C19.7,84.8,18.4,84.8,17,84.8z"/>
		<path class="st1" d="M84.7,38.9L84.7,38.9L84.7,38.9L84.7,38.9L84.7,38.9z"/>
		<path class="st1" d="M82.8,54.9C82.8,54.9,82.9,54.9,82.8,54.9C82.9,54.9,82.9,55,82.8,54.9C82.9,55,82.9,55,82.8,54.9z"/>
	</g>
</g>
</svg>
