<svg height="512pt" viewBox="0 0 512 512.06881" width="512pt" xmlns="http://www.w3.org/2000/svg"><path d="m369.382812 66.71875c-69.820312-41.785156-156.960937-41.785156-226.78125 0l-14.5625 9.53125c-22.378906 16.015625-41.59375 36.039062-56.675781 59.058594l-7.0625 11.652344h-.085937c-11.328125 19.785156-19.460938 41.234374-24.101563 63.558593v.085938c-14.691406 27.582031-22.390625 58.351562-22.421875 89.601562 0 116.964844 106.726563 211.863281 238.347656 211.863281 131.617188 0 238.34375-94.898437 238.34375-211.863281-.019531-31.253906-7.71875-62.023437-22.421874-89.601562v-.085938c-4.640626-22.324219-12.773438-43.773437-24.101563-63.558593h-.085937l-7.0625-11.742188c-15.082032-22.992188-34.300782-42.984375-56.671876-58.96875zm0 0" fill="#f0c419"/><path d="m229.554688 198.691406c.011718 26.492188-18.121094 49.550782-43.875 55.789063h-.085938c-12.183594-15.890625-36.28125-27.984375-65.679688-32.042969v-.089844c-12.136718-26.761718-2.070312-58.367187 23.308594-73.179687l6.617188-3.355469.355468-.089844c6.960938-2.914062 14.433594-4.417968 21.980469-4.414062 31.6875 0 57.378907 25.691406 57.378907 57.382812zm0 0" fill="#fff"/><path d="m194.246094 286.964844c-4.878906 0-8.828125-3.953125-8.828125-8.828125 0-26.3125-40.421875-48.550781-88.277344-48.550781-4.875 0-8.828125-3.953126-8.828125-8.828126s3.953125-8.828124 8.828125-8.828124c59.402344 0 105.929687 29.078124 105.929687 66.207031 0 4.875-3.949218 8.828125-8.824218 8.828125zm0 0" fill="#e57e25"/><path d="m194.246094 194.277344c0 9.75-7.90625 17.652344-17.65625 17.652344s-17.65625-7.902344-17.65625-17.652344c0-9.753906 7.90625-17.65625 17.65625-17.65625s17.65625 7.902344 17.65625 17.65625zm0 0" fill="#2c2f38"/><path d="m194.246094 185.449219c0 4.875-3.953125 8.828125-8.828125 8.828125s-8.828125-3.953125-8.828125-8.828125 3.953125-8.828125 8.828125-8.828125 8.828125 3.953125 8.828125 8.828125zm0 0" fill="#fff"/><path d="m256.039062 344.34375c-4.117187 0-101.175781-.210938-141.949218-18.421875-12.148438-4.308594-21.433594-14.261719-24.894532-26.675781-4.625-20.074219 11.203126-39.222656 11.882813-40.027344 3.132813-3.734375 8.703125-4.21875 12.4375-1.085938 3.734375 3.136719 4.222656 8.707032 1.085937 12.441407-5.898437 6.84375-8.847656 15.746093-8.191406 24.757812 2.417969 6.902344 7.941406 12.261719 14.910156 14.46875 37.320313 16.6875 133.753907 16.890625 134.71875 16.890625.960938 0 97.394532-.203125 134.742188-16.890625 6.96875-2.207031 12.492188-7.566406 14.910156-14.46875.652344-9.019531-2.300781-17.929687-8.210937-24.777343-2.023438-2.417969-2.605469-5.734376-1.519531-8.695313 1.082031-2.964844 3.660156-5.125 6.769531-5.667969 3.105469-.546875 6.269531.609375 8.292969 3.027344.679687.804688 16.507812 19.953125 11.882812 40.027344-3.464844 12.417968-12.765625 22.375-24.921875 26.675781-40.773437 18.210937-137.832031 18.421875-141.945313 18.421875zm0 0" fill="#802d40"/><path d="m105.96875 176.621094c-4.101562.007812-7.664062-2.808594-8.609375-6.796875-.941406-3.988281.984375-8.101563 4.652344-9.933594l88.277343-44.136719c2.824219-1.410156 6.183594-1.207031 8.816407.535156 2.632812 1.738282 4.136719 4.75 3.945312 7.898438-.191406 3.148438-2.046875 5.957031-4.871093 7.367188l-88.273438 44.140624c-1.222656.609376-2.570312.925782-3.9375.925782zm0 0" fill="#e57e25"/><path d="m300.175781 423.792969c-4.875 0-8.828125-3.953125-8.828125-8.828125 0-8.332032-15.105468-17.65625-35.308594-17.65625-20.207031 0-35.3125 9.324218-35.3125 17.65625 0 4.875-3.953124 8.828125-8.828124 8.828125s-8.828126-3.953125-8.828126-8.828125c0-19.800782 23.269532-35.308594 52.96875-35.308594 29.695313 0 52.964844 15.507812 52.964844 35.308594 0 4.875-3.953125 8.828125-8.828125 8.828125zm0 0" fill="#e57e25"/><g fill="#2fa8cc"><path d="m37.714844 6.53125c7.800781 11.878906 13.992187 24.742188 18.414062 38.25 1.226563 3.246094.4375 6.910156-2.015625 9.363281s-6.117187 3.242188-9.363281 2.015625c-13.507812-4.421875-26.371094-10.613281-38.25-18.414062-8.621094-8.621094-8.621094-22.597656 0-31.214844 8.617188-8.621094 22.59375-8.621094 31.214844 0zm0 0"/><path d="m34.09375 106.945312c12.578125 6.617188 24.21875 14.875 34.621094 24.558594 2.644531 2.242188 3.734375 5.820313 2.78125 9.15625-.949219 3.332032-3.765625 5.800782-7.195313 6.308594-13.953125 2.667969-28.203125 3.472656-42.371093 2.390625-11.214844-3.75-17.476563-15.675781-14.203126-27.039063 3.277344-11.363281 14.929688-18.125 26.421876-15.332031zm0 0"/><path d="m149.921875 29.90625c-1.058594 14.171875-3.992187 28.144531-8.730469 41.542969-1.007812 3.316406-3.867187 5.738281-7.304687 6.1875s-6.820313-1.15625-8.648438-4.105469c-8.011719-11.753906-14.429687-24.515625-19.085937-37.957031-1.492188-12.042969 7.015625-23.035157 19.050781-24.601563 12.035156-1.570312 23.078125 6.875 24.71875 18.898438zm0 0"/><path d="m474.289062 6.53125c-7.804687 11.878906-14 24.742188-18.421874 38.25-1.230469 3.246094-.441407 6.914062 2.015624 9.367188 2.457032 2.457031 6.125 3.242187 9.371094 2.011718 13.507813-4.421875 26.363282-10.613281 38.242188-18.414062 5.617187-5.566406 7.824218-13.714844 5.792968-21.355469-2.035156-7.640625-8.003906-13.609375-15.644531-15.644531-7.640625-2.039063-15.785156.167968-21.355469 5.785156zm0 0"/><path d="m477.910156 106.945312c-12.578125 6.617188-24.21875 14.875-34.621094 24.558594-2.644531 2.242188-3.734374 5.820313-2.78125 9.15625.949219 3.332032 3.765626 5.800782 7.195313 6.308594 13.953125 2.667969 28.203125 3.472656 42.371094 2.390625 7.886719-1.902344 14.09375-7.984375 16.160156-15.828125 2.066406-7.847656-.339844-16.195312-6.265625-21.738281-5.921875-5.542969-14.410156-7.386719-22.101562-4.804688zm0 0"/><path d="m362.074219 29.90625c1.058593 14.171875 3.988281 28.140625 8.722656 41.542969 1.003906 3.324219 3.863281 5.75 7.304687 6.199219 3.445313.449218 6.832032-1.164063 8.65625-4.117188 8.011719-11.75 14.425782-24.515625 19.074219-37.957031 1.496094-12.042969-7.015625-23.035157-19.050781-24.601563-12.03125-1.570312-23.074219 6.875-24.714844 18.898438zm0 0"/></g><path d="m256.039062 441.449219c-4.878906 0-8.828124-3.953125-8.828124-8.828125v-8.828125c0-4.875 3.949218-8.828125 8.828124-8.828125 4.875 0 8.824219 3.953125 8.824219 8.828125v8.828125c0 4.875-3.949219 8.828125-8.824219 8.828125zm0 0" fill="#e57e25"/><path d="m282.519531 198.691406c-.011719 26.492188 18.121094 49.550782 43.875 55.789063h.085938c12.183593-15.890625 36.28125-27.984375 65.679687-32.042969v-.089844c12.136719-26.761718 2.074219-58.367187-23.304687-73.179687l-6.621094-3.355469-.355469-.089844c-6.960937-2.914062-14.433594-4.417968-21.980468-4.414062-31.6875 0-57.378907 25.691406-57.378907 57.382812zm0 0" fill="#fff"/><path d="m317.832031 286.964844c4.875 0 8.824219-3.953125 8.824219-8.828125 0-26.3125 40.421875-48.550781 88.277344-48.550781 4.875 0 8.828125-3.953126 8.828125-8.828126s-3.953125-8.828124-8.828125-8.828124c-59.402344 0-105.929688 29.078124-105.929688 66.207031 0 4.875 3.949219 8.828125 8.828125 8.828125zm0 0" fill="#e57e25"/><path d="m353.140625 194.277344c0 9.75-7.90625 17.652344-17.65625 17.652344s-17.652344-7.902344-17.652344-17.652344c0-9.753906 7.902344-17.65625 17.652344-17.65625s17.65625 7.902344 17.65625 17.65625zm0 0" fill="#2c2f38"/><path d="m353.140625 185.449219c0 4.875-3.953125 8.828125-8.828125 8.828125s-8.828125-3.953125-8.828125-8.828125 3.953125-8.828125 8.828125-8.828125 8.828125 3.953125 8.828125 8.828125zm0 0" fill="#fff"/><path d="m406.105469 176.621094c4.101562.007812 7.664062-2.808594 8.609375-6.796875.941406-3.988281-.984375-8.101563-4.652344-9.933594l-88.277344-44.136719c-4.363281-2.179687-9.667968-.410156-11.847656 3.957032-2.179688 4.363281-.40625 9.664062 3.957031 11.84375l88.273438 44.140624c1.222656.609376 2.570312.925782 3.9375.925782zm0 0" fill="#e57e25"/></svg>