<?xml version="1.0" encoding="utf-8"?>
<!-- Generator: Adobe Illustrator 21.0.0, SVG Export Plug-In . SVG Version: 6.00 Build 0)  -->
<svg version="1.1" id="Layer_1" xmlns="http://www.w3.org/2000/svg" xmlns:xlink="http://www.w3.org/1999/xlink" x="0px" y="0px"
	 viewBox="0 0 200 200" style="enable-background:new 0 0 200 200;" xml:space="preserve">
<style type="text/css">
	.st0{fill:#75994E;}
	.st1{fill:#6A8E49;}
	.st2{fill:#668746;}
	.st3{fill:#C0BEBD;}
</style>
<path class="st0" d="M98.8,19.5c0,0,1.7,2.3,2.1,3.3c0.4,0.9,4.5,11.6,4.5,11.6l5.6,4l15.5,39.4l9.8,21.2c0,0-0.1,7.8-0.8,11.8
	S123,127.9,123,127.9s-13.6,28.7-17.2,32.1c-3.6,3.4-8.6,2.2-8.6,2.2l-1.6-6.1l-20.4-21.5L64,107.4c0,0-1.4-22.5,2.3-32.1
	c3.7-9.7,2.8-9.6,2.8-9.6l3.6-9.4l4.8-4.1l10-16.2l5.8-0.3l1.2-4.8l4.5-7.8L98.8,19.5z"/>
<g id="PZCpuc.tif">
	<g>
		<path class="st1" d="M63.9,91.6c0.6-2.6,0.6-4.9,0.9-7.3c1.1-7.3,2.6-14.3,5.1-20.5c0.6,0.9,0.9,1.9,1.3,3
			c9,26.7,17.7,53.5,27.1,80.4c0.2,0.6,0.2,1.5,1.3,1.9c-0.6,3.2-0.9,6.4-1.5,9.6c0,0.9,0,1.9-1.3,2.3c-7-5.8-13.4-11.9-18.8-19.4
			c-7.7-10.9-12.6-22.4-14.1-35.6c0-0.2,0-0.9-0.2-0.9C63.9,100.3,63.9,96.1,63.9,91.6z"/>
		<path class="st0" d="M99.5,148.9c-0.9,0-0.9-1.3-1.3-1.9c-9-26.4-18.1-53.5-27.1-80.4c-0.2-0.9-0.6-1.7-1.3-2.8
			c1.9-6.4,4.9-11.9,8.5-17.7c4.5-7,10.2-13.4,16.6-18.8c2.3-1.9,3.8-4.5,3.8-7.9c0.6,0.6,0.9,1.3,0.9,1.9c-0.6,0.2-0.2,0.9-0.2,1.5
			c1.3,6.2,1.3,11.7,1.3,17.5c0.2,12.8,0.2,24.9,0.2,37.7c0,2.6,0,4.7,0,7.3c0,7,0,14.1,0.2,20.9c0,3.8,0,7.7-0.2,11.1
			c-0.2,4.9,0,10.2-0.2,15.1c-0.2,3.4-0.2,7-0.2,10.4C99.7,145.1,99.9,147,99.5,148.9z"/>
		<path class="st1" d="M101.6,106.5c-0.2-7-0.2-14.1-0.2-20.9c0-2.6,0-4.7,0-7.3c0-12.8,0-24.9-0.2-37.7c-0.2-5.8-0.2-11.3-0.9-17.3
			c0-0.6-0.2-1.3,0.2-1.5c2.6,6.6,7.9,11.3,12.6,16.8c11.7,13.4,18.8,28.8,22.2,46.1c0.9,5.5,1.3,11.1,0.9,16.6
			c-1.5,0.2-3.2,0.2-4.7,0.6c-5.5,0.9-10.9,1.9-16.6,2.6C110.8,105,106.1,106.1,101.6,106.5z"/>
		<path class="st2" d="M101.6,106.5c4.5,0,9-1.3,13.4-1.9c5.5-0.6,10.9-1.5,16.6-2.6c1.5-0.2,3.2-0.2,4.7-0.6
			c-0.2,7.7-1.5,15.1-4.1,23c-4.9,14.5-13.6,26.4-25.6,35.6c-2.3-0.6-3.2-2.6-3.8-4.5c-1.3-3.8-1.9-7.9-1.9-11.7
			c0.2-3.4,0-7,0.2-10.4c0.6-4.9,0-10.2,0.2-15.1C101.6,113.8,101.4,110.1,101.6,106.5z"/>
		<path class="st3" d="M100.5,143.2c0,4.1,0.6,7.9,1.9,11.7c0.6,1.9,1.5,3.8,3.8,4.5c-1.9,2.3-2.6,4.9-2.6,7.9
			c-0.2,4.1-0.6,8.1,0,12.6c0,0.2,0,0.6-0.6,0.6c-2.6,0-3.8-1.3-3.8-3.8c0-5.5-0.6-10.9-2.6-16c1.3-0.2,1.3-1.5,1.3-2.3
			c0.6-3.2,0.9-6.4,1.5-9.6C99.9,147,99.7,145.1,100.5,143.2z"/>
	</g>
</g>
</svg>
