<?xml version="1.0" encoding="utf-8"?>
<!-- Generator: Adobe Illustrator 21.0.0, SVG Export Plug-In . SVG Version: 6.00 Build 0)  -->
<svg version="1.1" id="Layer_1" xmlns="http://www.w3.org/2000/svg" xmlns:xlink="http://www.w3.org/1999/xlink" x="0px" y="0px"
	 viewBox="0 0 200 200" style="enable-background:new 0 0 200 200;" xml:space="preserve">
<style type="text/css">
	.st0{fill:#9CBC45;}
	.st1{fill:#46473D;}
	.st2{fill:#FEFEFD;}
</style>
<g id="Qk7KAA.tif">
	<g>
		<path class="st0" d="M185.5,100c0,14.9,0,29.9,0,44.8c0,3.3-1.4,5.6-4.2,7.2c-12.7,7.4-25.4,14.7-38.1,22
			c-12.8,7.4-25.6,14.7-38.3,22.1c-3.3,1.9-6.4,2.1-9.8,0.1c-18.7-10.9-37.5-21.7-56.3-32.6c-6.7-3.9-13.4-7.7-20.1-11.5
			c-3-1.7-4.4-4.1-4.4-7.6c0.1-29.6,0.1-59.2,0-88.9c0-3.6,1.5-6,4.5-7.7C32.7,40,46.4,32,60.2,24.1c11.7-6.7,23.4-13.4,35-20.2
			c3.4-2,6.4-1.9,9.8,0C129.3,18,153.7,32,178.1,46.1c1.8,1,3.7,1.9,5.3,3.4c1.5,1.4,2.2,3.2,2.2,5.3
			C185.5,69.9,185.5,84.9,185.5,100z M135.5,94.4c0-6.2,0-12.5,0-18.7c0-1.1-0.3-1.8-1.4-2.6c-2.1-1.5-4.6-1.9-6.5-3.7
			c-0.4-0.4-1-1-1.8-0.6c-0.7,0.4-0.5,1.2-0.5,1.8c0,5.8,0,11.6,0,17.4c0,0.8,0.5,2-0.4,2.5c-0.9,0.6-1.5-0.6-2.3-1
			c-1.1-0.5-2.2-1.7-3.4-0.6c-0.9,0.8-2.1,1.2-3.1,1.8c-1.2,0.7-2.6,0.9-3.7,1.7c-1.6,1.1-3.1,2.3-4.9,3.1c-1.7,0.8-2.6,1.9-2.5,4
			c0.2,4.3,0.1,8.6,0,12.9c0,1.6,0.5,2.5,1.9,3.3c3.8,2,7.5,4.1,11.2,6.2c0.8,0.4,1.3,1.4,2.3,1c1.2-0.4,2.4-0.8,3.4-1.5
			c3.1-2.2,6.5-4,9.8-5.9c1.2-0.7,1.7-1.5,1.6-2.9C135.4,106.7,135.5,100.5,135.5,94.4z M95,105.7c0-2.5,0-4.9,0-7.4
			c0-1-0.4-1.7-1.2-2.2c-4.2-2.4-8.4-4.8-12.6-7.3c-0.9-0.5-1.7-0.6-2.7,0c-4.1,2.4-8.3,4.8-12.4,7.2c-0.9,0.5-1.4,1.2-1.4,2.3
			c0,4.9,0,9.7,0,14.6c0,1.1,0.4,1.8,1.4,2.3c4.1,2.3,8.2,4.7,12.3,7.1c1,0.6,2,0.6,3,0c4.1-2.4,8.2-4.8,12.3-7.1
			c1-0.6,1.4-1.3,1.4-2.5C95,110.4,95,108.1,95,105.7z M54.5,108C54.5,108,54.5,108,54.5,108c0-2.2-0.2-4.5,0.1-6.6
			c0.4-3.4-0.5-5.6-4-7c-3.6-1.5-6.8-3.7-10.2-5.6c-0.8-0.4-1.6-0.8-2.5-0.2c-3.8,2.9-7.9,5-12.1,7.2c-1.2,0.6-1.6,1.4-1.6,2.7
			c0.1,3.4,0,6.7,0,10.1c0,3.2,0,6.3,0,9.5c0,0.5-0.1,1,0.4,1.3c0.6,0.3,0.8-0.2,1.2-0.4c1.6-0.8,3.1-1.7,4.8-2.2
			c2.9-1,3.7-2,3.7-5.1c0-1.7,0-3.5,0-5.2c0-4.3,0-4.3,3.9-5.7c0.1,0,0.1-0.1,0.2-0.1c2.7-0.9,6,1.4,6,4.2c0,2.7,0,5.4,0,8.1
			c0,1.2,0.5,2.1,1.5,2.6c2.3,1,4.4,2.3,6.6,3.6c1.5,0.8,1.9,0.6,1.9-1.1C54.5,114.6,54.5,111.3,54.5,108z M145.5,105.8
			C145.5,105.8,145.5,105.8,145.5,105.8c0,2.3,0.1,4.6,0,6.8c-0.1,1.6,0.6,2.4,2,3c3.7,1.6,6.9,3.9,10.2,6.1c1,0.7,2.2,1.3,3.4,0.9
			c3-0.9,5.5-2.8,8-4.6c0.7-0.5,0.7-0.9-0.1-1.5c-1.6-1.3-3.3-2.5-5.1-3.4c-2.3-1.1-4.5-2.5-6.7-3.8c-0.6-0.4-1.6-0.6-1.5-1.6
			c0.1-1.7-0.7-3.7,0.4-5.1c1-1.3,2.8-2.2,4.4-2.6c1.3-0.3,2.5,0.9,3.7,1.5c1.2,0.6,1.8,1.6,1.6,3.1c-0.1,0.7-0.1,1.4,0,2.2
			c0.1,1.2,0.8,1.7,1.8,0.9c2.2-1.8,5-2.6,7.1-4.4c1.2-1,1.8-5.4,0.8-6.6c-0.2-0.3-0.5-0.5-0.9-0.6c-4.2-1.7-7.8-4.5-11.6-6.9
			c-1.3-0.8-2.4-1.1-3.8-0.2c-4,2.5-8.3,4.6-12.2,7.3c-0.9,0.6-1.6,1.3-1.5,2.6C145.6,101.2,145.5,103.5,145.5,105.8z M163.5,105.7
			c0-1.7-1.3-3.3-2.8-3.3c-1.3,0-3,1.6-3,2.9c0,2,1,3.4,2.6,3.4C161.9,108.7,163.5,107.2,163.5,105.7z"/>
		<path class="st1" d="M135.5,94.4c0,6.1,0,12.2,0,18.3c0,1.4-0.5,2.2-1.6,2.9c-3.3,1.9-6.7,3.7-9.8,5.9c-1,0.7-2.2,1.1-3.4,1.5
			c-1,0.3-1.6-0.6-2.3-1c-3.8-2-7.5-4.2-11.2-6.2c-1.4-0.7-1.9-1.7-1.9-3.3c0.1-4.3,0.2-8.6,0-12.9c-0.1-2.1,0.8-3.2,2.5-4
			c1.8-0.8,3.3-2,4.9-3.1c1.1-0.8,2.5-1,3.7-1.7c1-0.6,2.1-1,3.1-1.8c1.3-1.1,2.3,0.1,3.4,0.6c0.8,0.3,1.3,1.6,2.3,1
			c0.9-0.5,0.3-1.7,0.4-2.5c0-5.8,0-11.6,0-17.4c0-0.6-0.3-1.4,0.5-1.8c0.7-0.4,1.3,0.2,1.8,0.6c1.8,1.8,4.4,2.2,6.5,3.7
			c1.1,0.8,1.4,1.4,1.4,2.6C135.5,82,135.5,88.2,135.5,94.4z M125.3,105.9c0.4-2.3-0.5-3.6-2.7-4.7c-1.9-0.9-2.9-0.5-4.5,0.3
			c-2.7,1.4-2.8,1.3-2.8,4.3c0,0.4,0,0.7,0,1.1c0.1,0.8-0.5,2,0.5,2.5c1.5,0.8,3.1,2.1,4.6,2c1.5-0.1,3.1-1.4,4.5-2.5
			C125.9,108.2,125.2,106.9,125.3,105.9z"/>
		<path class="st2" d="M95,105.7c0,2.3,0,4.7,0,7c0,1.2-0.4,1.9-1.4,2.5c-4.1,2.3-8.2,4.7-12.3,7.1c-1,0.6-2,0.6-3,0
			c-4.1-2.4-8.2-4.8-12.3-7.1c-1-0.5-1.4-1.2-1.4-2.3c0-4.9,0-9.7,0-14.6c0-1.1,0.5-1.8,1.4-2.3c4.2-2.4,8.3-4.8,12.4-7.2
			c1-0.6,1.8-0.5,2.7,0c4.2,2.4,8.4,4.8,12.6,7.3c0.9,0.5,1.2,1.2,1.2,2.2C95,100.8,95,103.3,95,105.7z M84.5,105.2
			c-0.2-1.2,0.5-2.8-1.1-3.6c-1.3-0.6-2.4-1.9-3.8-1.8c-1.7,0.1-3.2,1.3-4.5,2.4c-1.1,0.9-0.4,2.6-0.5,3.9c-0.1,1.6,3.3,4.7,5,4.4
			c1.7-0.3,3-1.4,4.4-2.4C84.9,107.4,84.3,106.2,84.5,105.2z"/>
		<path class="st1" d="M54.5,108c0,3.3,0,6.6,0,9.9c0,1.7-0.5,1.9-1.9,1.1c-2.2-1.3-4.3-2.5-6.6-3.6c-1.1-0.5-1.6-1.3-1.5-2.6
			c0-2.7,0-5.4,0-8.1c0-2.8-3.3-5.1-6-4.2c-0.1,0-0.1,0.1-0.2,0.1c-3.9,1.4-3.9,1.4-3.9,5.7c0,1.7,0,3.5,0,5.2c0,3.1-0.8,4-3.7,5.1
			c-1.6,0.6-3.2,1.4-4.8,2.2c-0.4,0.2-0.6,0.8-1.2,0.4c-0.5-0.3-0.4-0.8-0.4-1.3c0-3.2,0-6.3,0-9.5c0-3.4,0-6.7,0-10.1
			c0-1.3,0.4-2.1,1.6-2.7c4.2-2.2,8.3-4.4,12.1-7.2c0.9-0.7,1.7-0.3,2.5,0.2c3.4,1.9,6.6,4.2,10.2,5.6c3.5,1.4,4.3,3.6,4,7
			C54.3,103.6,54.5,105.8,54.5,108C54.5,108,54.5,108,54.5,108z"/>
		<path class="st1" d="M145.5,105.8c0-2.3,0.1-4.6,0-6.8c-0.1-1.3,0.6-2,1.5-2.6c3.9-2.7,8.2-4.7,12.2-7.3c1.3-0.9,2.5-0.6,3.8,0.2
			c3.8,2.4,7.4,5.2,11.6,6.9c0.3,0.1,0.6,0.4,0.9,0.6c1,1.2,0.3,5.6-0.8,6.6c-2.2,1.8-5,2.6-7.1,4.4c-1,0.8-1.6,0.3-1.8-0.9
			c-0.1-0.7-0.1-1.5,0-2.2c0.2-1.5-0.4-2.5-1.6-3.1c-1.2-0.6-2.4-1.8-3.7-1.5c-1.6,0.4-3.4,1.3-4.4,2.6c-1,1.4-0.3,3.4-0.4,5.1
			c-0.1,1,0.9,1.2,1.5,1.6c2.2,1.3,4.4,2.6,6.7,3.8c1.8,0.9,3.5,2.1,5.1,3.4c0.7,0.6,0.8,1,0.1,1.5c-2.5,1.8-5,3.7-8,4.6
			c-1.1,0.3-2.3-0.2-3.4-0.9c-3.3-2.3-6.5-4.5-10.2-6.1c-1.4-0.6-2.1-1.5-2-3C145.6,110.3,145.5,108,145.5,105.8
			C145.5,105.8,145.5,105.8,145.5,105.8z"/>
		<path class="st1" d="M163.5,105.7c0,1.5-1.6,3.1-3.2,3c-1.6,0-2.6-1.4-2.6-3.4c0-1.3,1.7-2.9,3-2.9
			C162.2,102.4,163.5,104,163.5,105.7z"/>
		<path class="st0" d="M125.3,105.9c-0.2,1,0.5,2.3-0.4,3c-1.4,1-2.9,2.4-4.5,2.5c-1.5,0.1-3.2-1.1-4.6-2c-0.9-0.5-0.4-1.6-0.5-2.5
			c-0.1-0.4,0-0.7,0-1.1c0-3,0.1-2.8,2.8-4.3c1.6-0.9,2.6-1.2,4.5-0.3C124.9,102.3,125.7,103.6,125.3,105.9z"/>
		<path class="st0" d="M84.5,105.2c-0.2,1,0.5,2.2-0.5,2.9c-1.4,1-2.7,2.1-4.4,2.4c-1.7,0.3-5.1-2.8-5-4.4c0.1-1.3-0.7-3,0.5-3.9
			c1.3-1.1,2.8-2.3,4.5-2.4c1.4-0.1,2.5,1.2,3.8,1.8C85,102.4,84.3,104,84.5,105.2z"/>
	</g>
</g>
</svg>
